<svg width="152" height="152" viewBox="0 0 152 152" fill="none" xmlns="http://www.w3.org/2000/svg">
<path d="M75.9961 36.2941L57.3481 23.5419L58.2186 19.3623L84.0268 19.7975L92.3202 19.3623L97.8957 30.6529L75.9961 36.2941Z" fill="white"/>
<mask id="mask0_1238_485" style="mask-type:luminance" maskUnits="userSpaceOnUse" x="11" y="19" width="52" height="52">
<path d="M62.6202 27.2453C58.9333 23.4024 56.1743 19.7976 56.1743 19.7976C52.3067 20.6844 43.7998 22.9179 38.2325 26.4898C30.8177 31.2524 17.6549 45.7372 15.2982 48.3074C12.9416 50.8775 10.4535 53.2834 11.5457 54.7779C12.1451 55.5908 16.9323 62.086 21.6045 66.6925C23.0744 68.1377 24.4128 69.3448 25.6199 70.1413C26.6299 70.7982 27.4017 70.6504 28.1572 70.5929C28.9126 70.5272 35.3585 63.9828 36.5327 62.6772C38.9715 59.951 40.9258 58.1363 41.7305 58.3744C45.1629 45.3595 55.0821 34.2003 62.6202 27.2453Z" fill="white"/>
</mask>
<g mask="url(#mask0_1238_485)">
<path d="M79.4125 11.1348H6.2085V82.3024H79.4125V11.1348Z" fill="#CCCCCC"/>
</g>
<mask id="mask1_1238_485" style="mask-type:luminance" maskUnits="userSpaceOnUse" x="89" y="20" width="53" height="51">
<path d="M89.6182 27.9451C93.2454 24.0458 95.9485 20.3989 95.9485 20.3989C99.8293 21.2261 108.37 23.3282 113.991 26.8139C121.47 31.4535 134.855 45.7337 137.259 48.2671C139.655 50.8006 142.18 53.1679 141.111 54.679C140.524 55.5011 135.837 62.0693 131.237 66.7473C129.789 68.215 128.47 69.4425 127.275 70.2575C126.275 70.9299 125.501 70.794 124.745 70.7482C123.989 70.6942 117.443 64.2499 116.248 62.9625C113.768 60.2743 111.786 58.4899 110.985 58.7404C107.344 45.7882 97.2543 34.7832 89.6182 27.9451Z" fill="white"/>
</mask>
<g mask="url(#mask1_1238_485)">
<path d="M72.5948 82.2922L145.799 82.2922L145.799 11.1246L72.5948 11.1246L72.5948 82.2922Z" fill="#808080"/>
</g>
<mask id="mask2_1238_485" style="mask-type:luminance" maskUnits="userSpaceOnUse" x="39" y="26" width="74" height="110">
<path d="M88.7076 26.4077C84.8647 31.2852 79.8968 36.4091 76.0047 36.2942C72.0961 36.1792 66.7669 31.5644 62.6202 27.2453C55.0822 34.2003 45.1629 45.3595 41.7223 58.3744C41.7223 58.3744 42.0015 58.0953 42.0015 59.91C42.0015 61.7247 41.3036 77.3919 41.164 82.565C41.0244 87.7382 38.0847 130.626 40.466 131.743C42.8473 132.859 63.5398 135.101 75.0029 135.101H77.0064C88.4695 135.101 109.162 132.868 111.543 131.743C113.925 130.618 110.985 87.7382 110.845 82.565C110.706 77.3919 110.008 61.7329 110.008 59.91C110.008 58.0953 110.287 58.3744 110.287 58.3744C110.361 58.3498 110.443 58.3498 110.525 58.3662C106.937 44.8175 96.3277 33.2806 88.7076 26.4077Z" fill="white"/>
</mask>
<g mask="url(#mask2_1238_485)">
<path d="M121.159 14.6902H32.5913V147.443H121.159V14.6902Z" fill="#CCCCCC"/>
</g>
<mask id="mask3_1238_485" style="mask-type:luminance" maskUnits="userSpaceOnUse" x="39" y="26" width="74" height="110">
<path d="M88.7076 26.4077C84.8647 31.2852 79.8968 36.4091 76.0047 36.2942C72.0961 36.1792 66.7669 31.5644 62.6202 27.2453C55.0822 34.2003 45.1629 45.3595 41.7223 58.3744C41.7223 58.3744 42.0015 58.0953 42.0015 59.91C42.0015 61.7247 41.3036 77.3919 41.164 82.565C41.0244 87.7382 38.0847 130.626 40.466 131.743C42.8473 132.859 63.5398 135.101 75.0029 135.101H77.0064C88.4695 135.101 109.162 132.868 111.543 131.743C113.925 130.618 110.985 87.7382 110.845 82.565C110.706 77.3919 110.008 61.7329 110.008 59.91C110.008 58.0953 110.287 58.3744 110.287 58.3744C110.361 58.3498 110.443 58.3498 110.525 58.3662C106.937 44.8175 96.3277 33.2806 88.7076 26.4077Z" fill="white"/>
</mask>
<g mask="url(#mask3_1238_485)">
<path d="M36.8774 140.356L76.1358 57.6519L126.553 161.673L36.8774 140.356Z" fill="#1A1A1A"/>
</g>
<mask id="mask4_1238_485" style="mask-type:luminance" maskUnits="userSpaceOnUse" x="39" y="26" width="74" height="110">
<path d="M88.7076 26.4077C84.8647 31.2852 79.8968 36.4091 76.0047 36.2942C72.0961 36.1792 66.7669 31.5644 62.6202 27.2453C55.0822 34.2003 45.1629 45.3595 41.7223 58.3744C41.7223 58.3744 42.0015 58.0953 42.0015 59.91C42.0015 61.7247 41.3036 77.3919 41.164 82.565C41.0244 87.7382 38.0847 130.626 40.466 131.743C42.8473 132.859 63.5398 135.101 75.0029 135.101H77.0064C88.4695 135.101 109.162 132.868 111.543 131.743C113.925 130.618 110.985 87.7382 110.845 82.565C110.706 77.3919 110.008 61.7329 110.008 59.91C110.008 58.0953 110.287 58.3744 110.287 58.3744C110.361 58.3498 110.443 58.3498 110.525 58.3662C106.937 44.8175 96.3277 33.2806 88.7076 26.4077Z" fill="white"/>
</mask>
<g mask="url(#mask4_1238_485)">
<path d="M54.1045 12.5881L136.037 181.183L140.726 -14.5996L54.1045 12.5881Z" fill="#808080"/>
</g>
<path d="M59.6886 16.8989C59.6886 16.8989 69.3533 18.7547 76.0045 18.7547C82.6557 18.7547 92.3204 16.8989 92.3204 16.8989L93.782 19.3623L90.7767 20.7829C87.8781 21.2838 80.9559 22.3923 75.8321 22.3923C70.897 22.3923 64.3033 21.3741 61.2241 20.8404L58.2188 19.3541L59.6886 16.8989Z" fill="#1A1A1A"/>
<path d="M76.0866 38.306C91.7539 34.1346 96.3276 18.4674 96.3276 18.4674L92.3122 16.9072C88.7567 30.2753 77.0391 33.9868 75.9963 34.2906C74.9535 33.9868 63.2441 30.2753 59.6804 16.9072L55.665 18.4674C55.665 18.4674 60.2388 34.1346 75.906 38.306H76.0866Z" fill="#1A1A1A"/>
<path d="M61.2241 20.8485C64.2952 21.374 70.8971 22.4004 75.8321 22.4004C80.9642 22.4004 87.8781 21.3001 90.7767 20.791" stroke="#1A1A1A" stroke-width="1.2317" stroke-miterlimit="10"/>
<path d="M76.0044 34.2822V38.3058" stroke="#1A1A1A" stroke-width="1.2317" stroke-miterlimit="10"/>
<path d="M76.0866 38.306C91.7539 34.1346 96.3276 18.4674 96.3276 18.4674L92.3122 16.9072C88.7567 30.2753 77.0391 33.9868 75.9963 34.2906C74.9535 33.9868 63.2441 30.2753 59.6804 16.9072L55.665 18.4674C55.665 18.4674 60.2388 34.1346 75.906 38.306H76.0866Z" stroke="#1A1A1A" stroke-width="1.2317" stroke-miterlimit="10"/>
<path d="M59.6885 16.8989C59.6885 16.8989 69.3532 18.7547 76.0044 18.7547C82.6556 18.7547 92.3203 16.8989 92.3203 16.8989" stroke="#1A1A1A" stroke-width="1.2317" stroke-miterlimit="10"/>
<path d="M41.7139 58.3742C41.7139 58.3742 46.3122 40.9087 61.224 28.7805" stroke="#1A1A1A" stroke-width="1.2317" stroke-miterlimit="10"/>
<path d="M110.286 58.3742C110.286 58.3742 105.688 40.9087 90.7764 28.7805" stroke="#1A1A1A" stroke-width="1.2317" stroke-miterlimit="10"/>
<path d="M95.8677 19.8056C99.7516 20.7006 108.226 22.9259 113.777 26.4896C121.183 31.244 134.346 45.7288 136.711 48.2989C139.068 50.869 141.556 53.275 140.463 54.7694C139.864 55.5824 135.077 62.0775 130.405 66.6841C128.935 68.1293 127.596 69.3363 126.389 70.1328C125.379 70.7897 124.607 70.6419 123.852 70.5845C123.096 70.5188 116.651 63.9743 115.476 62.6687C113.038 59.9426 111.083 58.1279 110.279 58.366C110.279 58.366 109.999 58.0868 109.999 59.9015C109.999 61.7162 110.697 77.3834 110.837 82.5566C110.977 87.7297 113.916 130.618 111.535 131.734C109.162 132.851 88.461 135.093 76.998 135.093H74.9945C63.5314 135.093 42.8389 132.859 40.4576 131.734C38.0845 130.618 41.016 87.7297 41.1555 82.5566C41.2951 77.3834 41.9931 61.7244 41.9931 59.9015C41.9931 58.0786 41.7139 58.366 41.7139 58.366C40.9174 58.1279 38.9549 59.9426 36.5161 62.6687C35.3501 63.9743 28.896 70.5188 28.1406 70.5845C27.3851 70.6502 26.6133 70.798 25.6033 70.1328C24.3962 69.3363 23.0578 68.1293 21.5879 66.6841C16.9157 62.0775 12.1203 55.5824 11.5291 54.7694C10.4369 53.275 12.925 50.869 15.2816 48.2989C17.6383 45.7288 30.8011 31.244 38.2159 26.4896C43.7914 22.9177 52.2901 20.6842 56.1577 19.7974" stroke="#1A1A1A" stroke-width="1.2317" stroke-miterlimit="10"/>
<path d="M61.4049 50.5983H55.1807L55.9443 49.5391H61.0107L61.4049 50.5983Z" fill="#1A1A1A"/>
<path d="M58.5716 47.6255H60.296L61.4045 50.598H60.2057L59.4831 48.693H57.7505L57.3481 47.6091L59.286 44.9404L59.7048 46.0572L58.5716 47.6255Z" fill="#1A1A1A"/>
<path d="M66.2822 44.9404H60.1401L62.2587 50.6063L62.6528 48.849L62.39 48.1346L61.5607 45.9258H64.3443L66.2822 44.9404Z" fill="#1A1A1A"/>
<path d="M61.437 46.8538V47.7734H64.2699L64.935 46.8538H61.437Z" fill="#1A1A1A"/>
<path d="M62.1025 48.6931L62.2586 50.6064L63.6216 48.6931H62.7677H62.1025Z" fill="#1A1A1A"/>
<path d="M65.0584 44.9404L64.0566 46.3446H65.2801L66.2819 44.9404H65.0584Z" fill="#1A1A1A"/>
<path d="M67.1115 44.9487L66.3232 46.0408L66.9145 47.6174H68.1133L67.1115 44.9487Z" fill="#1A1A1A"/>
<path d="M65.1817 47.6174L64.3853 48.6931H67.3167L66.9143 47.6174H65.1817Z" fill="#1A1A1A"/>
<path d="M66.1177 46.3448L66.323 46.041L66.9142 46.3448H66.1177Z" fill="#1A1A1A"/>
<path d="M69.238 50.5981L67.9488 48.6931H66.5693L67.8585 50.5981H69.238Z" fill="#1A1A1A"/>
<path d="M68.1134 47.6174H66.9146L67.3169 48.6931H67.9574L68.3269 48.184L68.1134 47.6174Z" fill="#1A1A1A"/>
<path d="M65.2803 49.0298H64.1143V50.5981H65.2803V49.0298Z" fill="#1A1A1A"/>
<path d="M57.2909 46.5089L58.424 44.9487H57.2006L56.0674 46.5089H57.2909Z" fill="#1A1A1A"/>
<path d="M57.0361 46.8537H55.8126L54.7041 48.3892L53.4149 44.9404H52.1914L54.3099 50.598V50.6063L57.0361 46.8537Z" fill="#1A1A1A"/>
</svg>
