<svg width="152" height="152" viewBox="0 0 152 152" fill="none" xmlns="http://www.w3.org/2000/svg">
<path d="M60.3008 17.8281L76.2821 18.881L91.7083 17.6064L88.1015 24.0346L80.2773 30.1301L75.9491 31.7371L67.9031 27.5255L62.687 22.2611L60.3008 17.8281Z" fill="#B3B3B3"/>
<path d="M59.8052 25.3511L63.0226 28.8777L76.3634 55.4446L37.596 135.066L36.937 117.131L39.7114 59.2794L39.4895 56.5088L44.3727 44.3176L52.5853 32.6807L59.8052 25.3511Z" fill="#CCCCCC"/>
<path d="M62.71 29.0346L113.856 135.384L114.974 126.21L114.503 109.047L113.404 88.8284L112.306 57.716L112.07 54.8949L108.461 46.6662L101.005 34.8326L94.806 27.9361L91.9023 25.5068L90.3328 27.1526L85.9381 31.3844L78.2477 35.3027L76.0504 36.008L70.9495 34.2839L64.436 30.0521L62.71 29.0346Z" fill="#808080"/>
<path d="M75.4955 54.8105L37.7056 134.497L38.9264 135.772L65.8492 138.752L86.3312 138.673L104.851 136.949L114.051 135.535L75.4955 54.8105Z" fill="#1A1A1A"/>
<path d="M54.1409 15.7222L57.0264 20.7094L59.9118 25.3089L54.5294 30.684L45.4846 42.4873L39.2142 56.8396L34.886 60.2754L25.0088 70.0285L22.5118 69.9731L16.4077 64.7641L6.41943 52.2404L8.52807 48.5276L30.7797 26.0293L40.9899 19.6011L54.1409 15.7222Z" fill="#CCCCCC"/>
<path d="M97.6451 15.834L104.859 17.7181L115.402 22.0403L127.055 31.3501L145.033 50.8559L145.54 52.604L130.634 69.6138L127.332 70.3064L112.211 55.9818L107.134 43.652L96.5905 29.0781L92.0957 25.4762L97.6451 15.834Z" fill="#808080"/>
<path d="M50.1885 42.5401L52.4581 48.5929V48.602L55.3786 44.5873H54.0681L52.8806 46.23L51.4995 42.54L50.1885 42.5401ZM57.7889 42.5401L55.7129 45.3955L56.144 46.555H58.0004L58.3439 47.46H54.2087L53.3908 48.5935H60.0589L60.0585 48.5931L59.6365 47.46H59.6356L58.871 45.4128H57.0237L58.2376 43.735L57.7889 42.5401ZM58.7039 42.5401L60.9736 48.6023L62.434 46.555H61.3344L61.1144 45.9576L60.969 45.5712H63.1284L63.8411 44.5874H60.5991L60.2259 43.5945H63.2082L63.2269 43.585L62.8997 44.0427H64.2107L65.2838 42.5402L58.7039 42.5401ZM55.5548 42.5492L54.3409 44.2183H55.6519L56.8658 42.5492H55.5548ZM66.1728 42.5492L65.328 43.7177L65.1079 44.0426H65.4501L65.9618 45.4041L66.3928 46.5549H66.3924L65.9613 45.4041H64.1054L63.2519 46.5549H65.5917L66.9728 48.593H68.4505L67.0694 46.5549H67.079L67.4745 46.0102L67.2457 45.4041L66.1728 42.5492ZM62.9616 46.9152V48.593H64.2106V46.9152H62.9616Z" fill="#1A1A1A"/>
<path d="M60.6288 17.9236C60.6288 17.9236 70.4754 18.7786 75.9631 18.7919C75.9766 18.7919 75.9892 18.791 76.0027 18.791C76.0162 18.791 76.0284 18.7919 76.0419 18.7919C81.5228 18.7786 91.7598 17.7746 91.7847 17.7722C86.854 28.3232 76.9716 31.4526 75.9859 31.7392C74.8687 31.4141 62.3241 27.443 58.5062 13.1412L54.2046 14.8103C54.2046 14.8103 59.1046 31.5721 75.8891 36.0349H76.0823C92.8668 31.5721 97.7668 14.8103 97.7668 14.8103L93.465 13.1412C93.1079 14.4819 92.4643 16.4451 91.8661 17.5818C92.4941 16.1855 93.2486 13.4282 92.8859 13C92.8859 13 81.8602 14.7204 76.0417 14.7097C76.0281 14.7096 76.016 14.7106 76.0025 14.7106C75.989 14.7106 75.9764 14.7097 75.9629 14.7097C70.1446 14.7205 59.1093 13.0132 59.1093 13.0132C59.1093 13.0132 58.6611 13.8056 59.3667 15.6671C59.7432 16.6604 60.6288 17.9236 60.6288 17.9236Z" fill="#4D4D4D" stroke="#1A1A1A" stroke-width="1.07131"/>
<path d="M54.6912 14.9214L53.6618 15.2227C53.6618 15.2227 53.7119 15.3707 53.7211 15.4006C49.2812 16.4528 40.9535 18.7283 35.1714 22.4273C31.0926 25.039 25.5891 30.194 20.7428 35.0602C15.8964 39.9263 11.7304 44.499 10.4717 45.8696H10.4713C9.2178 47.2348 7.90941 48.5685 7.0224 49.8285C6.57887 50.4585 6.23331 51.071 6.07644 51.711C5.91969 52.3504 5.99223 53.0612 6.40406 53.6249L6.40453 53.6258L6.40499 53.6263C7.0545 54.5182 12.1859 61.4666 17.2506 66.4535V66.454C18.8372 68.0117 20.2901 69.3266 21.6518 70.2241C22.9003 71.0452 24.0271 70.8801 24.79 70.8138C25.0558 70.7907 25.1546 70.7114 25.2852 70.6354C25.4159 70.5595 25.5479 70.4677 25.6949 70.3579C25.9889 70.1383 26.3387 69.8458 26.737 69.4951C27.5336 68.7937 28.5172 67.8636 29.5147 66.8922C31.5095 64.9497 33.5342 62.8691 34.197 62.128V62.1275C35.493 60.6808 36.6609 59.4809 37.5775 58.6987C38.0358 58.3077 38.4342 58.0219 38.7226 57.8674C38.8217 57.8143 38.7839 57.8352 38.847 57.8155C38.8723 57.968 38.9126 58.0587 38.9126 58.7279C38.9126 59.6189 38.7263 64.3527 38.5207 69.4764C38.3151 74.6002 38.0909 80.1689 38.0158 82.9479C37.9431 85.6398 37.1194 98.5504 36.6329 110.873C36.3897 117.035 36.2301 123.061 36.2912 127.64C36.3217 129.93 36.4063 131.854 36.5682 133.275C36.6491 133.986 36.7471 134.568 36.8817 135.034C37.0163 135.499 37.1079 135.92 37.6458 136.174V136.174C38.0934 136.385 38.7189 136.538 39.6116 136.723C40.5047 136.907 41.6371 137.101 42.9594 137.298C45.6039 137.694 49.0056 138.106 52.7116 138.481C60.1235 139.231 68.7435 139.83 74.9266 139.83H77.0733C83.2564 139.83 91.8782 139.229 99.2913 138.478C102.998 138.103 106.4 137.69 109.044 137.295C110.366 137.097 111.498 136.904 112.39 136.721C113.282 136.537 113.907 136.384 114.353 136.174C114.892 135.922 114.985 135.5 115.12 135.034C115.255 134.569 115.354 133.986 115.435 133.276C115.598 131.855 115.682 129.93 115.713 127.64C115.775 123.061 115.615 117.034 115.371 110.873C114.884 98.5495 114.058 85.6386 113.985 82.9477C113.909 80.1687 113.685 74.5979 113.479 69.473C113.274 64.3481 113.088 59.6139 113.088 58.7276C113.088 58.06 113.128 57.9672 113.154 57.8148C113.217 57.8345 113.181 57.8137 113.282 57.8676C113.571 58.022 113.969 58.3071 114.426 58.6981C115.342 59.48 116.507 60.6801 117.803 62.1273V62.1292C118.467 62.8659 120.494 64.9489 122.488 66.8915C123.485 67.8628 124.468 68.793 125.264 69.4944C125.662 69.8451 126.012 70.138 126.305 70.3576C126.452 70.4674 126.584 70.5592 126.715 70.6352C126.845 70.7112 126.944 70.7905 127.21 70.8136H127.214L127.217 70.814C127.975 70.8715 129.096 71.0372 130.345 70.2261L130.347 70.2247L130.35 70.2238C131.711 69.3265 133.165 68.0116 134.751 66.4537V66.4532C139.817 61.4653 144.953 54.498 145.595 53.6278V53.626C146.008 53.0621 146.08 52.3512 145.924 51.7112C145.767 51.0711 145.421 50.4582 144.978 49.8282C144.091 48.5681 142.782 47.2344 141.529 45.8694V45.8685C140.267 44.4993 136.098 39.9258 131.251 35.0597C126.405 30.1937 120.904 25.039 116.83 22.4273C111.026 18.7063 102.619 16.4264 98.1976 15.3796C98.2048 15.3561 98.25 15.2221 98.25 15.2221L97.223 14.9209C97.223 14.9209 92.4062 31.3594 75.9577 35.7622H75.9514C59.5028 31.3594 54.6882 14.9209 54.6882 14.9209L54.6912 14.9214ZM97.756 16.6278C102.086 17.6506 110.554 19.9678 116.121 23.5366C119.981 26.0114 125.497 31.1481 130.319 35.9893C135.141 40.8306 139.289 45.3805 140.561 46.7609C141.832 48.145 143.118 49.4726 143.902 50.5865C144.294 51.1435 144.553 51.6462 144.646 52.0244C144.739 52.4026 144.706 52.6125 144.533 52.848C143.89 53.7194 138.772 60.6462 133.828 65.5141C132.266 67.0472 130.852 68.314 129.629 69.1211C128.718 69.7123 128.185 69.5659 127.332 69.5001C127.455 69.5134 127.438 69.5284 127.383 69.496C127.322 69.4611 127.221 69.3937 127.1 69.3027C126.856 69.1205 126.523 68.8437 126.14 68.5063C125.375 67.8315 124.401 66.911 123.413 65.9484C121.438 64.024 119.385 61.9095 118.789 61.2487L118.787 61.2473C117.472 59.7787 116.285 58.5501 115.285 57.6962C114.785 57.2691 114.335 56.9347 113.907 56.7056C113.693 56.5913 113.472 56.5226 113.245 56.4822C112.614 54.2761 107.475 37.6314 92.8289 25.4071C95.5275 21.8413 97.0493 18.4554 97.7551 16.6275L97.756 16.6278ZM54.1663 16.6478C54.8793 18.4894 56.4121 21.8873 59.1234 25.4566C44.5203 37.679 39.3942 54.2857 38.7652 56.4827C38.5367 56.5225 38.3138 56.5902 38.099 56.7053C37.6716 56.9342 37.2212 57.2689 36.7207 57.6959C35.7196 58.5499 34.5299 59.7788 33.2135 61.2484V61.2488C32.6269 61.9047 30.5707 64.0227 28.5939 65.9476C27.6055 66.9101 26.631 67.831 25.8645 68.5058C25.4813 68.8432 25.1484 69.1198 24.9044 69.3021C24.7825 69.3932 24.6817 69.4605 24.6215 69.4955C24.5613 69.5305 24.511 69.5143 24.6757 69.5C23.8201 69.5743 23.2934 69.725 22.3782 69.1232V69.1228C21.1538 68.3158 19.7387 67.0477 18.176 65.5134C13.231 60.6441 8.08909 53.6982 7.47062 52.8493L7.47015 52.8483L7.46968 52.8479C7.29734 52.6124 7.26486 52.4021 7.35759 52.0238C7.45031 51.6455 7.70905 51.1429 8.10123 50.5859C8.88558 49.4717 10.1724 48.144 11.4435 46.7594C12.7096 45.3805 16.8563 40.8298 21.6776 35.9886C26.499 31.1475 32.0182 26.0108 35.883 23.536C41.4321 19.9859 49.8201 17.6754 54.167 16.6472L54.1663 16.6478ZM92.0122 26.4435C106.448 38.5106 111.459 55.0233 111.989 56.8918C111.987 56.8976 111.978 56.9044 111.976 56.91C111.804 57.2936 111.769 57.7229 111.769 58.7275C111.769 59.7827 111.956 64.4001 112.162 69.5252C112.368 74.6501 112.592 80.2275 112.667 82.9832C112.744 85.8258 113.567 98.6246 114.053 110.925C114.297 117.075 114.456 123.089 114.395 127.622C114.364 129.888 114.278 131.788 114.125 133.126C114.049 133.795 113.953 134.326 113.854 134.667C113.755 135.007 113.574 135.083 113.794 134.98V134.981C113.605 135.07 112.981 135.253 112.126 135.43C111.271 135.606 110.157 135.796 108.85 135.991C106.237 136.382 102.851 136.793 99.1602 137.166C91.779 137.914 83.1724 138.512 77.0751 138.512H74.9285C68.8309 138.512 60.2264 137.916 52.8466 137.17C49.1568 136.796 45.7702 136.386 43.157 135.995C41.8503 135.799 40.7367 135.608 39.8812 135.432C39.0258 135.255 38.4009 135.071 38.2108 134.981V134.981C38.4319 135.085 38.2506 135.008 38.152 134.667C38.0534 134.327 37.958 133.795 37.8818 133.126C37.7293 131.788 37.6432 129.889 37.6129 127.622C37.5525 123.09 37.711 117.075 37.9538 110.925C38.4394 98.6237 39.2604 85.8256 39.3372 82.9832C39.4116 80.2275 39.6364 74.653 39.8421 69.529C40.0477 64.405 40.2348 59.7869 40.2348 58.7277C40.2348 57.719 40.2005 57.2914 40.028 56.9062C40.0256 56.9034 40.0224 56.9004 40.0212 56.8976C40.5438 55.0567 45.5385 38.565 59.9441 26.4912C63.3792 30.6788 68.4521 34.8804 75.7254 36.8143C75.7254 36.8143 75.7694 36.8299 75.7924 36.833C75.9022 36.848 76.125 36.833 76.125 36.833L76.1943 36.8143C83.4952 34.8731 88.5792 30.6471 92.0143 26.4439L92.0122 26.4435Z" fill="#1A1A1A"/>
</svg>
