<svg width="152" height="152" viewBox="0 0 152 152" fill="none" xmlns="http://www.w3.org/2000/svg">
<path d="M97.6383 15.7231L111.248 19.93L121.889 26.446L144.407 49.7898L145.892 52.2644L139.293 60.7602L131.704 68.5137L127.828 70.0807L122.714 66.369L112.568 56.3061L105.392 40.5517L94.7515 27.3542L92.0293 25.3747L96.0712 18.8584L97.6383 15.7231Z" fill="#CCCCCC"/>
<path d="M113.206 56.7735L117.405 60.2936C117.405 60.2936 124.694 52.9768 128.039 49.0668C130.629 46.0383 135.304 39.591 135.304 39.591L131.469 36.168C131.469 36.168 125.553 43.7178 122.476 47.3948C119.677 50.7398 113.206 56.7735 113.206 56.7735Z" fill="#808080"/>
<path d="M118.761 62.5023L122.96 66.0223C122.96 66.0223 130.249 58.7056 133.594 54.7951C136.184 51.7666 140.859 45.3192 140.859 45.3192L137.024 41.896C137.024 41.896 131.108 49.4458 128.031 53.123C125.232 56.4678 118.761 62.5023 118.761 62.5023Z" fill="#1A1A1A"/>
<path d="M54.3691 15.6909L40.7593 19.8978L30.1187 26.4138L7.60045 49.7576L6.11572 52.232L12.7146 60.7278L20.303 68.4812L24.1798 70.0485L29.2939 66.3367L39.4395 56.2739L46.6156 40.5195L57.256 27.322L59.9782 25.3425L55.9365 18.8262L54.3691 15.6909Z" fill="#CCCCCC"/>
<path d="M38.1153 57.4418L33.9157 60.9618C33.9157 60.9618 26.6269 53.6451 23.2823 49.7345C20.6922 46.7061 16.0166 40.2586 16.0166 40.2586L19.8521 36.8354C19.8521 36.8354 25.7676 44.3852 28.8449 48.0625C31.6443 51.4073 38.1153 57.4418 38.1153 57.4418Z" fill="#808080"/>
<path d="M32.5636 63.1666L28.3639 66.6869C28.3639 66.6869 21.0751 59.3699 17.7305 55.4596C15.1404 52.4312 10.4648 45.9835 10.4648 45.9835L14.3003 42.5605C14.3003 42.5605 20.2159 50.1103 23.2934 53.7873C26.0927 57.1324 32.5636 63.1666 32.5636 63.1666Z" fill="#1A1A1A"/>
<path d="M59.8904 25.5468L48.23 37.6638L40.8763 52.4927L39.5349 56.6338L38.9917 78.9054L36.7646 114.042L37.2595 133.591L38.0844 135.901L63.3253 138.87L77.925 139.447L102.422 137.798L114.382 135.571L115.454 127.157L114.464 101.341L112.567 56.7992L110.505 50.5304L103.164 36.6732L95.1629 27.8475L92.0285 25.208L88.1931 29.5385L80.1096 34.735L75.7791 36.2195L67.4895 32.549L61.8394 27.4764L59.8904 25.5468Z" fill="#CCCCCC"/>
<path d="M58.2979 137.68V80.7134H72.3388V138.688L64.3793 138.941L58.2979 137.68Z" fill="#1A1A1A"/>
<path d="M93.6103 137.68V80.7134H79.5693V138.688L87.5289 138.941L93.6103 137.68Z" fill="#808080"/>
<path d="M92.0446 25.5195L93.5984 27.2954V53.7911H79.5264V35.4342L88.4933 29.2922L92.0446 25.5195Z" fill="#1A1A1A"/>
<path d="M59.8201 25.5205L58.2666 27.2962V53.7923H72.3386V35.4352L63.3718 29.2932L59.8201 25.5205Z" fill="#808080"/>
<path d="M60.2461 18.2084L76.2272 19.2627L91.6531 17.9863L88.0462 24.4233L80.2237 30.527L75.8936 32.1363L67.8494 27.919L62.6328 22.6476L60.2461 18.2084Z" fill="#B3B3B3"/>
<path d="M50.1899 42.5815L52.4595 48.6426V48.6517L55.38 44.6315H54.0695L52.882 46.2765L51.5009 42.5815H50.1899ZM57.7904 42.5815L55.7143 45.4409L56.1454 46.6017H58.0018L58.3454 47.5081H54.2102L53.3922 48.6431H60.0604V48.6426L59.6386 47.5081L58.8739 45.4581H57.0266L58.2405 43.7781L57.7904 42.5815ZM58.7054 42.5815L60.975 48.6517L62.4354 46.6017H61.5204H61.3359L61.1159 46.0036L60.9706 45.6168H63.13L63.8425 44.6315H60.6005L60.2273 43.6372H63.2095L63.2282 43.6277L62.9011 44.0861H64.212L65.2852 42.5815H58.7054ZM55.5563 42.5906L54.3422 44.262H55.6534L56.8673 42.5906H55.5563ZM66.1741 42.5906L65.3293 43.7606L65.1093 44.0861H65.4516L65.9632 45.4495H64.1073L63.2539 46.6017H65.5936L66.9748 48.6426H68.4525L67.0714 46.6017H67.0809L67.4764 46.0563L67.2477 45.4495L66.1741 42.5906ZM62.9632 46.9627V48.6426H64.212V46.9627H62.9632Z" fill="#1A1A1A"/>
<path d="M60.6288 17.9303C60.6288 17.9303 70.4752 18.7865 75.9629 18.7998C75.9769 18.7998 75.9886 18.7989 76.0026 18.7989C76.0166 18.7989 76.0283 18.7998 76.0423 18.7998C81.5225 18.7865 91.7598 17.781 91.7854 17.7787C86.8534 28.344 76.9708 31.4775 75.9863 31.7647C74.8688 31.4392 62.3239 27.4626 58.506 13.1414L54.2046 14.8127C54.2046 14.8127 59.1046 31.5974 75.8883 36.0662H76.0819C92.8679 31.5974 97.7672 14.8127 97.7672 14.8127L93.4652 13.1414C93.1082 14.4838 92.4643 16.4498 91.8671 17.588C92.4946 16.1899 93.2482 13.4288 92.8866 13C92.8866 13 81.8608 14.7229 76.0423 14.7119C76.0283 14.7119 76.0166 14.7129 76.0026 14.7129C75.9886 14.7129 75.9769 14.7119 75.9629 14.7119C70.1446 14.7229 59.1093 13.0133 59.1093 13.0133C59.1093 13.0133 58.6611 13.8067 59.3668 15.6708C59.7434 16.6656 60.6288 17.9303 60.6288 17.9303Z" fill="#4D4D4D" stroke="#1A1A1A" stroke-width="1.16315"/>
<path d="M54.691 14.7514L53.6617 15.0531C53.6617 15.0531 53.7119 15.2015 53.721 15.2313C49.281 16.2849 40.9533 18.5635 35.1712 22.2676C31.0924 24.8829 25.5888 30.0448 20.7427 34.9178C15.8963 39.7904 11.73 44.3694 10.4714 45.7419C9.21785 47.109 7.9095 48.4444 7.02249 49.7061C6.57898 50.3369 6.23346 50.9505 6.07645 51.5911C5.91967 52.2315 5.99223 52.9433 6.40424 53.5077V53.5086V53.5091C7.05375 54.4024 12.185 61.36 17.2499 66.3538V66.3542C18.8364 67.9141 20.2894 69.2308 21.6512 70.1295C22.8996 70.9516 24.0264 70.7862 24.7893 70.72C25.0553 70.6969 25.1539 70.6173 25.2846 70.5413C25.4152 70.4652 25.5473 70.3733 25.6943 70.2634C25.9882 70.0434 26.3382 69.7506 26.7364 69.3995C27.5329 68.697 28.5167 67.7657 29.5141 66.7931C31.5091 64.8478 33.5336 62.7645 34.1967 62.0224V62.0219C35.4927 60.5731 36.6606 59.3714 37.5772 58.5884C38.0354 58.1967 38.4339 57.9107 38.7223 57.7558C38.8214 57.7026 38.7836 57.7236 38.8466 57.704C38.872 57.8566 38.9122 57.9476 38.9122 58.6176C38.9122 59.5097 38.726 64.2499 38.5205 69.3808C38.3147 74.5115 38.0907 80.0878 38.0156 82.8706C37.9428 85.5661 37.119 98.4944 36.6326 110.834C36.3893 117.004 36.2297 123.038 36.2908 127.624C36.3214 129.916 36.4061 131.843 36.568 133.266C36.6487 133.978 36.7467 134.561 36.8813 135.027C37.0159 135.493 37.1076 135.915 37.6456 136.169V136.169C38.0931 136.38 38.7185 136.534 39.6114 136.718C40.5044 136.903 41.6369 137.097 42.959 137.295C45.6035 137.691 49.0052 138.104 52.7112 138.479C60.1232 139.23 68.7432 139.83 74.9257 139.83H77.0721C83.2569 139.83 91.8773 139.228 99.2916 138.476C102.999 138.1 106.4 137.687 109.044 137.291C110.366 137.093 111.498 136.9 112.389 136.716C113.283 136.532 113.906 136.379 114.354 136.169C114.892 135.916 114.986 135.494 115.121 135.027C115.256 134.561 115.354 133.978 115.436 133.267C115.597 131.844 115.683 129.916 115.714 127.624C115.774 123.038 115.616 117.003 115.371 110.833C114.883 98.4932 114.057 85.5647 113.985 82.8701C113.91 80.0874 113.684 74.509 113.479 69.3771C113.273 64.2452 113.087 59.5046 113.087 58.6171C113.087 57.9485 113.129 57.8557 113.154 57.7031C113.217 57.7227 113.18 57.7019 113.283 57.7558C113.57 57.9105 113.969 58.196 114.426 58.5875C115.343 59.3705 116.507 60.5722 117.804 62.0214V62.0224V62.0233C118.467 62.761 120.494 64.8469 122.489 66.7921C123.485 67.7648 124.467 68.6961 125.263 69.3986C125.662 69.7497 126.012 70.0429 126.306 70.2629C126.453 70.3728 126.583 70.4647 126.714 70.5408C126.844 70.6171 126.945 70.6964 127.211 70.7195H127.213L127.218 70.72C127.974 70.7776 129.096 70.9435 130.344 70.1313L130.346 70.1299L130.349 70.129C131.711 69.2303 133.165 67.9136 134.751 66.3538V66.3533C139.816 61.3586 144.953 54.3818 145.595 53.5105V53.5095V53.5086C146.008 52.944 146.08 52.232 145.924 51.5911C145.768 50.9503 145.422 50.3364 144.979 49.7056C144.09 48.4439 142.784 47.1085 141.528 45.7414V45.7409V45.7405C140.266 44.3694 136.097 39.7897 131.252 34.9173C126.406 30.0446 120.905 24.8829 116.831 22.2676C111.027 18.5416 102.619 16.2583 98.1975 15.2103C98.2045 15.1868 98.2488 15.0526 98.2488 15.0526L97.2223 14.751C97.2223 14.751 92.4069 31.2118 75.9569 35.6207H75.9499C59.5024 31.2118 54.6878 14.751 54.6878 14.751L54.691 14.7514ZM97.756 16.4601C102.086 17.4843 110.553 19.8047 116.119 23.3786C119.98 25.8567 125.498 31.0002 130.318 35.8481C135.14 40.6961 139.288 45.2522 140.56 46.6345C141.831 48.0205 143.119 49.3498 143.903 50.4652C144.295 51.023 144.554 51.5265 144.645 51.9051C144.738 52.2838 144.706 52.494 144.533 52.7299C143.891 53.6026 138.773 60.5386 133.829 65.4134C132.266 66.9485 130.852 68.2171 129.63 69.0253C128.717 69.6174 128.186 69.4706 127.332 69.4049C127.455 69.4182 127.439 69.4331 127.383 69.4007C127.322 69.3657 127.222 69.2982 127.101 69.207C126.856 69.0246 126.524 68.7477 126.139 68.4096C125.374 67.734 124.401 66.8122 123.412 65.8485C121.438 63.9214 119.385 61.804 118.788 61.1424L118.786 61.141C117.472 59.6702 116.285 58.4401 115.284 57.585C114.785 57.1572 114.334 56.8224 113.907 56.593C113.693 56.4785 113.471 56.4097 113.245 56.3693C112.613 54.1602 107.475 37.4929 92.8287 25.252C95.528 21.6813 97.0491 18.2908 97.756 16.4604V16.4601ZM54.1661 16.4802C54.8791 18.3244 56.4118 21.7271 59.1233 25.301C44.52 37.54 39.3939 54.1693 38.765 56.3693C38.5366 56.409 38.3135 56.4769 38.0989 56.5921C37.6715 56.8214 37.221 57.1565 36.7205 57.5841C35.7194 58.4394 34.5296 59.6698 33.2133 61.1414V61.1419C32.6266 61.7986 30.5705 63.9195 28.5937 65.8471C27.6052 66.8108 26.6307 67.733 25.8643 68.4087C25.481 68.7467 25.1481 69.0236 24.9041 69.2061C24.7821 69.2973 24.6813 69.3647 24.6211 69.3997C24.5609 69.435 24.5107 69.4186 24.6754 69.4044C23.8197 69.4788 23.2931 69.6295 22.3779 69.0271V69.0267C21.1535 68.2185 19.7386 66.9487 18.1757 65.4122C13.2306 60.5365 8.08867 53.5809 7.47043 52.7308V52.7299V52.7294C7.29802 52.4935 7.26559 52.2831 7.35821 51.9042C7.45106 51.5253 7.70979 51.0221 8.10197 50.4643C8.88633 49.3487 10.173 48.0191 11.4442 46.6326C12.7104 45.2519 16.8568 40.6949 21.6785 35.8472C26.5001 30.9993 32.0191 25.8557 35.8839 23.3776C41.433 19.8226 49.8211 17.5088 54.168 16.4792L54.1661 16.4802ZM92.0122 26.2892C106.449 38.3729 111.46 54.9079 111.99 56.779C111.987 56.7848 111.978 56.7916 111.976 56.7972C111.805 57.1812 111.77 57.6112 111.77 58.6171C111.77 59.6737 111.957 64.2975 112.162 69.4294C112.368 74.5615 112.594 80.1462 112.669 82.9056C112.746 85.7521 113.567 98.5683 114.054 110.885C114.297 117.044 114.456 123.066 114.395 127.605C114.365 129.875 114.278 131.776 114.127 133.117C114.05 133.787 113.954 134.318 113.854 134.66C113.756 135 113.574 135.076 113.795 134.973V134.974C113.607 135.063 112.981 135.247 112.127 135.423C111.271 135.6 110.158 135.79 108.852 135.985C106.239 136.377 102.851 136.788 99.1605 137.162C91.7789 137.911 83.1724 138.51 77.0763 138.51H74.9299C68.8314 138.51 60.2268 137.913 52.8468 137.166C49.1569 136.792 45.7705 136.381 43.1571 135.989C41.8504 135.793 40.7368 135.602 39.8813 135.426C39.0258 135.249 38.401 135.064 38.2109 134.974V134.974C38.432 135.078 38.2508 135.001 38.1521 134.66C38.0536 134.319 37.9582 133.787 37.8819 133.117C37.7293 131.776 37.6432 129.875 37.6131 127.605C37.5525 123.066 37.7111 117.044 37.954 110.885C38.4395 98.5674 39.2605 85.7518 39.3372 82.9056C39.4117 80.1462 39.6366 74.5638 39.8421 69.4331C40.0479 64.3022 40.235 59.6777 40.235 58.6171C40.235 57.607 40.2007 57.1789 40.0281 56.793C40.0257 56.7902 40.0225 56.7871 40.0213 56.7843C40.5439 54.9411 45.5386 38.4268 59.9445 26.3366C63.3796 30.5299 68.4525 34.7372 75.7254 36.6738C75.7254 36.6738 75.7698 36.6894 75.7931 36.6925C75.9028 36.7076 76.1267 36.6925 76.1267 36.6925L76.1944 36.6738C83.4967 34.7299 88.5803 30.4982 92.0145 26.2892H92.0122Z" fill="#1A1A1A"/>
</svg>
