<svg width="152" height="152" viewBox="0 0 152 152" fill="none" xmlns="http://www.w3.org/2000/svg">
<path d="M60.2559 18.2055L76.237 19.2598L91.6628 17.9834L88.056 24.4204L80.2334 30.5242L75.9033 32.1335L67.8591 27.9161L62.6425 22.6447L60.2559 18.2055Z" fill="#B3B3B3"/>
<path d="M97.6544 15.3452L92.1064 25.4443L100.097 33.5458L108.197 45.5318L112.749 56.7406L117.077 60.0701L135.276 39.7607L125.067 29.8835L116.188 22.5588L106.977 18.2307L97.6544 15.3452Z" fill="#CCCCCC"/>
<path d="M143.311 48.5693L145.665 52.0222L139.583 60.615L131.422 68.6195L128.205 70.4246L125.144 68.502L143.311 48.5693Z" fill="#808080"/>
<path d="M133.746 38.5308L143.528 49.029C143.528 49.029 139.483 54.3951 135.064 59.4192C130.844 64.2175 126.266 68.6898 125.273 68.4507C123.303 67.9771 115.91 59.3473 115.91 59.3473C115.91 59.3473 134.801 40.9169 133.746 38.5308Z" fill="#1A1A1A"/>
<path d="M54.3067 15.4995L59.8569 25.5988L51.8663 33.7003L43.7638 45.6863L39.2144 56.8952L34.8867 60.2246L16.6846 39.9152L26.8962 30.038L35.7732 22.7134L44.9863 18.3852L54.3067 15.4995Z" fill="#CCCCCC"/>
<path d="M8.6499 48.7236L6.2959 52.1767L12.378 60.7696L20.5389 68.7741L23.7561 70.5789L26.817 68.6562L8.6499 48.7236Z" fill="#808080"/>
<path d="M18.1919 38.6846L8.40723 49.1828C8.40723 49.1828 12.455 54.5489 16.8737 59.573C21.0941 64.3713 25.6691 68.8436 26.6653 68.6043C28.6344 68.1307 36.0254 59.5011 36.0254 59.5011C36.0254 59.5011 17.1373 41.0705 18.1919 38.6846Z" fill="#1A1A1A"/>
<path d="M59.9291 25.8116L49.4912 36.6411L44.3119 44.9596L39.2889 56.7307L39.2119 66.3833H112.744L112.508 55.0043L103.64 37.8183L92.2599 25.4194L85.1979 32.0113L76.1738 36.1703L66.5198 31.7759L59.9291 25.8116Z" fill="#CCCCCC"/>
<path d="M37.4859 102.265H114.408L115.406 131.208L114.741 135.537L97.428 138.089L72.3458 139.31L48.7077 137.645L37.7192 135.647L36.7207 126.769L37.4859 102.265Z" fill="#1A1A1A"/>
<path d="M39.189 66.0635H113.073L114.468 103.265H37.5605L39.189 66.0635Z" fill="#808080"/>
<path d="M50.1914 42.5806L52.461 48.6417V48.6508L55.3814 44.6306H54.071L52.8835 46.2756L51.5023 42.5806H50.1914ZM57.7919 42.5806L55.7157 45.4399L56.1469 46.6008H58.0033L58.3469 47.5071H54.2116L53.3937 48.6422H60.0619V48.6417L59.6401 47.5071L58.8753 45.4571H57.0281L58.2419 43.7772L57.7919 42.5806ZM58.7069 42.5806L60.9765 48.6508L62.4369 46.6008H61.3374L61.1174 46.0026L60.972 45.6158H63.1315L63.844 44.6306H60.602L60.2287 43.6363H63.211L63.2297 43.6267L62.9026 44.0851H64.2135L65.2867 42.5806H58.7069ZM55.5578 42.5897L54.3437 44.261H55.6549L56.8687 42.5897H55.5578ZM66.1756 42.5897L65.3308 43.7597L65.1108 44.0851H65.453L65.9647 45.4485H64.1087L63.2553 46.6008H65.5951L66.9763 48.6417H68.454L67.0728 46.6008H67.0824L67.4779 46.0553L67.2492 45.4485L66.1756 42.5897ZM62.9646 46.9617V48.6417H64.2135V46.9617H62.9646Z" fill="#1A1A1A"/>
<path d="M60.6292 17.9303C60.6292 17.9303 70.4757 18.7865 75.9634 18.7998C75.9774 18.7998 75.9891 18.7989 76.0031 18.7989C76.0171 18.7989 76.0287 18.7998 76.0427 18.7998C81.523 18.7865 91.7602 17.781 91.7859 17.7787C86.8539 28.3441 76.9713 31.4775 75.9868 31.7647C74.8692 31.4393 62.3244 27.4627 58.5064 13.1414L54.2051 14.8127C54.2051 14.8127 59.1051 31.5974 75.8888 36.0663H76.0824C92.8684 31.5974 97.7677 14.8127 97.7677 14.8127L93.4657 13.1414C93.1087 14.4838 92.4648 16.4498 91.8675 17.5881C92.4951 16.1899 93.2487 13.4288 92.8871 13C92.8871 13 81.8613 14.7229 76.0427 14.7119C76.0287 14.7119 76.0171 14.7129 76.0031 14.7129C75.9891 14.7129 75.9774 14.7119 75.9634 14.7119C70.1451 14.7229 59.1098 13.0133 59.1098 13.0133C59.1098 13.0133 58.6616 13.8067 59.3673 15.6708C59.7439 16.6656 60.6292 17.9303 60.6292 17.9303Z" fill="#4D4D4D" stroke="#1A1A1A" stroke-width="1.16315"/>
<path d="M54.691 14.751L53.6617 15.0526C53.6617 15.0526 53.7119 15.201 53.721 15.2309C49.281 16.2844 40.9533 18.5631 35.1712 22.2672C31.0924 24.8824 25.5888 30.0444 20.7427 34.9173C15.8963 39.79 11.73 44.369 10.4714 45.7415C9.21785 47.1086 7.9095 48.444 7.02249 49.7057C6.57898 50.3365 6.23347 50.9501 6.07645 51.5908C5.91968 52.2312 5.99222 52.943 6.40423 53.5073V53.5087C7.05374 54.402 12.185 61.3597 17.2499 66.3535V66.3539C18.8364 67.9138 20.2894 69.2305 21.6512 70.1292C22.8996 70.9513 24.0264 70.7859 24.7893 70.7197C25.0553 70.6966 25.1539 70.617 25.2846 70.5409C25.4152 70.4649 25.5473 70.373 25.6943 70.2631C25.9882 70.0431 26.3382 69.7503 26.7364 69.3992C27.5329 68.6967 28.5167 67.7654 29.5141 66.7928C31.5091 64.8475 33.5336 62.7642 34.1967 62.022V62.0216C35.4927 60.5728 36.6606 59.3711 37.5772 58.5881C38.0354 58.1964 38.4339 57.9104 38.7223 57.7555C38.8214 57.7023 38.7836 57.7233 38.8466 57.7037C38.872 57.8562 38.9122 57.9472 38.9122 58.6173C38.9122 59.5094 38.726 64.2496 38.5205 69.3805C38.3147 74.5112 38.0907 80.0875 38.0156 82.8703C37.9428 85.5659 37.119 98.4942 36.6326 110.834C36.3893 117.004 36.2297 123.038 36.2908 127.623C36.3214 129.916 36.406 131.843 36.568 133.266C36.6487 133.978 36.7467 134.561 36.8813 135.027C37.0159 135.493 37.1076 135.915 37.6456 136.168V136.169C38.0931 136.38 38.7185 136.534 39.6114 136.718C40.5044 136.903 41.6369 137.097 42.959 137.295C45.6035 137.691 49.0052 138.104 52.7112 138.479C60.1232 139.23 68.7432 139.83 74.9257 139.83H77.0721C83.2569 139.83 91.8773 139.227 99.2916 138.476C102.999 138.1 106.4 137.687 109.044 137.291C110.366 137.093 111.498 136.9 112.389 136.716C113.283 136.532 113.906 136.379 114.354 136.169C114.892 135.916 114.986 135.494 115.121 135.027C115.256 134.561 115.354 133.978 115.436 133.267C115.597 131.844 115.683 129.916 115.714 127.623C115.774 123.038 115.616 117.003 115.371 110.833C114.883 98.493 114.057 85.5645 113.985 82.8699C113.91 80.0871 113.684 74.5087 113.479 69.3768C113.273 64.2449 113.087 59.5043 113.087 58.6168C113.087 57.9482 113.129 57.8553 113.154 57.7027C113.217 57.7223 113.18 57.7016 113.283 57.7555C113.57 57.9101 113.969 58.1957 114.426 58.5872C115.343 59.3701 116.507 60.5718 117.804 62.0211V62.023C118.467 62.7607 120.494 64.8466 122.489 66.7918C123.485 67.7645 124.467 68.6958 125.263 69.3982C125.662 69.7494 126.012 70.0426 126.306 70.2626C126.453 70.3725 126.583 70.4644 126.714 70.5405C126.845 70.6168 126.945 70.6961 127.211 70.7192H127.213L127.218 70.7197C127.974 70.7773 129.096 70.9432 130.344 70.131L130.346 70.1296L130.349 70.1287C131.711 69.23 133.165 67.9133 134.751 66.3535V66.353C139.816 61.3583 144.953 54.3815 145.595 53.5101V53.5082C146.008 52.9437 146.08 52.2316 145.924 51.5908C145.768 50.9499 145.422 50.3361 144.979 49.7052C144.09 48.4436 142.784 47.1081 141.528 45.741V45.7401C140.266 44.369 136.097 39.7893 131.252 34.9169C126.406 30.0442 120.905 24.8824 116.831 22.2672C111.027 18.5411 102.618 16.2578 98.1974 15.2099C98.2044 15.1863 98.2488 15.0521 98.2488 15.0521L97.2223 14.7505C97.2223 14.7505 92.4069 31.2114 75.9569 35.6203H75.9499C59.5024 31.2114 54.6877 14.7505 54.6877 14.7505L54.691 14.751ZM97.756 16.4596C102.086 17.4838 110.553 19.8042 116.119 23.3781C119.98 25.8562 125.498 30.9998 130.318 35.8477C135.14 40.6957 139.288 45.2518 140.56 46.6341C141.831 48.0201 143.119 49.3495 143.903 50.4649C144.295 51.0227 144.554 51.5261 144.645 51.9048C144.738 52.2834 144.706 52.4936 144.533 52.7295C143.891 53.6023 138.773 60.5382 133.829 65.413C132.266 66.9481 130.852 68.2168 129.63 69.025C128.717 69.6171 128.186 69.4703 127.332 69.4045C127.455 69.4178 127.439 69.4328 127.383 69.4003C127.322 69.3654 127.222 69.2979 127.101 69.2067C126.856 69.0243 126.524 68.7473 126.139 68.4093C125.374 67.7337 124.401 66.8119 123.412 65.8481C121.438 63.9211 119.385 61.8037 118.788 61.142L118.786 61.1406C117.472 59.6699 116.285 58.4397 115.284 57.5847C114.785 57.1568 114.334 56.822 113.907 56.5927C113.693 56.4781 113.471 56.4093 113.245 56.369C112.613 54.1598 107.475 37.4925 92.8287 25.2515C95.528 21.6809 97.0491 18.2903 97.756 16.4599V16.4596ZM54.1661 16.4797C54.8791 18.3239 56.4118 21.7266 59.1233 25.3005C44.52 37.5396 39.3939 54.1689 38.765 56.369C38.5365 56.4086 38.3135 56.4765 38.0989 56.5918C37.6715 56.8211 37.221 57.1561 36.7205 57.5837C35.7194 58.439 34.5296 59.6694 33.2133 61.1411V61.1416C32.6266 61.7983 30.5705 63.9192 28.5937 65.8467C27.6052 66.8105 26.6307 67.7327 25.8643 68.4084C25.481 68.7464 25.1481 69.0233 24.9041 69.2058C24.7821 69.297 24.6813 69.3644 24.6211 69.3994C24.5609 69.4346 24.5107 69.4183 24.6754 69.4041C23.8197 69.4785 23.2931 69.6292 22.3779 69.0268V69.0264C21.1535 68.2182 19.7386 66.9484 18.1757 65.4119C13.2306 60.5361 8.08867 53.5806 7.47042 52.7304V52.729C7.29801 52.4932 7.26559 52.2827 7.35821 51.9038C7.45107 51.525 7.7098 51.0217 8.10197 50.4639C8.88633 49.3483 10.173 48.0187 11.4442 46.6322C12.7104 45.2516 16.8568 40.6945 21.6785 35.8468C26.5001 30.9988 32.0191 25.8553 35.8839 23.3772C41.433 19.8222 49.8211 17.5083 54.168 16.4788L54.1661 16.4797ZM92.0122 26.2888C106.449 38.3725 111.46 54.9076 111.99 56.7786C111.987 56.7845 111.978 56.7912 111.976 56.7968C111.805 57.1808 111.77 57.6108 111.77 58.6168C111.77 59.6734 111.957 64.2972 112.162 69.429C112.368 74.5612 112.594 80.1459 112.669 82.9053C112.746 85.7518 113.567 98.5681 114.054 110.885C114.297 117.044 114.456 123.066 114.395 127.605C114.365 129.875 114.278 131.776 114.127 133.116C114.05 133.787 113.954 134.318 113.854 134.659C113.756 135 113.574 135.076 113.795 134.973V134.974C113.607 135.063 112.981 135.247 112.127 135.423C111.271 135.599 110.158 135.79 108.852 135.985C106.239 136.377 102.851 136.788 99.1605 137.162C91.7789 137.911 83.1724 138.51 77.0762 138.51H74.9299C68.8314 138.51 60.2268 137.913 52.8468 137.166C49.1569 136.792 45.7705 136.381 43.1571 135.989C41.8504 135.793 40.7368 135.602 39.8813 135.425C39.0258 135.249 38.401 135.064 38.2109 134.974V134.974C38.432 135.078 38.2508 135.001 38.1521 134.66C38.0536 134.319 37.9582 133.787 37.8819 133.117C37.7293 131.776 37.6432 129.875 37.6131 127.605C37.5525 123.066 37.7111 117.044 37.954 110.885C38.4395 98.5672 39.2605 85.7516 39.3372 82.9053C39.4117 80.1459 39.6366 74.5635 39.8421 69.4328C40.0479 64.3018 40.235 59.6774 40.235 58.6168C40.235 57.6066 40.2007 57.1785 40.028 56.7926C40.0257 56.7898 40.0224 56.7868 40.0213 56.784C40.5439 54.9407 45.5386 38.4264 59.9445 26.3361C63.3796 30.5294 68.4525 34.7368 75.7254 36.6734C75.7254 36.6734 75.7698 36.689 75.7931 36.692C75.9027 36.7072 76.1267 36.692 76.1267 36.692L76.1944 36.6734C83.4967 34.7295 88.5803 30.4977 92.0145 26.2888H92.0122Z" fill="#1A1A1A"/>
</svg>
