<svg width="44" height="59" viewBox="0 0 44 59" fill="none" xmlns="http://www.w3.org/2000/svg">
<path d="M13.454 44.598L11.996 45.066C11.78 44.328 11.204 43.122 10.664 42.24L12.05 41.844C12.59 42.69 13.202 43.842 13.454 44.598ZM15.812 46.416H8.18002C9.11602 48.702 10.412 50.754 12.104 52.446C13.706 50.826 14.912 48.846 15.812 46.416ZM20.15 46.416H17.324C16.298 49.26 14.912 51.528 13.112 53.382C15.092 55.056 17.522 56.334 20.384 57.036C20.06 57.342 19.682 57.9 19.466 58.278C16.532 57.45 14.084 56.136 12.086 54.336C10.07 56.1 7.58602 57.396 4.59802 58.35C4.43602 58.026 4.04002 57.414 3.77002 57.108C6.74002 56.262 9.15202 55.038 11.114 53.382C9.26002 51.474 7.83802 49.134 6.79402 46.416H4.02202V45.102H20.15V46.416ZM24.758 45.102V47.496H23.444V43.824H30.536C30.284 43.302 29.942 42.708 29.6 42.24L30.878 41.808C31.346 42.42 31.832 43.212 32.084 43.824H38.438V47.496H37.07V45.102H24.758ZM38.618 51.582V52.86H31.634V56.73C31.634 57.522 31.436 57.918 30.806 58.116C30.176 58.332 29.24 58.35 27.746 58.35C27.638 57.972 27.368 57.378 27.134 57.036C28.358 57.072 29.51 57.072 29.816 57.054C30.158 57.036 30.248 56.964 30.248 56.712V52.86H23.228V51.582H30.248V50.466C31.292 49.962 32.48 49.152 33.38 48.36H26.18V47.1H34.73L35.018 47.028L35.936 47.73C34.802 48.882 33.2 50.088 31.634 50.916V51.582H38.618Z" fill="#FEB75D"/>
<path fill-rule="evenodd" clip-rule="evenodd" d="M10.8646 34.356C10.6709 34.7902 10.316 35.1322 9.87496 35.3098C9.43389 35.4874 8.94108 35.4866 8.50054 35.3078C8.06 35.1289 7.70618 34.7858 7.51376 34.351C7.32135 33.9162 7.30538 33.4237 7.46923 32.9773L19.0394 4.49282C19.2786 3.90366 19.6881 3.39924 20.2155 3.04411C20.743 2.68897 21.3644 2.49927 22.0002 2.49927C22.6361 2.49927 23.2575 2.68897 23.7849 3.04411C24.3124 3.39924 24.7219 3.90366 24.9611 4.49282L36.5331 32.9773C36.6278 33.2012 36.6771 33.4416 36.6781 33.6846C36.679 33.9277 36.6317 34.1685 36.5387 34.3931C36.4458 34.6177 36.3091 34.8215 36.1366 34.9928C35.9642 35.1641 35.7594 35.2993 35.5342 35.3907C35.3089 35.4821 35.0678 35.5278 34.8248 35.5252C34.5817 35.5225 34.3416 35.4716 34.1185 35.3753C33.8953 35.279 33.6935 35.1393 33.5248 34.9643C33.3561 34.7893 33.2239 34.5826 33.1359 34.356L29.1301 24.5H14.8704L10.8646 34.356ZM16.3591 20.8333H27.6414L22.0002 6.94766L16.3591 20.8333Z" fill="#FEB75D"/>
</svg>
