<svg width="40" height="57" viewBox="0 0 40 57" fill="none" xmlns="http://www.w3.org/2000/svg">
<path d="M9.934 50.176V51.22H12.058V50.176H9.934ZM9.106 51.922V49.474H12.922V51.922H9.106ZM7.954 48.7V52.696H14.074V48.7H7.954ZM6.91 53.542V47.872H15.172V53.542H6.91ZM8.602 43.444V44.632H13.444V43.444H8.602ZM11.554 46.252H16.468V47.098H5.686V46.252H10.42V45.442H7.486V42.652H14.596V45.442H11.554V46.252ZM4.84 54.496H17.26V41.806H4.84V54.496ZM3.598 40.672H18.538V56.35H17.26V55.648H4.84V56.35H3.598V40.672ZM25.936 48.61H34.756V56.386H33.388V49.942H25.828C25.558 52.282 24.856 54.55 23.164 56.44C22.948 56.134 22.462 55.666 22.156 55.45C24.424 52.84 24.676 49.456 24.676 46.198V40.15H26.008V44.398H32.776V39.97H34.126V45.712H26.008V46.198C26.008 47.008 25.99 47.818 25.936 48.61Z" fill="white"/>
<path d="M33.3335 2C34.2176 2 35.0654 2.35119 35.6905 2.97631C36.3156 3.60143 36.6668 4.44928 36.6668 5.33333V28.6667C36.6668 29.5507 36.3156 30.3986 35.6905 31.0237C35.0654 31.6488 34.2176 32 33.3335 32H6.66683C5.78277 32 4.93493 31.6488 4.30981 31.0237C3.68469 30.3986 3.3335 29.5507 3.3335 28.6667V5.33333C3.3335 4.44928 3.68469 3.60143 4.30981 2.97631C4.93493 2.35119 5.78277 2 6.66683 2H33.3335ZM33.3335 5.33333H6.66683V28.6667H8.21516L23.7285 13.1533C23.922 12.9598 24.1516 12.8063 24.4044 12.7016C24.6572 12.5968 24.9282 12.5429 25.2018 12.5429C25.4755 12.5429 25.7464 12.5968 25.9992 12.7016C26.252 12.8063 26.4817 12.9598 26.6752 13.1533L33.3335 19.81V5.33333ZM25.2018 16.3933L12.9285 28.6667H33.3335V24.525L25.2018 16.3933ZM12.5002 8.66667C13.1632 8.66667 13.7991 8.93006 14.2679 9.3989C14.7368 9.86774 15.0002 10.5036 15.0002 11.1667C15.0002 11.8297 14.7368 12.4656 14.2679 12.9344C13.7991 13.4033 13.1632 13.6667 12.5002 13.6667C11.8371 13.6667 11.2012 13.4033 10.7324 12.9344C10.2636 12.4656 10.0002 11.8297 10.0002 11.1667C10.0002 10.5036 10.2636 9.86774 10.7324 9.3989C11.2012 8.93006 11.8371 8.66667 12.5002 8.66667Z" fill="white"/>
</svg>
