<svg width="49" height="64" viewBox="0 0 49 64" fill="none" xmlns="http://www.w3.org/2000/svg">
<path d="M17.3207 47.79L15.8627 48.258C15.6467 47.52 15.0707 46.314 14.5307 45.432L15.9167 45.036C16.4567 45.882 17.0687 47.034 17.3207 47.79ZM19.6787 49.608H12.0467C12.9827 51.894 14.2787 53.946 15.9707 55.638C17.5727 54.018 18.7787 52.038 19.6787 49.608ZM24.0167 49.608H21.1907C20.1647 52.452 18.7787 54.72 16.9787 56.574C18.9587 58.248 21.3887 59.526 24.2507 60.228C23.9267 60.534 23.5487 61.092 23.3327 61.47C20.3987 60.642 17.9507 59.328 15.9527 57.528C13.9367 59.292 11.4527 60.588 8.46472 61.542C8.30272 61.218 7.90672 60.606 7.63672 60.3C10.6067 59.454 13.0187 58.23 14.9807 56.574C13.1267 54.666 11.7047 52.326 10.6607 49.608H7.88872V48.294H24.0167V49.608ZM28.6247 48.294V50.688H27.3107V47.016H34.4027C34.1507 46.494 33.8087 45.9 33.4667 45.432L34.7447 45C35.2127 45.612 35.6987 46.404 35.9507 47.016H42.3047V50.688H40.9367V48.294H28.6247ZM42.4847 54.774V56.052H35.5007V59.922C35.5007 60.714 35.3027 61.11 34.6727 61.308C34.0427 61.524 33.1067 61.542 31.6127 61.542C31.5047 61.164 31.2347 60.57 31.0007 60.228C32.2247 60.264 33.3767 60.264 33.6827 60.246C34.0247 60.228 34.1147 60.156 34.1147 59.904V56.052H27.0947V54.774H34.1147V53.658C35.1587 53.154 36.3467 52.344 37.2467 51.552H30.0467V50.292H38.5967L38.8847 50.22L39.8027 50.922C38.6687 52.074 37.0667 53.28 35.5007 54.108V54.774H42.4847Z" fill="white"/>
<path fill-rule="evenodd" clip-rule="evenodd" d="M14.1444 35.8567C13.9507 36.2909 13.5958 36.6329 13.1547 36.8105C12.7137 36.9881 12.2209 36.9873 11.7803 36.8085C11.3398 36.6296 10.986 36.2865 10.7935 35.8517C10.6011 35.4169 10.5852 34.9244 10.749 34.478L22.3192 5.99355C22.5584 5.40439 22.9679 4.89997 23.4953 4.54484C24.0228 4.1897 24.6442 4 25.28 4C25.9159 4 26.5373 4.1897 27.0647 4.54484C27.5922 4.89997 28.0017 5.40439 28.2409 5.99355L39.8129 34.478C39.9076 34.7019 39.9569 34.9423 39.9579 35.1853C39.9588 35.4284 39.9115 35.6692 39.8185 35.8938C39.7256 36.1184 39.5889 36.3222 39.4164 36.4935C39.244 36.6648 39.0392 36.8 38.814 36.8914C38.5887 36.9828 38.3476 37.0285 38.1046 37.0259C37.8615 37.0232 37.6214 36.9723 37.3983 36.876C37.1751 36.7797 36.9733 36.64 36.8046 36.465C36.6359 36.29 36.5037 36.0833 36.4157 35.8567L32.4099 26.0007H18.1502L14.1444 35.8567ZM19.6389 22.334H30.9212L25.28 8.44839L19.6389 22.334Z" fill="white"/>
</svg>
