<svg width="49" height="64" viewBox="0 0 49 64" fill="none" xmlns="http://www.w3.org/2000/svg">
<path d="M17.4115 47.79L15.9535 48.258C15.7375 47.52 15.1615 46.314 14.6215 45.432L16.0075 45.036C16.5475 45.882 17.1595 47.034 17.4115 47.79ZM19.7695 49.608H12.1375C13.0735 51.894 14.3695 53.946 16.0615 55.638C17.6635 54.018 18.8695 52.038 19.7695 49.608ZM24.1075 49.608H21.2815C20.2555 52.452 18.8695 54.72 17.0695 56.574C19.0495 58.248 21.4795 59.526 24.3415 60.228C24.0175 60.534 23.6395 61.092 23.4235 61.47C20.4895 60.642 18.0415 59.328 16.0435 57.528C14.0275 59.292 11.5435 60.588 8.55554 61.542C8.39354 61.218 7.99754 60.606 7.72754 60.3C10.6975 59.454 13.1095 58.23 15.0715 56.574C13.2175 54.666 11.7955 52.326 10.7515 49.608H7.97954V48.294H24.1075V49.608ZM28.7155 48.294V50.688H27.4015V47.016H34.4935C34.2415 46.494 33.8995 45.9 33.5575 45.432L34.8355 45C35.3035 45.612 35.7895 46.404 36.0415 47.016H42.3955V50.688H41.0275V48.294H28.7155ZM42.5755 54.774V56.052H35.5915V59.922C35.5915 60.714 35.3935 61.11 34.7635 61.308C34.1335 61.524 33.1975 61.542 31.7035 61.542C31.5955 61.164 31.3255 60.57 31.0915 60.228C32.3155 60.264 33.4675 60.264 33.7735 60.246C34.1155 60.228 34.2055 60.156 34.2055 59.904V56.052H27.1855V54.774H34.2055V53.658C35.2495 53.154 36.4375 52.344 37.3375 51.552H30.1375V50.292H38.6875L38.9755 50.22L39.8935 50.922C38.7595 52.074 37.1575 53.28 35.5915 54.108V54.774H42.5755Z" fill="#FEB75D"/>
<path fill-rule="evenodd" clip-rule="evenodd" d="M14.2352 35.8567C14.0415 36.2909 13.6866 36.6329 13.2456 36.8105C12.8045 36.9881 12.3117 36.9873 11.8711 36.8085C11.4306 36.6296 11.0768 36.2865 10.8844 35.8517C10.692 35.4169 10.676 34.9244 10.8398 34.478L22.41 5.99355C22.6492 5.40439 23.0587 4.89997 23.5861 4.54484C24.1136 4.1897 24.735 4 25.3708 4C26.0067 4 26.6281 4.1897 27.1555 4.54484C27.683 4.89997 28.0925 5.40439 28.3317 5.99355L39.9037 34.478C39.9984 34.7019 40.0477 34.9423 40.0487 35.1853C40.0496 35.4284 40.0023 35.6692 39.9093 35.8938C39.8164 36.1184 39.6797 36.3222 39.5072 36.4935C39.3348 36.6648 39.13 36.8 38.9048 36.8914C38.6795 36.9828 38.4384 37.0285 38.1954 37.0259C37.9523 37.0232 37.7122 36.9723 37.4891 36.876C37.2659 36.7797 37.0641 36.64 36.8954 36.465C36.7267 36.29 36.5945 36.0833 36.5065 35.8567L32.5007 26.0007H18.241L14.2352 35.8567ZM19.7297 22.334H31.012L25.3708 8.44839L19.7297 22.334Z" fill="#FEB75D"/>
</svg>
