<svg width="49" height="64" viewBox="0 0 49 64" fill="none" xmlns="http://www.w3.org/2000/svg">
<path d="M11.1506 49.482V46.782H8.05462V49.482H11.1506ZM12.2126 45.792V50.508H7.02862V45.792H12.2126ZM8.52262 54.918H11.9246C11.9246 54.918 11.9066 55.278 11.8886 55.458C11.6366 58.914 11.3846 60.282 10.9166 60.768C10.6466 61.092 10.3406 61.2 9.87262 61.236C9.51262 61.272 8.81062 61.272 8.10862 61.218C8.09062 60.876 7.96462 60.408 7.78462 60.102C8.46862 60.156 9.13462 60.174 9.38662 60.174C9.65662 60.174 9.81862 60.138 9.96262 59.994C10.2506 59.706 10.4666 58.626 10.6826 55.998H8.25262V56.016H7.04662C7.29862 55.224 7.53262 54.108 7.73062 53.1H6.18262V51.912H12.6446V53.1H8.88262C8.77462 53.694 8.63062 54.342 8.52262 54.918ZM14.6066 49.662V53.118C14.6066 55.584 14.3546 59.094 12.7886 61.47C12.5726 61.254 12.0866 60.876 11.7806 60.732C13.2566 58.518 13.4186 55.422 13.4186 53.1V48.546H16.9466V45H18.2066V46.26H21.8246V47.358H18.2066V48.546H21.6986L21.8966 48.492L22.7066 48.708C22.4906 49.77 22.1846 51.012 21.9506 51.822L20.9606 51.57C21.1046 51.066 21.2486 50.364 21.3386 49.662H14.6066ZM16.0286 55.368H17.1806C17.0366 58.23 16.6046 60.246 14.6606 61.434C14.4986 61.146 14.1566 60.75 13.8866 60.552C15.5786 59.562 15.9206 57.834 16.0286 55.368ZM18.4586 53.424H20.3666C20.6906 53.424 21.2306 53.388 21.4646 53.334C21.5006 53.658 21.5366 54.018 21.5726 54.324C21.3206 54.414 20.8706 54.414 20.4206 54.414H18.2606C17.1086 54.414 16.8566 53.928 16.8566 52.776V52.218L15.0926 52.398L14.9666 51.444L16.8566 51.246V49.752H18.0086V51.12L20.3306 50.886L20.4566 51.84L18.0086 52.092V52.776C18.0086 53.262 18.0806 53.424 18.4586 53.424ZM20.3486 59.85H20.9606C21.1586 59.85 21.3386 59.832 21.4286 59.778C21.5366 59.706 21.6446 59.58 21.6806 59.4C21.7166 59.112 21.7526 58.428 21.7346 57.6C21.9686 57.816 22.3826 58.05 22.7246 58.14C22.7066 58.986 22.6346 59.886 22.5446 60.192C22.4366 60.516 22.2566 60.732 22.0046 60.876C21.7706 60.984 21.3746 61.056 21.0686 61.056H20.0966C19.7006 61.056 19.2866 60.984 19.0346 60.768C18.7466 60.534 18.6926 60.282 18.6926 59.454V55.368H19.8266V59.49C19.8266 59.598 19.8626 59.724 19.9706 59.778C20.0606 59.832 20.1866 59.85 20.3486 59.85ZM29.9426 57.978V52.596H27.6386V57.978H29.9426ZM31.1126 59.148H27.6386V60.624H26.4866V54.684C26.2166 55.242 25.9106 55.764 25.5866 56.232C25.4606 55.962 25.0466 55.332 24.7946 55.062C26.1086 53.136 26.8646 50.202 27.3146 47.088H25.2266V45.864H31.7966V47.088H28.5926C28.3586 48.6 28.0706 50.076 27.6926 51.444H31.1126V59.148ZM31.9406 60.624L31.0046 60.084C31.7786 59.202 32.1386 57.654 32.3006 56.178L33.3086 56.43C33.1286 57.978 32.8046 59.652 31.9406 60.624ZM34.0286 56.736L34.9466 56.592C35.1626 57.654 35.3066 59.004 35.2886 59.886L34.2986 60.048C34.3346 59.148 34.2266 57.78 34.0286 56.736ZM35.9366 56.592L36.8006 56.358C37.1786 57.204 37.5206 58.356 37.6466 59.094L36.7286 59.364C36.6206 58.608 36.2966 57.474 35.9366 56.592ZM33.7766 52.416V54.126H36.2606V52.416H33.7766ZM36.2606 46.944H33.7766V48.582H36.2606V46.944ZM36.2606 51.336V49.662H33.7766V51.336H36.2606ZM37.4486 54.126H41.2286C41.2286 54.126 41.2286 54.504 41.2106 54.684C41.0126 58.86 40.7966 60.408 40.3466 60.93C40.0586 61.272 39.7706 61.398 39.2846 61.434C38.8706 61.47 38.1146 61.47 37.3046 61.416C37.2866 61.074 37.1606 60.57 36.9806 60.264C37.7366 60.336 38.4566 60.354 38.7266 60.354C39.0146 60.354 39.1406 60.318 39.3026 60.156C39.5906 59.814 39.8066 58.554 39.9686 55.296H32.5526V45.774H40.8686V46.944H37.4486V48.582H40.4546V49.662H37.4486V51.336H40.4546V52.416H37.4486V54.126ZM39.6986 57.978L38.9246 58.356C38.7086 57.762 38.1866 56.862 37.7186 56.196L38.4566 55.89C38.9606 56.538 39.4646 57.42 39.6986 57.978Z" fill="#FEB75D"/>
<path d="M14.9092 34.2812H10.3779C10.2477 34.2812 10.1826 34.2161 10.1826 34.0859L10.2217 6.60547C10.2217 6.5013 10.2738 6.44922 10.3779 6.44922H14.8701C14.9743 6.44922 15.0264 6.5013 15.0264 6.60547L15.0654 34.0859C15.0654 34.2161 15.0133 34.2812 14.9092 34.2812ZM28.7842 34.6718C27.0915 34.6718 25.5876 34.3073 24.2724 33.5781C22.9704 32.8489 21.9482 31.8789 21.206 30.6679C20.4769 29.444 20.1123 28.1028 20.1123 26.6445L20.1514 13.9688C20.1514 12.4844 20.5224 11.1497 21.2646 9.96484C21.9938 8.76693 23.0094 7.8099 24.3115 7.09375C25.6136 6.36458 27.1045 6 28.7842 6C30.5029 6 32.0003 6.35807 33.2764 7.07422C34.5524 7.79036 35.555 8.75391 36.2842 9.96484C37.0264 11.1628 37.3974 12.4974 37.3974 13.9688L37.4365 26.6445C37.4365 28.0898 37.0719 29.4244 36.3428 30.6484C35.6006 31.8724 34.5784 32.8489 33.2764 33.5781C31.9873 34.3073 30.4899 34.6718 28.7842 34.6718ZM32.5928 26.6445L32.5537 13.9688C32.5537 13.0313 32.2021 12.2695 31.499 11.6836C30.8089 11.0977 29.904 10.8047 28.7842 10.8047C27.6383 10.8047 26.7204 11.0977 26.0303 11.6836C25.3402 12.2695 24.9951 13.0313 24.9951 13.9688V26.6445C24.9951 27.6341 25.3402 28.4153 26.0303 28.9883C26.7204 29.5612 27.6383 29.8476 28.7842 29.8476C29.904 29.8476 30.8154 29.5612 31.5185 28.9883C32.2347 28.4153 32.5928 27.6341 32.5928 26.6445Z" fill="#FEB75D"/>
</svg>
