<svg width="49" height="64" viewBox="0 0 49 64" fill="none" xmlns="http://www.w3.org/2000/svg">
<path d="M14.1008 51.822L14.1188 52.272C15.2348 50.508 15.8828 47.772 16.2248 45L17.5388 45.162C17.3948 46.206 17.1968 47.25 16.9628 48.222H21.3908L21.6248 48.168L22.5248 48.456C22.1828 50.058 21.6788 51.93 21.1928 53.118L20.0948 52.776C20.4368 51.93 20.7608 50.634 21.0128 49.464H16.6568C16.2428 50.886 15.7568 52.164 15.1448 53.154C14.9108 52.956 14.4248 52.614 14.1008 52.398V52.956H7.02682V51.822H14.1008ZM9.92482 49.374V47.826H6.43282V46.692H9.92482V45.054H11.1848V46.692H14.6768V47.826H11.1848V49.374H14.3168V50.49H6.84682V49.374H9.92482ZM7.72882 56.106L8.84482 56.394C8.39482 57.69 7.72882 59.22 7.15282 60.21C6.88282 60.066 6.37882 59.814 6.09082 59.706C6.72082 58.734 7.31482 57.348 7.72882 56.106ZM14.8388 55.494H11.2028V61.416H9.94282V55.494H6.21682V54.342H14.8388V55.494ZM12.2468 56.502L13.2368 56.106C13.7588 56.988 14.3528 58.194 14.6228 58.896L13.5608 59.4C13.2908 58.662 12.7328 57.438 12.2468 56.502ZM18.8708 50.796V51.642C18.8708 52.164 18.8528 52.74 18.8168 53.334C19.4468 56.448 20.7248 59.166 22.8308 60.318C22.5428 60.57 22.1288 61.074 21.9488 61.416C20.2388 60.372 19.1228 58.464 18.3668 56.088C17.8988 57.924 16.9808 59.814 15.1808 61.452C14.9468 61.164 14.4968 60.768 14.1548 60.57C17.3588 57.708 17.5928 54.072 17.5928 51.624V50.796H18.8708ZM40.5788 47.268L39.6428 48.114C39.1208 47.484 38.0048 46.512 37.0868 45.864L37.9868 45.126C38.9048 45.738 40.0388 46.656 40.5788 47.268ZM30.5528 53.604V58.536C31.8128 58.266 33.1088 58.014 34.4048 57.726L34.5128 58.914C31.4708 59.634 28.1768 60.39 25.8908 60.894L25.4768 59.58C26.4848 59.382 27.7988 59.112 29.2388 58.824V53.604H26.0348V52.308H33.9188V53.604H30.5528ZM41.3168 49.644H36.0608C36.5108 55.692 37.9148 60.066 39.6968 60.066C40.1828 60.066 40.3988 59.076 40.5068 56.682C40.8128 56.988 41.3168 57.276 41.6948 57.42C41.4608 60.534 40.9568 61.452 39.5888 61.452C36.6728 61.452 35.1788 56.286 34.6928 49.644H25.4048V48.33H34.6028C34.5488 47.268 34.5308 46.17 34.5128 45.072H35.9168C35.9168 46.188 35.9348 47.268 35.9888 48.33H41.3168V49.644Z" fill="#FEB75D"/>
<path fill-rule="evenodd" clip-rule="evenodd" d="M30.0908 3C33.1956 2.99989 36.1795 4.20313 38.4157 6.35693C40.652 8.51073 41.9664 11.4474 42.0828 14.55L42.0908 15V19C42.0907 19.4899 41.9109 19.9627 41.5854 20.3287C41.2598 20.6948 40.8113 20.9287 40.3248 20.986L40.0908 21H36.0908V35C36.0911 36.0092 35.71 36.9811 35.0238 37.7211C34.3376 38.4611 33.3971 38.9143 32.3908 38.99L32.0908 39H16.0908C15.0816 39.0003 14.1097 38.6192 13.3697 37.933C12.6297 37.2468 12.1765 36.3063 12.1008 35.3L12.0908 35V21H8.09082C7.60095 20.9999 7.12815 20.8201 6.76208 20.4946C6.39601 20.1691 6.16213 19.7205 6.10482 19.234L6.09082 19V15C6.09071 11.8952 7.29395 8.91128 9.44775 6.67506C11.6015 4.43883 14.5382 3.12443 17.6408 3.008L18.0908 3H30.0908ZM32.0868 7.252C32.0211 9.32889 31.1499 11.2987 29.6575 12.7446C28.1651 14.1905 26.1687 14.9991 24.0908 14.9991C22.0129 14.9991 20.0165 14.1905 18.5241 12.7446C17.0317 11.2987 16.1605 9.32889 16.0948 7.252C14.445 7.67759 12.974 8.61857 11.8959 9.93799C10.8179 11.2574 10.189 12.8864 10.1008 14.588L10.0908 15V17H14.0908C14.5807 17.0001 15.0535 17.1799 15.4195 17.5054C15.7856 17.8309 16.0195 18.2795 16.0768 18.766L16.0908 19V35H32.0908V19C32.0909 18.5101 32.2707 18.0373 32.5962 17.6713C32.9217 17.3052 33.3703 17.0713 33.8568 17.014L34.0908 17H38.0908V15C38.0903 13.2257 37.5003 11.5019 36.4136 10.0994C35.3268 8.69696 33.8048 7.69535 32.0868 7.252ZM28.0908 7H20.0908C20.0908 8.06087 20.5122 9.07828 21.2624 9.82843C22.0125 10.5786 23.0299 11 24.0908 11C25.1517 11 26.1691 10.5786 26.9192 9.82843C27.6694 9.07828 28.0908 8.06087 28.0908 7Z" fill="#FEB75D"/>
</svg>
