<svg width="49" height="64" viewBox="0 0 49 64" fill="none" xmlns="http://www.w3.org/2000/svg">
<path d="M16.4124 46.98V47.736C16.4124 49.356 15.9444 51.264 13.8024 52.524C13.6224 52.254 13.1724 51.75 12.9384 51.552C14.8644 50.454 15.1704 48.978 15.1704 47.7V45.72H20.6424V49.896C20.6424 50.4 20.6784 50.562 20.9304 50.562H21.9924C22.2264 50.562 22.5684 50.526 22.7844 50.472C22.8024 50.814 22.8564 51.318 22.8744 51.624C22.6944 51.696 22.3344 51.714 21.9924 51.714H20.8224C19.6524 51.714 19.4004 51.21 19.4004 49.86V46.98H16.4124ZM11.1924 47.322L10.1124 47.934C9.84236 47.286 9.26636 46.278 8.76236 45.522L9.80636 45C10.3284 45.738 10.9044 46.674 11.1924 47.322ZM13.6224 48.132V49.23H6.81836V48.132H13.6224ZM7.59236 53.892V52.83H12.9024V53.892H7.59236ZM7.59236 50.49H12.8844V51.552H7.59236V50.49ZM20.4624 54.234H15.3864C15.9804 55.566 16.8444 56.718 17.9244 57.672C18.9864 56.736 19.8684 55.602 20.4624 54.234ZM11.6964 59.31V56.34H8.74436V59.31H11.6964ZM21.3264 52.92L22.1724 53.298C21.5064 55.476 20.3904 57.168 18.9684 58.482C20.1924 59.31 21.6144 59.922 23.2164 60.282C22.9464 60.57 22.5684 61.11 22.3884 61.488C20.6964 61.038 19.2024 60.318 17.9244 59.346C16.5924 60.336 15.0804 61.056 13.4604 61.542C13.3344 61.2 13.0824 60.732 12.8484 60.426H8.74436V61.272H7.57436V55.224H12.8844V60.3C14.3064 59.922 15.6924 59.31 16.8984 58.482C15.7824 57.384 14.8644 56.034 14.2164 54.504L14.9904 54.234H13.4244V52.974H21.0924L21.3264 52.92ZM30.5604 47.322L29.4804 47.934C29.2284 47.286 28.6524 46.278 28.1664 45.54L29.1744 45.018C29.7144 45.756 30.2904 46.692 30.5604 47.322ZM33.4224 48.132V49.23H26.0244V48.132H33.4224ZM32.6124 52.83V53.892H26.8164V52.83H32.6124ZM31.4784 56.34H28.1304V59.31H31.4784V56.34ZM32.6664 55.224V60.426H28.1304V61.272H26.9604V55.224H32.6664ZM26.8164 51.552V50.49H32.6664V51.552H26.8164ZM41.9544 51.282V52.596H38.2644V61.524H36.9144V52.596H33.3864V51.282H36.9144V45.414H38.2644V51.282H41.9544Z" fill="white"/>
<path d="M21.9367 4.11407C22.5282 2.78406 24.35 2.71931 25.064 3.91457L25.1672 4.11407L26.9907 8.21782C28.583 11.7999 31.231 14.8106 34.5805 16.8471L35.144 17.1778L38.3815 18.9978C38.6389 19.1419 38.8561 19.3481 39.0134 19.5977C39.1706 19.8472 39.263 20.1321 39.2819 20.4265C39.3009 20.7208 39.2459 21.0153 39.1219 21.2829C38.998 21.5506 38.809 21.7829 38.5722 21.9588L38.3832 22.0813L35.144 23.9013C31.7269 25.8235 28.9782 28.7431 27.2655 32.2698L26.9907 32.8614L25.1672 36.9651C24.5757 38.2951 22.754 38.3599 22.04 37.1646L21.9367 36.9651L20.1132 32.8614C18.521 29.2792 15.873 26.2686 12.5234 24.2321L11.9599 23.9013L8.72245 22.0813C8.46508 21.9373 8.24786 21.7311 8.09058 21.4815C7.93331 21.232 7.84098 20.9471 7.82202 20.6527C7.80306 20.3584 7.85806 20.0639 7.98202 19.7963C8.10597 19.5286 8.29494 19.2963 8.5317 19.1203L8.7207 18.9978L11.9599 17.1778C15.3771 15.2557 18.1258 12.336 19.8385 8.80932L20.1132 8.21782L21.9367 4.11407ZM23.552 9.09807C21.375 13.9981 17.8015 17.9076 13.1219 20.5396C17.8015 23.1716 21.375 27.0811 23.552 31.9811C25.736 27.0688 29.3095 23.1681 33.982 20.5396C29.3025 17.9076 25.729 13.9981 23.552 9.09807ZM37.937 3.25306C38.8064 5.22598 40.2884 6.86627 42.1632 7.93082C42.4432 8.08832 42.4432 8.49082 42.1632 8.64832C40.2878 9.71377 38.8058 11.3554 37.937 13.3296C37.9038 13.4039 37.8497 13.467 37.7814 13.5113C37.7131 13.5556 37.6334 13.5792 37.552 13.5792C37.4706 13.5792 37.3909 13.5556 37.3226 13.5113C37.2543 13.467 37.2002 13.4039 37.167 13.3296C36.2979 11.356 34.8159 9.71507 32.9407 8.65007C32.8774 8.61397 32.8248 8.56177 32.7882 8.49876C32.7516 8.43575 32.7324 8.36418 32.7324 8.29132C32.7324 8.21845 32.7516 8.14689 32.7882 8.08388C32.8248 8.02087 32.8774 7.96867 32.9407 7.93257C34.8164 6.86666 36.2985 5.22443 37.167 3.24956C37.2002 3.17524 37.2543 3.11213 37.3226 3.06785C37.3909 3.02356 37.4706 3 37.552 3C37.6334 3 37.7131 3.02356 37.7814 3.06785C37.8497 3.11213 37.9038 3.17524 37.937 3.24956V3.25306Z" fill="white"/>
</svg>
