<svg width="56" height="75" viewBox="0 0 56 75" fill="none" xmlns="http://www.w3.org/2000/svg">
<path opacity="0.84" d="M14.77 56.256L13.978 57.282C13.312 56.724 12.088 55.788 11.152 55.122L11.944 54.222C12.862 54.816 14.122 55.698 14.77 56.256ZM13.87 60.738L13.186 61.872C12.52 61.368 11.224 60.594 10.252 60.054L10.918 59.028C11.854 59.532 13.204 60.27 13.87 60.738ZM11.746 70.08L10.666 69.324C11.53 67.92 12.754 65.562 13.636 63.51L14.608 64.284C13.78 66.156 12.682 68.424 11.746 70.08ZM17.56 66.498H24.004V65.094H17.614C17.614 65.526 17.596 66.012 17.56 66.498ZM24.004 62.754H17.614V64.158H24.004V62.754ZM25.354 61.746V68.91C25.354 69.612 25.192 69.936 24.688 70.134C24.202 70.332 23.41 70.332 22.168 70.332C22.096 69.99 21.916 69.504 21.754 69.18C22.6 69.198 23.446 69.198 23.68 69.198C23.932 69.18 24.004 69.108 24.004 68.892V67.47H17.416C17.254 68.568 16.894 69.648 16.228 70.512C16.03 70.224 15.508 69.72 15.22 69.558C16.21 68.208 16.3 66.426 16.3 65.022V61.746H25.354ZM21.448 59.64H26.776V60.666H14.572V59.64H20.134V58.308H15.598V57.318H20.134V56.112H15.148V55.104H20.134V53.934H21.448V55.104H26.434V56.112H21.448V57.318H25.876V58.308H21.448V59.64ZM40.348 53.826L41.464 54.258C41.338 54.492 41.194 54.708 41.05 54.942C42.562 56.85 44.272 58.02 45.928 58.956C45.622 59.19 45.208 59.64 45.046 60C43.444 58.974 41.914 57.786 40.384 55.896C39.07 57.606 37.324 59.136 35.56 60.162C35.344 59.874 35.002 59.46 34.66 59.208C36.91 58.038 39.142 55.986 40.348 53.826ZM34.12 54.6L35.002 55.122C34.426 56.598 33.724 58.362 33.076 59.784C34.462 61.26 34.804 62.538 34.804 63.654C34.804 64.644 34.588 65.4 34.084 65.76C33.814 65.94 33.472 66.066 33.112 66.12C32.734 66.156 32.248 66.156 31.816 66.138C31.798 65.796 31.69 65.292 31.51 64.95C31.924 64.986 32.32 64.986 32.608 64.968C32.86 64.968 33.058 64.914 33.202 64.788C33.508 64.59 33.616 64.122 33.616 63.528C33.598 62.556 33.256 61.35 31.888 59.928C32.428 58.65 32.986 57.084 33.4 55.878H31.096V70.332H29.908V54.672H33.922L34.12 54.6ZM36.982 65.022L38.17 65.364C37.468 66.786 36.46 68.298 35.524 69.288C35.308 69.09 34.822 68.73 34.516 68.568C35.452 67.65 36.388 66.3 36.982 65.022ZM45.55 64.014H41.14V68.82C41.14 69.576 40.96 69.918 40.456 70.134C39.934 70.35 39.106 70.368 37.828 70.368C37.756 70.008 37.558 69.486 37.36 69.126C38.368 69.162 39.232 69.162 39.484 69.162C39.754 69.144 39.844 69.054 39.844 68.82V64.014H35.146V62.79H39.844V60.612H36.82V59.424H43.876V60.612H41.14V62.79H45.55V64.014ZM42.166 65.382L43.174 64.842C44.182 65.994 45.28 67.524 45.802 68.514L44.722 69.126C44.218 68.1 43.12 66.516 42.166 65.382Z" fill="white"/>
<g clip-path="url(#clip0_694_636)">
<path fill-rule="evenodd" clip-rule="evenodd" d="M35.07 5.616L46.384 16.928C46.7556 17.2995 47.0504 17.7405 47.2516 18.2259C47.4527 18.7113 47.5562 19.2316 47.5562 19.757C47.5562 20.2824 47.4527 20.8027 47.2516 21.2881C47.0504 21.7735 46.7556 22.2145 46.384 22.586L39.34 29.632L39.314 29.656L39.288 29.682L30.97 38H44C44.5305 38 45.0392 38.2107 45.4143 38.5858C45.7893 38.9609 46 39.4696 46 40C46 40.5304 45.7893 41.0391 45.4143 41.4142C45.0392 41.7893 44.5305 42 44 42H21.786C20.9907 41.9993 20.2281 41.6828 19.666 41.12L9.61404 31.072C9.24243 30.7005 8.94765 30.2595 8.74653 29.7741C8.54541 29.2887 8.44189 28.7684 8.44189 28.243C8.44189 27.7176 8.54541 27.1973 8.74653 26.7119C8.94765 26.2265 9.24243 25.7855 9.61404 25.414L29.414 5.614C30.1642 4.86412 31.1814 4.44286 32.242 4.44286C33.3027 4.44286 34.3199 4.86412 35.07 5.614V5.616ZM35.07 28.242L25.314 38H22.2L12.444 28.242L23.758 16.928L35.07 28.242ZM37.9 25.414L26.586 14.1L32.242 8.444L43.556 19.758L37.9 25.414Z" fill="white"/>
</g>
<defs>
<clipPath id="clip0_694_636">
<rect width="48" height="48" fill="white" transform="translate(4)"/>
</clipPath>
</defs>
</svg>
