<svg width="49" height="64" viewBox="0 0 49 64" fill="none" xmlns="http://www.w3.org/2000/svg">
<path d="M21.4859 51.606V49.896H16.7339V51.606H21.4859ZM21.4859 54.36V52.614H16.7339V54.36H21.4859ZM21.4859 57.114V55.368H16.7339V57.114H21.4859ZM15.5459 48.834H18.0659C18.1919 48.294 18.3179 47.646 18.3899 47.088H15.0059V45.936H23.2679V47.088H19.7579C19.5959 47.682 19.4519 48.294 19.2899 48.834H22.7099V58.176H15.5459V48.834ZM8.7599 52.596V55.188C8.7599 57.024 8.5619 59.634 7.4999 61.38C7.3019 61.128 6.8159 60.696 6.5459 60.552C7.4639 58.968 7.5539 56.808 7.5539 55.188V51.498H8.1479C7.9499 51.264 7.5719 50.922 7.3199 50.76C8.2379 50.454 9.1919 50.076 10.0559 49.626C9.2999 49.266 8.5619 48.96 7.8779 48.69L8.7419 48.024C9.4799 48.312 10.3079 48.654 11.0999 49.032C11.6939 48.672 12.2159 48.294 12.6659 47.88H7.1039V46.8H10.7039C10.5419 46.314 10.2899 45.738 10.0559 45.288L11.2259 45C11.5679 45.54 11.8559 46.242 12.0359 46.8H14.8259V47.88H13.0979L13.8359 48.168C13.3499 48.636 12.7739 49.104 12.1439 49.518C12.9359 49.914 13.6739 50.292 14.2319 50.616L13.3679 51.372C12.7919 51.03 11.9999 50.58 11.1359 50.148C10.2179 50.688 9.2279 51.138 8.3279 51.498H15.0059V52.596H8.7599ZM13.2779 55.008L14.3039 55.422C13.2599 56.556 11.5679 57.51 10.0199 58.122C9.8219 57.87 9.5159 57.528 9.2279 57.348C10.6859 56.808 12.3599 55.944 13.2779 55.008ZM12.7919 52.74L13.8179 53.154C12.8459 54.09 11.2619 54.882 9.8939 55.368C9.6959 55.134 9.3719 54.81 9.1019 54.612C10.4159 54.18 11.9459 53.496 12.7919 52.74ZM13.7819 57.492L14.8979 57.888C13.7819 59.562 11.7299 60.858 9.3899 61.596C9.2099 61.308 8.9219 60.93 8.6339 60.696C10.8119 60.084 12.7919 58.95 13.7819 57.492ZM17.1839 58.464L18.3359 59.148C17.4359 60.066 15.9419 61.038 14.6459 61.596C14.4479 61.326 14.0339 60.948 13.7459 60.714C15.0419 60.192 16.4819 59.238 17.1839 58.464ZM19.7039 59.22L20.6759 58.536C21.6479 59.202 22.9079 60.156 23.5199 60.84L22.4759 61.56C21.8819 60.912 20.6579 59.904 19.7039 59.22ZM35.6879 47.844H30.9899C30.4139 48.618 29.7299 49.356 29.0459 50.04H33.7979C34.4639 49.428 35.1659 48.6 35.6879 47.844ZM39.0539 54.414V51.282H34.7519V54.414H39.0539ZM29.3159 51.282V54.414H33.4559V51.282H29.3159ZM31.6379 59.994H38.6399C40.4219 59.994 40.6919 59.49 40.9079 57.132C41.2499 57.348 41.7899 57.546 42.1859 57.618C41.8799 60.408 41.3399 61.218 38.6399 61.218H31.7279C28.9019 61.218 28.0199 60.714 28.0199 58.644V50.976C27.4979 51.444 26.9579 51.84 26.4179 52.218C26.3099 51.912 25.9139 51.264 25.6979 50.958C27.8759 49.626 30.0719 47.43 31.3139 45.018L32.5019 45.468C32.2859 45.864 32.0699 46.242 31.8359 46.638H36.5699L36.8399 46.566L37.7219 47.196C37.0919 48.15 36.2639 49.176 35.4179 50.04H40.3679V56.484H39.0539V55.692H29.3159V58.662C29.3159 59.724 29.6939 59.994 31.6379 59.994Z" fill="#FEB75D"/>
<path d="M22.7933 3.3596L23.0463 3.49343L37.3353 11.7435C38.1342 12.2048 38.7299 12.9505 39.0034 13.8316C39.277 14.7127 39.2083 15.6646 38.8111 16.4973L38.6773 16.7521L27.6773 35.8041C27.2159 36.6031 26.4703 37.1987 25.5891 37.4723C24.708 37.7458 23.7562 37.6772 22.9234 37.28L22.6686 37.1461L8.37962 28.8961C7.5802 28.4347 6.98422 27.6888 6.71065 26.8072C6.43708 25.9257 6.50605 24.9734 6.90379 24.1405L7.03762 23.8875L15.2876 9.59842L12.1123 7.7651C11.7042 7.53274 11.4008 7.15263 11.2647 6.70316C11.1286 6.2537 11.1702 5.76914 11.3809 5.34943C11.5916 4.92973 11.9553 4.60687 12.397 4.44744C12.8387 4.28801 13.3248 4.30418 13.7549 4.4926L13.9456 4.58976L17.1209 6.4231L18.0376 4.83543C18.4731 4.08 19.1635 3.5045 19.985 3.21218C20.8065 2.91987 21.7053 2.92988 22.5201 3.24043L22.7933 3.3596ZM32.3834 20.3198H13.3314L10.2148 25.7208L24.5019 33.9708L32.3871 20.3198H32.3834ZM39.4876 18.9081L39.8488 18.4865L39.9881 18.646L40.3511 19.0768L40.6756 19.4801L41.0368 19.9531L41.4108 20.4738C42.0304 21.3703 42.5988 22.3805 42.5988 23.0698C42.5988 23.7991 42.309 24.4986 41.7933 25.0143C41.2776 25.5301 40.5781 25.8198 39.8488 25.8198C39.1194 25.8198 38.42 25.5301 37.9042 25.0143C37.3885 24.4986 37.0988 23.7991 37.0988 23.0698C37.0988 22.2411 37.9164 20.9523 38.6608 19.9531L39.0219 19.4801L39.4876 18.9081ZM21.2129 6.66876L20.2963 8.25642L21.8839 9.1731C22.0941 9.2926 22.2786 9.45248 22.4267 9.64357C22.5749 9.83465 22.6837 10.0532 22.7471 10.2865C22.8104 10.5198 22.827 10.7634 22.7958 11.0031C22.7647 11.2429 22.6864 11.4742 22.5655 11.6836C22.4446 11.8929 22.2835 12.0764 22.0914 12.2232C21.8994 12.3701 21.6801 12.4775 21.4464 12.5393C21.2127 12.6011 20.969 12.6161 20.7294 12.5833C20.4899 12.5506 20.2592 12.4707 20.0506 12.3485L18.4629 11.4318L15.4489 16.6531H34.5009L35.5019 14.9188L21.2129 6.66876Z" fill="#FEB75D"/>
</svg>
