<svg width="49" height="64" viewBox="0 0 49 64" fill="none" xmlns="http://www.w3.org/2000/svg">
<path d="M14.7003 55.206V56.25H16.8243V55.206H14.7003ZM13.8723 56.952V54.504H17.6883V56.952H13.8723ZM12.7203 53.73V57.726H18.8403V53.73H12.7203ZM11.6763 58.572V52.902H19.9383V58.572H11.6763ZM13.3683 48.474V49.662H18.2103V48.474H13.3683ZM16.3203 51.282H21.2343V52.128H10.4523V51.282H15.1863V50.472H12.2523V47.682H19.3623V50.472H16.3203V51.282ZM9.60626 59.526H22.0263V46.836H9.60626V59.526ZM8.36426 45.702H23.3043V61.38H22.0263V60.678H9.60626V61.38H8.36426V45.702ZM30.7023 53.64H39.5223V61.416H38.1543V54.972H30.5943C30.3243 57.312 29.6223 59.58 27.9303 61.47C27.7143 61.164 27.2283 60.696 26.9223 60.48C29.1903 57.87 29.4423 54.486 29.4423 51.228V45.18H30.7743V49.428H37.5423V45H38.8923V50.742H30.7743V51.228C30.7743 52.038 30.7563 52.848 30.7023 53.64Z" fill="#FEB75D"/>
<path d="M37.3643 6C38.2484 6 39.0962 6.35119 39.7213 6.97631C40.3464 7.60143 40.6976 8.44928 40.6976 9.33333V32.6667C40.6976 33.5507 40.3464 34.3986 39.7213 35.0237C39.0962 35.6488 38.2484 36 37.3643 36H10.6976C9.81353 36 8.96569 35.6488 8.34057 35.0237C7.71545 34.3986 7.36426 33.5507 7.36426 32.6667V9.33333C7.36426 8.44928 7.71545 7.60143 8.34057 6.97631C8.96569 6.35119 9.81353 6 10.6976 6H37.3643ZM37.3643 9.33333H10.6976V32.6667H12.2459L27.7593 17.1533C27.9528 16.9598 28.1824 16.8063 28.4352 16.7016C28.688 16.5968 28.959 16.5429 29.2326 16.5429C29.5063 16.5429 29.7772 16.5968 30.03 16.7016C30.2828 16.8063 30.5125 16.9598 30.706 17.1533L37.3643 23.81V9.33333ZM29.2326 20.3933L16.9593 32.6667H37.3643V28.525L29.2326 20.3933ZM16.531 12.6667C17.194 12.6667 17.8299 12.9301 18.2987 13.3989C18.7676 13.8677 19.031 14.5036 19.031 15.1667C19.031 15.8297 18.7676 16.4656 18.2987 16.9344C17.8299 17.4033 17.194 17.6667 16.531 17.6667C15.8679 17.6667 15.232 17.4033 14.7632 16.9344C14.2944 16.4656 14.031 15.8297 14.031 15.1667C14.031 14.5036 14.2944 13.8677 14.7632 13.3989C15.232 12.9301 15.8679 12.6667 16.531 12.6667Z" fill="#FEB75D"/>
</svg>
