<svg width="44" height="60" viewBox="0 0 44 60" fill="none" xmlns="http://www.w3.org/2000/svg">
<path d="M18.512 49.468V47.758H13.76V49.468H18.512ZM18.512 52.222V50.476H13.76V52.222H18.512ZM18.512 54.976V53.23H13.76V54.976H18.512ZM12.572 46.696H15.092C15.218 46.156 15.344 45.508 15.416 44.95H12.032V43.798H20.294V44.95H16.784C16.622 45.544 16.478 46.156 16.316 46.696H19.736V56.038H12.572V46.696ZM5.786 50.458V53.05C5.786 54.886 5.588 57.496 4.526 59.242C4.328 58.99 3.842 58.558 3.572 58.414C4.49 56.83 4.58 54.67 4.58 53.05V49.36H5.174C4.976 49.126 4.598 48.784 4.346 48.622C5.264 48.316 6.218 47.938 7.082 47.488C6.326 47.128 5.588 46.822 4.904 46.552L5.768 45.886C6.506 46.174 7.334 46.516 8.126 46.894C8.72 46.534 9.242 46.156 9.692 45.742H4.13V44.662H7.73C7.568 44.176 7.316 43.6 7.082 43.15L8.252 42.862C8.594 43.402 8.882 44.104 9.062 44.662H11.852V45.742H10.124L10.862 46.03C10.376 46.498 9.8 46.966 9.17 47.38C9.962 47.776 10.7 48.154 11.258 48.478L10.394 49.234C9.818 48.892 9.026 48.442 8.162 48.01C7.244 48.55 6.254 49 5.354 49.36H12.032V50.458H5.786ZM10.304 52.87L11.33 53.284C10.286 54.418 8.594 55.372 7.046 55.984C6.848 55.732 6.542 55.39 6.254 55.21C7.712 54.67 9.386 53.806 10.304 52.87ZM9.818 50.602L10.844 51.016C9.872 51.952 8.288 52.744 6.92 53.23C6.722 52.996 6.398 52.672 6.128 52.474C7.442 52.042 8.972 51.358 9.818 50.602ZM10.808 55.354L11.924 55.75C10.808 57.424 8.756 58.72 6.416 59.458C6.236 59.17 5.948 58.792 5.66 58.558C7.838 57.946 9.818 56.812 10.808 55.354ZM14.21 56.326L15.362 57.01C14.462 57.928 12.968 58.9 11.672 59.458C11.474 59.188 11.06 58.81 10.772 58.576C12.068 58.054 13.508 57.1 14.21 56.326ZM16.73 57.082L17.702 56.398C18.674 57.064 19.934 58.018 20.546 58.702L19.502 59.422C18.908 58.774 17.684 57.766 16.73 57.082ZM32.714 45.706H28.016C27.44 46.48 26.756 47.218 26.072 47.902H30.824C31.49 47.29 32.192 46.462 32.714 45.706ZM36.08 52.276V49.144H31.778V52.276H36.08ZM26.342 49.144V52.276H30.482V49.144H26.342ZM28.664 57.856H35.666C37.448 57.856 37.718 57.352 37.934 54.994C38.276 55.21 38.816 55.408 39.212 55.48C38.906 58.27 38.366 59.08 35.666 59.08H28.754C25.928 59.08 25.046 58.576 25.046 56.506V48.838C24.524 49.306 23.984 49.702 23.444 50.08C23.336 49.774 22.94 49.126 22.724 48.82C24.902 47.488 27.098 45.292 28.34 42.88L29.528 43.33C29.312 43.726 29.096 44.104 28.862 44.5H33.596L33.866 44.428L34.748 45.058C34.118 46.012 33.29 47.038 32.444 47.902H37.394V54.346H36.08V53.554H26.342V56.524C26.342 57.586 26.72 57.856 28.664 57.856Z" fill="white"/>
<path d="M20.5277 2.03983L20.7807 2.17366L35.0697 10.4237C35.8686 10.885 36.4643 11.6307 36.7378 12.5118C37.0114 13.3929 36.9427 14.3448 36.5455 15.1775L36.4117 15.4323L25.4117 34.4843C24.9503 35.2833 24.2047 35.8789 23.3235 36.1525C22.4424 36.426 21.4906 36.3574 20.6578 35.9602L20.403 35.8263L6.114 27.5763C5.31458 27.1149 4.7186 26.369 4.44503 25.4874C4.17146 24.6059 4.24043 23.6536 4.63817 22.8207L4.772 22.5677L13.022 8.27866L9.84667 6.44533C9.43856 6.21297 9.13518 5.83286 8.99909 5.38339C8.86301 4.93393 8.90459 4.44937 9.11527 4.02966C9.32594 3.60996 9.68965 3.2871 10.1314 3.12767C10.5731 2.96824 11.0592 2.98441 11.4893 3.17283L11.68 3.26999L14.8553 5.10333L15.772 3.51566C16.2075 2.76023 16.8979 2.18473 17.7194 1.89241C18.5409 1.6001 19.4397 1.61011 20.2545 1.92066L20.5277 2.03983ZM30.1178 19H11.0658L7.94917 24.401L22.2363 32.651L30.1215 19H30.1178ZM37.222 17.5883L37.5832 17.1667L37.7225 17.3262L38.0855 17.757L38.41 18.1603L38.7712 18.6333L39.1452 19.154C39.7648 20.0505 40.3332 21.0607 40.3332 21.75C40.3332 22.4793 40.0434 23.1788 39.5277 23.6945C39.012 24.2103 38.3125 24.5 37.5832 24.5C36.8538 24.5 36.1544 24.2103 35.6386 23.6945C35.1229 23.1788 34.8332 22.4793 34.8332 21.75C34.8332 20.9213 35.6508 19.6325 36.3952 18.6333L36.7563 18.1603L37.222 17.5883ZM18.9473 5.34899L18.0307 6.93666L19.6183 7.85333C19.8285 7.97283 20.013 8.13272 20.1611 8.32381C20.3093 8.51489 20.4181 8.73339 20.4815 8.96672C20.5448 9.20006 20.5614 9.44362 20.5302 9.68338C20.4991 9.92314 20.4208 10.1544 20.2999 10.3638C20.179 10.5731 20.0179 10.7566 19.8258 10.9034C19.6338 11.0503 19.4145 11.1577 19.1808 11.2195C18.9471 11.2813 18.7034 11.2963 18.4638 11.2635C18.2243 11.2308 17.9936 11.1509 17.785 11.0287L16.1973 10.112L13.1833 15.3333H32.2353L33.2363 13.599L18.9473 5.34899Z" fill="white"/>
</svg>
