<svg width="42" height="60" viewBox="0 0 42 60" fill="none" xmlns="http://www.w3.org/2000/svg">
<path d="M12.5442 44.8703V45.6263C12.5442 47.2463 12.0762 49.1543 9.9342 50.4143C9.7542 50.1443 9.3042 49.6403 9.0702 49.4423C10.9962 48.3443 11.3022 46.8683 11.3022 45.5903V43.6103H16.7742V47.7863C16.7742 48.2903 16.8102 48.4523 17.0622 48.4523H18.1242C18.3582 48.4523 18.7002 48.4163 18.9162 48.3623C18.9342 48.7043 18.9882 49.2083 19.0062 49.5143C18.8262 49.5863 18.4662 49.6043 18.1242 49.6043H16.9542C15.7842 49.6043 15.5322 49.1003 15.5322 47.7503V44.8703H12.5442ZM7.32419 45.2123L6.2442 45.8243C5.9742 45.1763 5.3982 44.1683 4.8942 43.4123L5.9382 42.8903C6.4602 43.6283 7.03619 44.5643 7.32419 45.2123ZM9.7542 46.0223V47.1203H2.9502V46.0223H9.7542ZM3.7242 51.7823V50.7203H9.0342V51.7823H3.7242ZM3.7242 48.3803H9.0162V49.4423H3.7242V48.3803ZM16.5942 52.1243H11.5182C12.1122 53.4563 12.9762 54.6083 14.0562 55.5623C15.1182 54.6263 16.0002 53.4923 16.5942 52.1243ZM7.8282 57.2003V54.2303H4.8762V57.2003H7.8282ZM17.4582 50.8103L18.3042 51.1883C17.6382 53.3663 16.5222 55.0583 15.1002 56.3723C16.3242 57.2003 17.7462 57.8123 19.3482 58.1723C19.0782 58.4603 18.7002 59.0003 18.5202 59.3783C16.8282 58.9283 15.3342 58.2083 14.0562 57.2363C12.7242 58.2263 11.2122 58.9463 9.5922 59.4323C9.4662 59.0903 9.2142 58.6223 8.9802 58.3163H4.8762V59.1623H3.7062V53.1143H9.0162V58.1903C10.4382 57.8123 11.8242 57.2003 13.0302 56.3723C11.9142 55.2743 10.9962 53.9243 10.3482 52.3943L11.1222 52.1243H9.5562V50.8643H17.2242L17.4582 50.8103ZM26.6922 45.2123L25.6122 45.8243C25.3602 45.1763 24.7842 44.1683 24.2982 43.4303L25.3062 42.9083C25.8462 43.6463 26.4222 44.5823 26.6922 45.2123ZM29.5542 46.0223V47.1203H22.1562V46.0223H29.5542ZM28.7442 50.7203V51.7823H22.9482V50.7203H28.7442ZM27.6102 54.2303H24.2622V57.2003H27.6102V54.2303ZM28.7982 53.1143V58.3163H24.2622V59.1623H23.0922V53.1143H28.7982ZM22.9482 49.4423V48.3803H28.7982V49.4423H22.9482ZM38.0862 49.1723V50.4863H34.3962V59.4143H33.0462V50.4863H29.5182V49.1723H33.0462V43.3043H34.3962V49.1723H38.0862Z" fill="#FEB75D"/>
<path d="M17.6349 1.57452C18.2264 0.244513 20.0482 0.179763 20.7622 1.37502L20.8654 1.57452L22.6889 5.67827C24.2812 9.26037 26.9292 12.271 30.2787 14.3075L30.8422 14.6382L34.0797 16.4582C34.3371 16.6023 34.5543 16.8085 34.7116 17.0581C34.8688 17.3076 34.9612 17.5925 34.9801 17.8869C34.9991 18.1812 34.9441 18.4757 34.8201 18.7433C34.6962 19.011 34.5072 19.2433 34.2704 19.4192L34.0814 19.5417L30.8422 21.3617C27.4251 23.2839 24.6764 26.2035 22.9637 29.7302L22.6889 30.3218L20.8654 34.4255C20.2739 35.7555 18.4522 35.8203 17.7382 34.625L17.6349 34.4255L15.8114 30.3218C14.2192 26.7396 11.5712 23.729 8.22169 21.6925L7.65819 21.3617L4.42069 19.5417C4.16332 19.3977 3.9461 19.1915 3.78882 18.9419C3.63155 18.6924 3.53922 18.4075 3.52026 18.1131C3.5013 17.8188 3.5563 17.5243 3.68026 17.2567C3.80421 16.989 3.99318 16.7567 4.22994 16.5807L4.41894 16.4582L7.65819 14.6382C11.0753 12.7161 13.824 9.79648 15.5367 6.26977L15.8114 5.67827L17.6349 1.57452ZM19.2502 6.55852C17.0732 11.4585 13.4997 15.368 8.82019 18C13.4997 20.632 17.0732 24.5415 19.2502 29.4415C21.4342 24.5292 25.0077 20.6285 29.6802 18C25.0007 15.368 21.4272 11.4585 19.2502 6.55852ZM33.6352 0.713513C34.5046 2.68643 35.9866 4.32672 37.8614 5.39127C38.1414 5.54877 38.1414 5.95127 37.8614 6.10877C35.986 7.17422 34.504 8.81581 33.6352 10.79C33.602 10.8643 33.5479 10.9274 33.4796 10.9717C33.4113 11.016 33.3316 11.0396 33.2502 11.0396C33.1688 11.0396 33.0891 11.016 33.0208 10.9717C32.9525 10.9274 32.8984 10.8643 32.8652 10.79C31.9961 8.81646 30.5141 7.17552 28.6389 6.11052C28.5756 6.07442 28.523 6.02222 28.4864 5.95921C28.4498 5.8962 28.4306 5.82463 28.4306 5.75177C28.4306 5.6789 28.4498 5.60734 28.4864 5.54433C28.523 5.48132 28.5756 5.42912 28.6389 5.39302C30.5146 4.32711 31.9967 2.68488 32.8652 0.710013C32.8984 0.635693 32.9525 0.572582 33.0208 0.528297C33.0891 0.484013 33.1688 0.460449 33.2502 0.460449C33.3316 0.460449 33.4113 0.484013 33.4796 0.528297C33.5479 0.572582 33.602 0.635693 33.6352 0.710013V0.713513Z" fill="#FEB75D"/>
</svg>
