<svg width="48" height="64" viewBox="0 0 48 64" fill="none" xmlns="http://www.w3.org/2000/svg">
<path d="M14.01 51.822L14.028 52.272C15.144 50.508 15.792 47.772 16.134 45L17.448 45.162C17.304 46.206 17.106 47.25 16.872 48.222H21.3L21.534 48.168L22.434 48.456C22.092 50.058 21.588 51.93 21.102 53.118L20.004 52.776C20.346 51.93 20.67 50.634 20.922 49.464H16.566C16.152 50.886 15.666 52.164 15.054 53.154C14.82 52.956 14.334 52.614 14.01 52.398V52.956H6.936V51.822H14.01ZM9.834 49.374V47.826H6.342V46.692H9.834V45.054H11.094V46.692H14.586V47.826H11.094V49.374H14.226V50.49H6.756V49.374H9.834ZM7.638 56.106L8.754 56.394C8.304 57.69 7.638 59.22 7.062 60.21C6.792 60.066 6.288 59.814 6 59.706C6.63 58.734 7.224 57.348 7.638 56.106ZM14.748 55.494H11.112V61.416H9.852V55.494H6.126V54.342H14.748V55.494ZM12.156 56.502L13.146 56.106C13.668 56.988 14.262 58.194 14.532 58.896L13.47 59.4C13.2 58.662 12.642 57.438 12.156 56.502ZM18.78 50.796V51.642C18.78 52.164 18.762 52.74 18.726 53.334C19.356 56.448 20.634 59.166 22.74 60.318C22.452 60.57 22.038 61.074 21.858 61.416C20.148 60.372 19.032 58.464 18.276 56.088C17.808 57.924 16.89 59.814 15.09 61.452C14.856 61.164 14.406 60.768 14.064 60.57C17.268 57.708 17.502 54.072 17.502 51.624V50.796H18.78ZM40.488 47.268L39.552 48.114C39.03 47.484 37.914 46.512 36.996 45.864L37.896 45.126C38.814 45.738 39.948 46.656 40.488 47.268ZM30.462 53.604V58.536C31.722 58.266 33.018 58.014 34.314 57.726L34.422 58.914C31.38 59.634 28.086 60.39 25.8 60.894L25.386 59.58C26.394 59.382 27.708 59.112 29.148 58.824V53.604H25.944V52.308H33.828V53.604H30.462ZM41.226 49.644H35.97C36.42 55.692 37.824 60.066 39.606 60.066C40.092 60.066 40.308 59.076 40.416 56.682C40.722 56.988 41.226 57.276 41.604 57.42C41.37 60.534 40.866 61.452 39.498 61.452C36.582 61.452 35.088 56.286 34.602 49.644H25.314V48.33H34.512C34.458 47.268 34.44 46.17 34.422 45.072H35.826C35.826 46.188 35.844 47.268 35.898 48.33H41.226V49.644Z" fill="white"/>
<path fill-rule="evenodd" clip-rule="evenodd" d="M30 3C33.1048 2.99989 36.0887 4.20313 38.3249 6.35693C40.5612 8.51073 41.8756 11.4474 41.992 14.55L42 15V19C41.9999 19.4899 41.8201 19.9627 41.4946 20.3287C41.169 20.6948 40.7205 20.9287 40.234 20.986L40 21H36V35C36.0003 36.0092 35.6192 36.9811 34.933 37.7211C34.2468 38.4611 33.3063 38.9143 32.3 38.99L32 39H16C14.9908 39.0003 14.0189 38.6192 13.2789 37.933C12.5389 37.2468 12.0857 36.3063 12.01 35.3L12 35V21H8C7.51013 20.9999 7.03733 20.8201 6.67126 20.4946C6.30519 20.1691 6.07131 19.7205 6.014 19.234L6 19V15C5.99989 11.8952 7.20313 8.91128 9.35693 6.67506C11.5107 4.43883 14.4474 3.12443 17.55 3.008L18 3H30ZM31.996 7.252C31.9303 9.32889 31.0591 11.2987 29.5667 12.7446C28.0743 14.1905 26.0779 14.9991 24 14.9991C21.9221 14.9991 19.9257 14.1905 18.4333 12.7446C16.9409 11.2987 16.0697 9.32889 16.004 7.252C14.3542 7.67759 12.8832 8.61857 11.8051 9.93799C10.7271 11.2574 10.0982 12.8864 10.01 14.588L10 15V17H14C14.4899 17.0001 14.9627 17.1799 15.3287 17.5054C15.6948 17.8309 15.9287 18.2795 15.986 18.766L16 19V35H32V19C32.0001 18.5101 32.1799 18.0373 32.5054 17.6713C32.8309 17.3052 33.2795 17.0713 33.766 17.014L34 17H38V15C37.9995 13.2257 37.4095 11.5019 36.3228 10.0994C35.236 8.69696 33.714 7.69535 31.996 7.252ZM28 7H20C20 8.06087 20.4214 9.07828 21.1716 9.82843C21.9217 10.5786 22.9391 11 24 11C25.0609 11 26.0783 10.5786 26.8284 9.82843C27.5786 9.07828 28 8.06087 28 7Z" fill="white"/>
</svg>
