<svg width="40" height="57" viewBox="0 0 40 57" fill="none" xmlns="http://www.w3.org/2000/svg">
<path d="M9.93414 50.176V51.22H12.0581V50.176H9.93414ZM9.10614 51.922V49.474H12.9221V51.922H9.10614ZM7.95414 48.7V52.696H14.0741V48.7H7.95414ZM6.91014 53.542V47.872H15.1721V53.542H6.91014ZM8.60214 43.444V44.632H13.4441V43.444H8.60214ZM11.5541 46.252H16.4681V47.098H5.68614V46.252H10.4201V45.442H7.48614V42.652H14.5961V45.442H11.5541V46.252ZM4.84014 54.496H17.2601V41.806H4.84014V54.496ZM3.59814 40.672H18.5381V56.35H17.2601V55.648H4.84014V56.35H3.59814V40.672ZM25.9361 48.61H34.7561V56.386H33.3881V49.942H25.8281C25.5581 52.282 24.8561 54.55 23.1641 56.44C22.9481 56.134 22.4621 55.666 22.1561 55.45C24.4241 52.84 24.6761 49.456 24.6761 46.198V40.15H26.0081V44.398H32.7761V39.97H34.1261V45.712H26.0081V46.198C26.0081 47.008 25.9901 47.818 25.9361 48.61Z" fill="#FEB75D"/>
<path d="M33.3335 2C34.2176 2 35.0654 2.35119 35.6905 2.97631C36.3156 3.60143 36.6668 4.44928 36.6668 5.33333V28.6667C36.6668 29.5507 36.3156 30.3986 35.6905 31.0237C35.0654 31.6488 34.2176 32 33.3335 32H6.66683C5.78277 32 4.93493 31.6488 4.30981 31.0237C3.68469 30.3986 3.3335 29.5507 3.3335 28.6667V5.33333C3.3335 4.44928 3.68469 3.60143 4.30981 2.97631C4.93493 2.35119 5.78277 2 6.66683 2H33.3335ZM33.3335 5.33333H6.66683V28.6667H8.21516L23.7285 13.1533C23.922 12.9598 24.1516 12.8063 24.4044 12.7016C24.6572 12.5968 24.9282 12.5429 25.2018 12.5429C25.4755 12.5429 25.7464 12.5968 25.9992 12.7016C26.252 12.8063 26.4817 12.9598 26.6752 13.1533L33.3335 19.81V5.33333ZM25.2018 16.3933L12.9285 28.6667H33.3335V24.525L25.2018 16.3933ZM12.5002 8.66667C13.1632 8.66667 13.7991 8.93006 14.2679 9.3989C14.7368 9.86774 15.0002 10.5036 15.0002 11.1667C15.0002 11.8297 14.7368 12.4656 14.2679 12.9344C13.7991 13.4033 13.1632 13.6667 12.5002 13.6667C11.8371 13.6667 11.2012 13.4033 10.7324 12.9344C10.2636 12.4656 10.0002 11.8297 10.0002 11.1667C10.0002 10.5036 10.2636 9.86774 10.7324 9.3989C11.2012 8.93006 11.8371 8.66667 12.5002 8.66667Z" fill="#FEB75D"/>
</svg>
