<svg width="49" height="64" viewBox="0 0 49 64" fill="none" xmlns="http://www.w3.org/2000/svg">
<path d="M14.6094 55.206V56.25H16.7334V55.206H14.6094ZM13.7814 56.952V54.504H17.5974V56.952H13.7814ZM12.6294 53.73V57.726H18.7494V53.73H12.6294ZM11.5854 58.572V52.902H19.8474V58.572H11.5854ZM13.2774 48.474V49.662H18.1194V48.474H13.2774ZM16.2294 51.282H21.1434V52.128H10.3614V51.282H15.0954V50.472H12.1614V47.682H19.2714V50.472H16.2294V51.282ZM9.51544 59.526H21.9354V46.836H9.51544V59.526ZM8.27344 45.702H23.2134V61.38H21.9354V60.678H9.51544V61.38H8.27344V45.702ZM30.6114 53.64H39.4314V61.416H38.0634V54.972H30.5034C30.2334 57.312 29.5314 59.58 27.8394 61.47C27.6234 61.164 27.1374 60.696 26.8314 60.48C29.0994 57.87 29.3514 54.486 29.3514 51.228V45.18H30.6834V49.428H37.4514V45H38.8014V50.742H30.6834V51.228C30.6834 52.038 30.6654 52.848 30.6114 53.64Z" fill="white"/>
<path d="M37.2734 6C38.1575 6 39.0053 6.35119 39.6304 6.97631C40.2555 7.60143 40.6067 8.44928 40.6067 9.33333V32.6667C40.6067 33.5507 40.2555 34.3986 39.6304 35.0237C39.0053 35.6488 38.1575 36 37.2734 36H10.6068C9.72271 36 8.87487 35.6488 8.24975 35.0237C7.62463 34.3986 7.27344 33.5507 7.27344 32.6667V9.33333C7.27344 8.44928 7.62463 7.60143 8.24975 6.97631C8.87487 6.35119 9.72271 6 10.6068 6H37.2734ZM37.2734 9.33333H10.6068V32.6667H12.1551L27.6684 17.1533C27.8619 16.9598 28.0915 16.8063 28.3443 16.7016C28.5971 16.5968 28.8681 16.5429 29.1417 16.5429C29.4154 16.5429 29.6863 16.5968 29.9391 16.7016C30.1919 16.8063 30.4216 16.9598 30.6151 17.1533L37.2734 23.81V9.33333ZM29.1417 20.3933L16.8684 32.6667H37.2734V28.525L29.1417 20.3933ZM16.4401 12.6667C17.1031 12.6667 17.739 12.9301 18.2078 13.3989C18.6767 13.8677 18.9401 14.5036 18.9401 15.1667C18.9401 15.8297 18.6767 16.4656 18.2078 16.9344C17.739 17.4033 17.1031 17.6667 16.4401 17.6667C15.777 17.6667 15.1411 17.4033 14.6723 16.9344C14.2035 16.4656 13.9401 15.8297 13.9401 15.1667C13.9401 14.5036 14.2035 13.8677 14.6723 13.3989C15.1411 12.9301 15.777 12.6667 16.4401 12.6667Z" fill="white"/>
</svg>
