<svg width="49" height="64" viewBox="0 0 49 64" fill="none" xmlns="http://www.w3.org/2000/svg">
<path d="M21.3951 51.606V49.896H16.6431V51.606H21.3951ZM21.3951 54.36V52.614H16.6431V54.36H21.3951ZM21.3951 57.114V55.368H16.6431V57.114H21.3951ZM15.4551 48.834H17.9751C18.1011 48.294 18.2271 47.646 18.2991 47.088H14.9151V45.936H23.1771V47.088H19.6671C19.5051 47.682 19.3611 48.294 19.1991 48.834H22.6191V58.176H15.4551V48.834ZM8.66908 52.596V55.188C8.66908 57.024 8.47108 59.634 7.40908 61.38C7.21108 61.128 6.72508 60.696 6.45508 60.552C7.37308 58.968 7.46308 56.808 7.46308 55.188V51.498H8.05708C7.85908 51.264 7.48108 50.922 7.22908 50.76C8.14708 50.454 9.10108 50.076 9.96508 49.626C9.20908 49.266 8.47108 48.96 7.78708 48.69L8.65108 48.024C9.38908 48.312 10.2171 48.654 11.0091 49.032C11.6031 48.672 12.1251 48.294 12.5751 47.88H7.01308V46.8H10.6131C10.4511 46.314 10.1991 45.738 9.96508 45.288L11.1351 45C11.4771 45.54 11.7651 46.242 11.9451 46.8H14.7351V47.88H13.0071L13.7451 48.168C13.2591 48.636 12.6831 49.104 12.0531 49.518C12.8451 49.914 13.5831 50.292 14.1411 50.616L13.2771 51.372C12.7011 51.03 11.9091 50.58 11.0451 50.148C10.1271 50.688 9.13708 51.138 8.23708 51.498H14.9151V52.596H8.66908ZM13.1871 55.008L14.2131 55.422C13.1691 56.556 11.4771 57.51 9.92908 58.122C9.73108 57.87 9.42508 57.528 9.13708 57.348C10.5951 56.808 12.2691 55.944 13.1871 55.008ZM12.7011 52.74L13.7271 53.154C12.7551 54.09 11.1711 54.882 9.80308 55.368C9.60508 55.134 9.28108 54.81 9.01108 54.612C10.3251 54.18 11.8551 53.496 12.7011 52.74ZM13.6911 57.492L14.8071 57.888C13.6911 59.562 11.6391 60.858 9.29908 61.596C9.11908 61.308 8.83108 60.93 8.54308 60.696C10.7211 60.084 12.7011 58.95 13.6911 57.492ZM17.0931 58.464L18.2451 59.148C17.3451 60.066 15.8511 61.038 14.5551 61.596C14.3571 61.326 13.9431 60.948 13.6551 60.714C14.9511 60.192 16.3911 59.238 17.0931 58.464ZM19.6131 59.22L20.5851 58.536C21.5571 59.202 22.8171 60.156 23.4291 60.84L22.3851 61.56C21.7911 60.912 20.5671 59.904 19.6131 59.22ZM35.5971 47.844H30.8991C30.3231 48.618 29.6391 49.356 28.9551 50.04H33.7071C34.3731 49.428 35.0751 48.6 35.5971 47.844ZM38.9631 54.414V51.282H34.6611V54.414H38.9631ZM29.2251 51.282V54.414H33.3651V51.282H29.2251ZM31.5471 59.994H38.5491C40.3311 59.994 40.6011 59.49 40.8171 57.132C41.1591 57.348 41.6991 57.546 42.0951 57.618C41.7891 60.408 41.2491 61.218 38.5491 61.218H31.6371C28.8111 61.218 27.9291 60.714 27.9291 58.644V50.976C27.4071 51.444 26.8671 51.84 26.3271 52.218C26.2191 51.912 25.8231 51.264 25.6071 50.958C27.7851 49.626 29.9811 47.43 31.2231 45.018L32.4111 45.468C32.1951 45.864 31.9791 46.242 31.7451 46.638H36.4791L36.7491 46.566L37.6311 47.196C37.0011 48.15 36.1731 49.176 35.3271 50.04H40.2771V56.484H38.9631V55.692H29.2251V58.662C29.2251 59.724 29.6031 59.994 31.5471 59.994Z" fill="white"/>
<path d="M22.7025 3.3596L22.9555 3.49343L37.2445 11.7435C38.0434 12.2048 38.6391 12.9505 38.9126 13.8316C39.1862 14.7127 39.1175 15.6646 38.7203 16.4973L38.5865 16.7521L27.5865 35.8041C27.1251 36.6031 26.3795 37.1987 25.4983 37.4723C24.6172 37.7458 23.6654 37.6772 22.8326 37.28L22.5778 37.1461L8.2888 28.8961C7.48938 28.4347 6.8934 27.6888 6.61983 26.8072C6.34626 25.9257 6.41523 24.9734 6.81297 24.1405L6.9468 23.8875L15.1968 9.59842L12.0215 7.7651C11.6134 7.53274 11.31 7.15263 11.1739 6.70316C11.0378 6.2537 11.0794 5.76914 11.2901 5.34943C11.5007 4.92973 11.8645 4.60687 12.3062 4.44744C12.7479 4.28801 13.234 4.30418 13.6641 4.4926L13.8548 4.58976L17.0301 6.4231L17.9468 4.83543C18.3823 4.08 19.0727 3.5045 19.8942 3.21218C20.7157 2.91987 21.6145 2.92988 22.4293 3.24043L22.7025 3.3596ZM32.2926 20.3198H13.2406L10.124 25.7208L24.4111 33.9708L32.2963 20.3198H32.2926ZM39.3968 18.9081L39.758 18.4865L39.8973 18.646L40.2603 19.0768L40.5848 19.4801L40.946 19.9531L41.32 20.4738C41.9396 21.3703 42.508 22.3805 42.508 23.0698C42.508 23.7991 42.2182 24.4986 41.7025 25.0143C41.1868 25.5301 40.4873 25.8198 39.758 25.8198C39.0286 25.8198 38.3292 25.5301 37.8134 25.0143C37.2977 24.4986 37.008 23.7991 37.008 23.0698C37.008 22.2411 37.8256 20.9523 38.57 19.9531L38.9311 19.4801L39.3968 18.9081ZM21.1221 6.66876L20.2055 8.25642L21.7931 9.1731C22.0033 9.2926 22.1878 9.45248 22.3359 9.64357C22.4841 9.83465 22.5929 10.0532 22.6563 10.2865C22.7196 10.5198 22.7362 10.7634 22.705 11.0031C22.6739 11.2429 22.5956 11.4742 22.4747 11.6836C22.3538 11.8929 22.1927 12.0764 22.0006 12.2232C21.8086 12.3701 21.5893 12.4775 21.3556 12.5393C21.1219 12.6011 20.8782 12.6161 20.6386 12.5833C20.3991 12.5506 20.1684 12.4707 19.9598 12.3485L18.3721 11.4318L15.3581 16.6531H34.4101L35.4111 14.9188L21.1221 6.66876Z" fill="white"/>
</svg>
