<svg width="49" height="64" viewBox="0 0 49 64" fill="none" xmlns="http://www.w3.org/2000/svg">
<path d="M16.5032 46.98V47.736C16.5032 49.356 16.0352 51.264 13.8932 52.524C13.7132 52.254 13.2632 51.75 13.0292 51.552C14.9552 50.454 15.2612 48.978 15.2612 47.7V45.72H20.7332V49.896C20.7332 50.4 20.7692 50.562 21.0212 50.562H22.0832C22.3172 50.562 22.6592 50.526 22.8752 50.472C22.8932 50.814 22.9472 51.318 22.9652 51.624C22.7852 51.696 22.4252 51.714 22.0832 51.714H20.9132C19.7432 51.714 19.4912 51.21 19.4912 49.86V46.98H16.5032ZM11.2832 47.322L10.2032 47.934C9.93318 47.286 9.35718 46.278 8.85318 45.522L9.89718 45C10.4192 45.738 10.9952 46.674 11.2832 47.322ZM13.7132 48.132V49.23H6.90918V48.132H13.7132ZM7.68318 53.892V52.83H12.9932V53.892H7.68318ZM7.68318 50.49H12.9752V51.552H7.68318V50.49ZM20.5532 54.234H15.4772C16.0712 55.566 16.9352 56.718 18.0152 57.672C19.0772 56.736 19.9592 55.602 20.5532 54.234ZM11.7872 59.31V56.34H8.83518V59.31H11.7872ZM21.4172 52.92L22.2632 53.298C21.5972 55.476 20.4812 57.168 19.0592 58.482C20.2832 59.31 21.7052 59.922 23.3072 60.282C23.0372 60.57 22.6592 61.11 22.4792 61.488C20.7872 61.038 19.2932 60.318 18.0152 59.346C16.6832 60.336 15.1712 61.056 13.5512 61.542C13.4252 61.2 13.1732 60.732 12.9392 60.426H8.83518V61.272H7.66518V55.224H12.9752V60.3C14.3972 59.922 15.7832 59.31 16.9892 58.482C15.8732 57.384 14.9552 56.034 14.3072 54.504L15.0812 54.234H13.5152V52.974H21.1832L21.4172 52.92ZM30.6512 47.322L29.5712 47.934C29.3192 47.286 28.7432 46.278 28.2572 45.54L29.2652 45.018C29.8052 45.756 30.3812 46.692 30.6512 47.322ZM33.5132 48.132V49.23H26.1152V48.132H33.5132ZM32.7032 52.83V53.892H26.9072V52.83H32.7032ZM31.5692 56.34H28.2212V59.31H31.5692V56.34ZM32.7572 55.224V60.426H28.2212V61.272H27.0512V55.224H32.7572ZM26.9072 51.552V50.49H32.7572V51.552H26.9072ZM42.0452 51.282V52.596H38.3552V61.524H37.0052V52.596H33.4772V51.282H37.0052V45.414H38.3552V51.282H42.0452Z" fill="#FEB75D"/>
<path d="M22.0275 4.11407C22.619 2.78406 24.4408 2.71931 25.1548 3.91457L25.258 4.11407L27.0815 8.21782C28.6738 11.7999 31.3218 14.8106 34.6713 16.8471L35.2348 17.1778L38.4723 18.9978C38.7297 19.1419 38.9469 19.3481 39.1042 19.5977C39.2614 19.8472 39.3538 20.1321 39.3727 20.4265C39.3917 20.7208 39.3367 21.0153 39.2127 21.2829C39.0888 21.5506 38.8998 21.7829 38.663 21.9588L38.474 22.0813L35.2348 23.9013C31.8177 25.8235 29.069 28.7431 27.3563 32.2698L27.0815 32.8614L25.258 36.9651C24.6665 38.2951 22.8448 38.3599 22.1308 37.1646L22.0275 36.9651L20.204 32.8614C18.6118 29.2792 15.9638 26.2686 12.6143 24.2321L12.0508 23.9013L8.81327 22.0813C8.5559 21.9373 8.33868 21.7311 8.1814 21.4815C8.02413 21.232 7.9318 20.9471 7.91284 20.6527C7.89388 20.3584 7.94888 20.0639 8.07284 19.7963C8.19679 19.5286 8.38576 19.2963 8.62252 19.1203L8.81152 18.9978L12.0508 17.1778C15.4679 15.2557 18.2166 12.336 19.9293 8.80932L20.204 8.21782L22.0275 4.11407ZM23.6428 9.09807C21.4658 13.9981 17.8923 17.9076 13.2128 20.5396C17.8923 23.1716 21.4658 27.0811 23.6428 31.9811C25.8268 27.0688 29.4003 23.1681 34.0728 20.5396C29.3933 17.9076 25.8198 13.9981 23.6428 9.09807ZM38.0278 3.25306C38.8972 5.22598 40.3792 6.86627 42.254 7.93082C42.534 8.08832 42.534 8.49082 42.254 8.64832C40.3786 9.71377 38.8966 11.3554 38.0278 13.3296C37.9946 13.4039 37.9405 13.467 37.8722 13.5113C37.8039 13.5556 37.7242 13.5792 37.6428 13.5792C37.5614 13.5792 37.4817 13.5556 37.4134 13.5113C37.3451 13.467 37.291 13.4039 37.2578 13.3296C36.3887 11.356 34.9067 9.71507 33.0315 8.65007C32.9682 8.61397 32.9156 8.56177 32.879 8.49876C32.8424 8.43575 32.8232 8.36418 32.8232 8.29132C32.8232 8.21845 32.8424 8.14689 32.879 8.08388C32.9156 8.02087 32.9682 7.96867 33.0315 7.93257C34.9072 6.86666 36.3893 5.22443 37.2578 3.24956C37.291 3.17524 37.3451 3.11213 37.4134 3.06785C37.4817 3.02356 37.5614 3 37.6428 3C37.7242 3 37.8039 3.02356 37.8722 3.06785C37.9405 3.11213 37.9946 3.17524 38.0278 3.24956V3.25306Z" fill="#FEB75D"/>
</svg>
