<svg width="606" height="553" viewBox="0 0 606 553" fill="none" xmlns="http://www.w3.org/2000/svg">
<path d="M303.083 127.268L196.931 36.3632L220.643 15.3823H385.486L303.083 127.268Z" fill="#B3B3B3"/>
<mask id="mask0_1281_572" style="mask-type:luminance" maskUnits="userSpaceOnUse" x="3" y="17" width="239" height="236">
<path d="M241.044 51.8048C223.954 34.0488 211.166 17.3931 211.166 17.3931C193.239 21.4906 153.808 31.8103 128.002 48.3143C93.6332 70.3196 32.6214 137.246 21.6979 149.121C10.7744 160.997 -0.758121 172.113 4.304 179.018C7.08245 182.774 29.272 212.785 50.9288 234.069C57.7417 240.747 63.9456 246.324 69.5406 250.004C74.2221 253.039 77.7999 252.357 81.3015 252.091C84.8031 251.787 114.681 221.549 120.124 215.517C131.428 202.921 140.486 194.536 144.216 195.636C160.126 135.501 206.104 83.9401 241.044 51.8048Z" fill="white"/>
</mask>
<g mask="url(#mask0_1281_572)">
<path d="M318.879 -22.6343H-20.4355V306.193H318.879V-22.6343Z" fill="#ECECEC"/>
</g>
<mask id="mask1_1281_572" style="mask-type:luminance" maskUnits="userSpaceOnUse" x="365" y="17" width="239" height="236">
<path d="M365.122 51.8038C382.211 34.0478 395 17.3921 395 17.3921C412.927 21.4896 452.358 31.8093 478.163 48.3133C512.494 70.2807 573.506 137.207 584.468 149.082C595.391 160.958 606.924 172.074 601.862 178.979C599.083 182.735 576.894 212.746 555.237 234.03C548.424 240.708 542.22 246.285 536.625 249.965C531.944 253.001 528.366 252.318 524.864 252.052C521.363 251.749 491.485 221.51 486.042 215.478C474.738 202.882 465.679 194.497 461.949 195.597C446.002 135.5 400.024 83.9391 365.122 51.8038Z" fill="white"/>
</mask>
<g mask="url(#mask1_1281_572)">
<path d="M626.564 -22.6333H287.25V306.194H626.564V-22.6333Z" fill="#ECECEC"/>
</g>
<mask id="mask2_1281_572" style="mask-type:luminance" maskUnits="userSpaceOnUse" x="134" y="47" width="339" height="504">
<path d="M361.925 47.896C344.112 70.4325 321.085 94.1071 303.045 93.576C284.927 93.0448 260.226 71.7224 241.005 51.7659C206.065 83.9012 160.087 135.462 144.14 195.597C144.14 195.597 145.434 194.307 145.434 202.692C145.434 211.077 142.199 283.467 141.552 307.369C140.905 331.271 127.279 529.433 138.316 534.593C149.354 539.752 245.268 550.11 298.401 550.11H307.688C360.821 550.11 456.735 539.79 467.773 534.593C478.81 529.395 465.185 331.271 464.537 307.369C463.89 283.467 460.655 211.115 460.655 202.692C460.655 194.307 461.949 195.597 461.949 195.597C462.292 195.483 462.672 195.483 463.053 195.559C446.42 132.958 397.246 79.6519 361.925 47.896Z" fill="white"/>
</mask>
<g mask="url(#mask2_1281_572)">
<path d="M512.342 -7.68652H101.816V605.692H512.342V-7.68652Z" fill="#ECECEC"/>
</g>
<path d="M227.456 4C227.456 4 272.254 12.5745 303.083 12.5745C333.913 12.5745 378.711 4 378.711 4L385.485 15.3821L371.555 21.9457C358.12 24.26 326.034 29.382 302.284 29.382C279.409 29.382 248.846 24.6774 234.573 22.2113L220.643 15.3441L227.456 4Z" fill="#DCDDDD"/>
<path d="M303.463 102.91C376.084 83.6366 397.284 11.2467 397.284 11.2467L378.672 4.03809C362.192 65.8047 307.879 82.9536 303.045 84.3574C298.211 82.9536 243.936 65.8047 227.418 4.03809L208.806 11.2467C208.806 11.2467 230.006 83.6366 302.626 102.91H303.463Z" fill="#DCDDDD"/>
<path d="M303.463 102.91C376.084 83.6366 397.284 11.2467 397.284 11.2467L378.672 4.03809C362.192 65.8047 307.879 82.9536 303.045 84.3574C298.211 82.9536 243.936 65.8047 227.418 4.03809L208.806 11.2467C208.806 11.2467 230.006 83.6366 302.626 102.91H303.463Z" stroke="#1A1A1A" stroke-width="5.70915" stroke-miterlimit="10"/>
<path d="M227.456 4C227.456 4 272.253 12.5752 303.083 12.5752C333.912 12.5752 378.71 4 378.71 4" stroke="#1A1A1A" stroke-width="5.70915" stroke-miterlimit="10"/>
<path d="M234.574 22.2505C248.809 24.6788 279.41 29.4217 302.284 29.4217C326.072 29.4217 358.12 24.3373 371.555 21.9849" stroke="#1A1A1A" stroke-width="5.70915" stroke-miterlimit="10"/>
<path d="M144.14 195.635C144.14 195.635 165.454 114.937 234.573 58.8989" stroke="#1A1A1A" stroke-width="5.70915" stroke-miterlimit="10"/>
<path d="M461.988 195.635C461.988 195.635 440.674 114.937 371.555 58.8989" stroke="#1A1A1A" stroke-width="5.70915" stroke-miterlimit="10"/>
<path d="M395.153 17.43C413.156 21.5655 452.435 31.8473 478.164 48.3133C512.495 70.2807 573.507 137.207 584.468 149.082C595.392 160.958 606.924 172.074 601.862 178.979C599.084 182.735 576.894 212.746 555.237 234.03C548.424 240.708 542.221 246.285 536.626 249.965C531.944 253.001 528.366 252.318 524.865 252.052C521.363 251.749 491.485 221.51 486.042 215.478C474.738 202.882 465.68 194.497 461.95 195.597C461.95 195.597 460.656 194.307 460.656 202.692C460.656 211.077 463.891 283.467 464.538 307.369C465.185 331.271 478.811 529.433 467.773 534.592C456.774 539.752 360.822 550.11 307.688 550.11H298.402C245.268 550.11 149.355 539.79 138.317 534.592C127.317 529.433 140.905 331.271 141.552 307.369C142.199 283.467 145.434 211.115 145.434 202.692C145.434 194.269 144.14 195.597 144.14 195.597C140.448 194.497 131.352 202.882 120.048 215.478C114.643 221.51 84.7269 251.749 81.2253 252.052C77.7237 252.356 74.1459 253.039 69.4644 249.965C63.8695 246.285 57.6655 240.708 50.8526 234.03C29.1959 212.746 6.96822 182.735 4.22782 178.979C-0.834293 172.074 10.6982 160.958 21.6217 149.082C32.5452 137.207 93.5571 70.2807 127.926 48.3133C153.77 31.8093 193.163 21.4896 211.09 17.3921" stroke="#1A1A1A" stroke-width="5.70915" stroke-miterlimit="10"/>
</svg>
