<svg width="152" height="152" viewBox="0 0 152 152" fill="none" xmlns="http://www.w3.org/2000/svg">
<path d="M60.2993 17.8377L76.2805 18.892L91.7067 17.6157L88.0999 24.0526L80.2757 30.1565L75.9475 31.7658L67.9015 27.5485L62.6854 22.2769L60.2993 17.8377Z" fill="#B3B3B3"/>
<path d="M59.8068 25.3687L63.0243 28.9L76.365 55.5031L37.5984 135.234L36.9395 117.274L39.714 59.3424L39.492 56.5679L44.3751 44.3601L52.5877 32.7071L59.8068 25.3687Z" fill="#ECECEC"/>
<path d="M62.7104 29.0558L113.857 135.551L114.975 126.365L114.504 109.179L113.405 88.9323L112.307 57.7777L112.071 54.9526L108.461 46.7127L101.006 34.863L94.8067 27.9571L91.9031 25.5244L90.3336 27.1724L85.939 31.4101L78.2485 35.3338L76.0512 36.0401L70.9503 34.3136L64.4369 30.076L62.7104 29.0558Z" fill="#ECECEC"/>
<path d="M75.4958 54.8657L37.707 134.661L38.9278 135.937L65.8496 138.921L86.3315 138.843L104.852 137.116L114.051 135.7L75.4958 54.8657Z" fill="#ECECEC"/>
<path d="M54.1399 15.7271L57.0254 20.7212L59.9109 25.3269L54.5284 30.7094L45.4835 42.5289L39.2131 56.9009L34.8849 60.3413L25.0076 70.1076L22.5106 70.0521L16.4067 64.836L6.41846 52.2952L8.52708 48.5773L30.7786 26.0482L40.9888 19.6114L54.1399 15.7271Z" fill="#ECECEC"/>
<path d="M97.6437 15.8389L104.857 17.7255L115.401 22.0538L127.053 31.3762L145.032 50.9087L145.539 52.6592L130.633 69.6922L127.331 70.3858L112.21 56.0416L107.133 43.695L96.5894 29.101L92.0947 25.4942L97.6437 15.8389Z" fill="#ECECEC"/>
<path d="M50.1895 42.5806L52.4591 48.6418V48.6509L55.3794 44.6306H54.069L52.8815 46.2755L51.5004 42.5806L50.1895 42.5806ZM57.7899 42.5806L55.7139 45.4399L56.145 46.6009H58.0013L58.3449 47.5072H54.2098L53.3918 48.6423H60.06L60.0595 48.6418L59.6376 47.5072H59.6367L58.8721 45.4572H57.0248L58.2387 43.7771L57.7899 42.5806ZM58.7049 42.5806L60.9745 48.6509L62.4349 46.6009H61.52H61.3354L61.1153 46.0026L60.97 45.6158H63.1294L63.842 44.6306H60.6L60.2268 43.6363H63.2091L63.2278 43.6268L62.9006 44.0852H64.2116L65.2846 42.5806L58.7049 42.5806ZM55.5558 42.5897L54.3419 44.261H55.6528L56.8667 42.5897H55.5558ZM66.1736 42.5897L65.3288 43.7598L65.1088 44.0852H65.451L65.9627 45.4485L66.3937 46.6009H66.3933L65.9622 45.4485H64.1063L63.2528 46.6009H65.5927L66.9738 48.6418H68.4515L67.0704 46.6009H67.0799L67.4754 46.0555L67.2467 45.4485L66.1736 42.5897ZM62.9626 46.9618V48.6418H64.2116V46.9618H62.9626Z" fill="#ECECEC"/>
<path d="M60.6287 17.9303C60.6287 17.9303 70.4752 18.7864 75.9629 18.7998C75.9765 18.7998 75.9891 18.7988 76.0026 18.7988C76.0161 18.7988 76.0282 18.7998 76.0418 18.7998C81.5228 18.7864 91.7595 17.7811 91.7844 17.7786C86.8536 28.3442 76.9712 31.4777 75.9857 31.7648C74.8685 31.4393 62.3239 27.4628 58.506 13.1413L54.2046 14.8127C54.2046 14.8127 59.1047 31.5974 75.8891 36.0662H76.0823C92.8669 31.5974 97.7668 14.8127 97.7668 14.8127L93.4649 13.1413C93.1079 14.4838 92.4642 16.4497 91.866 17.5881C92.494 16.1899 93.2485 13.4288 92.8858 13C92.8858 13 81.8601 14.7228 76.0418 14.712C76.0282 14.712 76.0161 14.7129 76.0026 14.7129C75.9891 14.7129 75.9765 14.712 75.9629 14.712C70.1446 14.7228 59.1094 13.0132 59.1094 13.0132C59.1094 13.0132 58.6612 13.8066 59.3668 15.6708C59.7433 16.6655 60.6287 17.9303 60.6287 17.9303Z" fill="#ECECEC" stroke="#1A1A1A" stroke-width="1.07131"/>
<path d="M54.6911 14.751L53.6617 15.0527C53.6617 15.0527 53.7118 15.2009 53.721 15.2308C49.281 16.2845 40.9534 18.563 35.1714 22.2672C31.0927 24.8825 25.5891 30.0446 20.7429 34.9173C15.8966 39.7901 11.7304 44.369 10.4718 45.7416H10.4713C9.21783 47.1087 7.90945 48.4442 7.02239 49.7059C6.57887 50.3368 6.23331 50.9502 6.07644 51.591C5.91969 52.2313 5.99223 52.9431 6.40406 53.5075L6.40453 53.5085L6.405 53.5089C7.0545 54.4021 12.1859 61.36 17.2507 66.3537V66.3541C18.8372 67.914 20.2901 69.2307 21.6519 70.1293C22.9004 70.9515 24.0272 70.7862 24.7901 70.7198C25.0559 70.6967 25.1548 70.6173 25.2854 70.5412C25.416 70.4652 25.548 70.3732 25.695 70.2633C25.989 70.0434 26.3388 69.7505 26.7371 69.3993C27.5337 68.697 28.5173 67.7656 29.5148 66.7929C31.5097 64.8478 33.5344 62.7642 34.1972 62.0221V62.0217C35.4933 60.573 36.6612 59.3713 37.5778 58.5882C38.0361 58.1966 38.4345 57.9105 38.7229 57.7557C38.822 57.7025 38.7842 57.7235 38.8473 57.7038C38.8726 57.8565 38.9129 57.9473 38.9129 58.6174C38.9129 59.5096 38.7266 64.2499 38.521 69.3806C38.3154 74.5114 38.0912 80.0878 38.0161 82.8706C37.9434 85.5662 37.1197 98.4946 36.6332 110.835C36.39 117.005 36.2304 123.039 36.2915 127.625C36.322 129.917 36.4066 131.845 36.5685 133.267C36.6494 133.979 36.7474 134.562 36.882 135.028C37.0166 135.494 37.1081 135.916 37.6461 136.17V136.17C38.0937 136.381 38.7192 136.535 39.6119 136.72C40.505 136.904 41.6374 137.098 42.9596 137.296C45.6041 137.692 49.0057 138.105 52.7117 138.48C60.1237 139.231 68.7435 139.831 74.9266 139.831H77.0733C83.2565 139.831 91.8782 139.229 99.2913 138.477C102.998 138.101 106.4 137.688 109.044 137.292C110.366 137.095 111.498 136.901 112.39 136.717C113.282 136.533 113.906 136.38 114.353 136.17C114.892 135.918 114.985 135.495 115.12 135.029C115.255 134.563 115.354 133.98 115.435 133.268C115.597 131.845 115.682 129.917 115.713 127.625C115.774 123.039 115.615 117.004 115.371 110.834C114.884 98.4941 114.058 85.5661 113.985 82.8706C113.909 80.0879 113.685 74.5093 113.479 69.3775C113.274 64.2456 113.087 59.5049 113.087 58.6174C113.087 57.9489 113.128 57.8559 113.153 57.7033C113.217 57.7231 113.181 57.7022 113.282 57.7562C113.57 57.9108 113.968 58.1963 114.426 58.5878C115.342 59.3708 116.507 60.5725 117.803 62.0217V62.0226V62.0235C118.467 62.7613 120.494 64.8472 122.488 66.7925C123.485 67.7651 124.468 68.6966 125.264 69.3989C125.662 69.7501 126.011 70.0434 126.305 70.2633C126.452 70.3733 126.584 70.4652 126.714 70.5413C126.845 70.6174 126.944 70.6968 127.21 70.7199H127.214L127.217 70.7204C127.975 70.7779 129.096 70.9438 130.345 70.1316L130.347 70.1302L130.35 70.1293C131.711 69.2308 133.165 67.9141 134.751 66.3541V66.3537C139.817 61.359 144.953 54.3822 145.595 53.5108V53.5098V53.5089C146.008 52.9443 146.08 52.2324 145.924 51.5915C145.767 50.9506 145.421 50.3368 144.978 49.7059C144.091 48.4441 142.782 47.1087 141.529 45.7416V45.7412V45.7407C140.267 44.3697 136.098 39.79 131.251 34.9173C126.405 30.0446 120.904 24.8829 116.83 22.2676C111.026 18.5416 102.619 16.2584 98.1976 15.2103C98.2048 15.1868 98.25 15.0526 98.25 15.0526L97.2229 14.751C97.2229 14.751 92.4063 31.2119 75.9576 35.6209H75.9513C59.5028 31.2119 54.6883 14.751 54.6883 14.751L54.6911 14.751ZM97.7557 16.4597C102.085 17.4839 110.554 19.8043 116.12 23.3781C119.981 25.8563 125.497 30.9999 130.319 35.8478C135.14 40.6957 139.289 45.2519 140.561 46.6343C141.832 48.0203 143.118 49.3497 143.902 50.4651C144.294 51.0229 144.553 51.5262 144.646 51.905C144.738 52.2837 144.706 52.4938 144.533 52.7297C143.89 53.6023 138.772 60.5384 133.828 65.4131C132.266 66.9483 130.852 68.217 129.628 69.0252C128.718 69.6172 128.184 69.4706 127.332 69.4047C127.455 69.418 127.438 69.433 127.382 69.4006C127.322 69.3656 127.221 69.2982 127.099 69.207C126.856 69.0245 126.523 68.7475 126.14 68.4096C125.375 67.7338 124.401 66.8121 123.413 65.8483C121.438 63.9212 119.385 61.8038 118.789 61.1422L118.787 61.1408C117.471 59.6701 116.285 58.4399 115.285 57.5848C114.785 57.1571 114.335 56.8222 113.907 56.5928C113.693 56.4783 113.472 56.4095 113.245 56.3691C112.614 54.1599 107.475 37.4925 92.829 25.2513C95.5277 21.6808 97.0494 18.2901 97.7552 16.4597L97.7557 16.4597ZM54.1671 16.4798C54.8801 18.3239 56.4129 21.7265 59.1242 25.3005C44.521 37.5397 39.395 54.1681 38.7661 56.37C38.5376 56.4098 38.3147 56.4776 38.0999 56.5928C37.6725 56.8221 37.2221 57.1572 36.7216 57.5848C35.7206 58.44 34.5308 59.6706 33.2143 61.1422V61.1426C32.6278 61.7994 30.5716 63.9203 28.5948 65.8478C27.6065 66.8116 26.6319 67.7338 25.8654 68.4096C25.4822 68.7475 25.1493 69.0245 24.9053 69.207C24.7833 69.2982 24.6826 69.3656 24.6224 69.4006C24.5622 69.4357 24.5119 69.4195 24.6766 69.4052C23.8209 69.4796 23.2943 69.6305 22.3791 69.0279V69.0274C21.1547 68.2194 19.7397 66.9496 18.177 65.4131C13.2319 60.5372 8.08996 53.5818 7.47167 52.7315L7.47121 52.7306L7.47074 52.7301C7.2984 52.4943 7.26593 52.2837 7.35865 51.9049C7.45137 51.5261 7.71011 51.0228 8.10229 50.465C8.88664 49.3494 10.1734 48.0197 11.4446 46.6333C12.7107 45.2526 16.8572 40.6956 21.6787 35.8478C26.5002 30.9999 32.0192 25.8562 35.884 23.378C41.4331 19.8231 49.8211 17.5094 54.1679 16.4797L54.1671 16.4798ZM92.013 26.2889C106.449 38.3725 111.459 54.9087 111.99 56.7792C111.987 56.785 111.979 56.7918 111.976 56.7974C111.805 57.1814 111.77 57.6113 111.77 58.6173C111.77 59.674 111.957 64.2978 112.163 69.4298C112.368 74.5618 112.593 80.1466 112.668 82.9061C112.745 85.7526 113.568 98.5689 114.054 110.887C114.298 117.045 114.456 123.068 114.396 127.607C114.365 129.876 114.279 131.778 114.126 133.118C114.049 133.789 113.954 134.32 113.855 134.661C113.756 135.002 113.575 135.078 113.794 134.975V134.976C113.605 135.065 112.981 135.249 112.126 135.425C111.271 135.601 110.158 135.792 108.851 135.987C106.238 136.378 102.851 136.79 99.1609 137.164C91.7797 137.913 83.173 138.512 77.0758 138.512H74.9292C68.8318 138.512 60.2273 137.915 52.8474 137.167C49.1574 136.794 45.771 136.382 43.1577 135.991C41.8511 135.795 40.7374 135.604 39.8819 135.427C39.0265 135.25 38.4017 135.066 38.2115 134.976V134.976C38.4326 135.08 38.2513 135.003 38.1527 134.662C38.0541 134.321 37.9587 133.789 37.8825 133.118C37.7301 131.778 37.6439 129.877 37.6137 127.607C37.5532 123.068 37.7117 117.045 37.9545 110.887C38.4401 98.5689 39.2612 85.7525 39.3379 82.9061C39.4124 80.1467 39.6371 74.5643 39.8428 69.4335C40.0484 64.3026 40.2355 59.678 40.2355 58.6173C40.2355 57.6072 40.2013 57.1791 40.0287 56.7933C40.0263 56.7905 40.0231 56.7875 40.0219 56.7847C40.5445 54.9412 45.5393 38.4269 59.9448 26.3363C63.3799 30.5295 68.4529 34.7369 75.7262 36.6735C75.7262 36.6735 75.7703 36.689 75.7932 36.6922C75.9031 36.7072 76.1259 36.6922 76.1259 36.6922L76.1951 36.6735C83.4961 34.7296 88.5801 30.4979 92.0153 26.2889L92.013 26.2889Z" fill="#1A1A1A"/>
</svg>
