<svg width="152" height="152" viewBox="0 0 152 152" fill="none" xmlns="http://www.w3.org/2000/svg">
<path d="M97.4884 15.6804C101.688 16.6442 110.852 19.0405 116.855 22.8782C124.864 27.9981 139.098 43.5963 141.655 46.364C144.204 49.1318 146.894 51.7226 145.713 53.332C145.065 54.2074 139.888 61.2018 134.836 66.1625C133.246 67.7188 131.799 69.0187 130.494 69.8764C129.402 70.5838 128.567 70.4246 127.75 70.3627C126.933 70.292 119.963 63.2445 118.693 61.8385C116.056 58.9028 113.942 56.9486 113.072 57.205C113.072 57.205 112.77 56.9044 112.77 58.8586C112.77 60.8128 113.525 77.6844 113.676 83.2552C113.827 88.826 117.006 135.011 114.431 136.213C111.864 137.416 89.479 139.83 77.0834 139.83H74.9168C62.5209 139.83 40.1443 137.425 37.5692 136.213C35.003 135.011 38.1731 88.826 38.324 83.2552C38.475 77.6844 39.2297 60.8216 39.2297 58.8586C39.2297 56.8955 38.9278 57.205 38.9278 57.205C38.0665 56.9486 35.9443 58.9028 33.307 61.8385C32.0461 63.2445 25.0668 70.292 24.2499 70.3627C23.4329 70.4335 22.5983 70.5926 21.5061 69.8764C20.2008 69.0187 18.7534 67.7188 17.1639 66.1625C12.1115 61.2018 6.92578 54.2074 6.28645 53.332C5.10546 51.7226 7.79598 49.1318 10.3444 46.364C12.8929 43.5963 27.1268 27.9981 35.1451 22.8782C41.1744 19.0317 50.3647 16.6265 54.547 15.6715C54.547 15.6715 67.9996 33.1975 75.9912 33.4362C83.9825 33.675 96.2097 13.5493 96.2097 13.5493L97.4884 15.6804Z" fill="#ECECEC"/>
<path d="M97.4884 15.6802C101.688 16.6441 110.852 19.0404 116.855 22.8781C124.864 27.9979 139.098 43.5962 141.655 46.3639C144.204 49.1316 146.894 51.7225 145.713 53.3318C145.065 54.2072 139.888 61.2017 134.836 66.1624C133.246 67.7187 131.799 69.0185 130.494 69.8763C129.402 70.5837 128.567 70.4245 127.75 70.3626C126.933 70.2919 119.963 63.2443 118.693 61.8384C116.056 58.9026 113.942 56.9484 113.072 57.2049C113.072 57.2049 112.77 56.9042 112.77 58.8584C112.77 60.8126 113.525 77.6842 113.676 83.255C113.827 88.8258 117.006 135.01 114.431 136.213C111.864 137.416 89.479 139.83 77.0834 139.83H74.9168C62.5209 139.83 40.1443 137.424 37.5692 136.213C35.003 135.01 38.1731 88.8258 38.324 83.255C38.475 77.6842 39.2297 60.8215 39.2297 58.8584C39.2297 56.8954 38.9278 57.2049 38.9278 57.2049C38.0665 56.9484 35.9443 58.9026 33.307 61.8384C32.0461 63.2443 25.0668 70.2919 24.2499 70.3626C23.4329 70.4333 22.5983 70.5925 21.5061 69.8763C20.2008 69.0185 18.7534 67.7187 17.1639 66.1624C12.1115 61.2017 6.92578 54.2072 6.28645 53.3318C5.10546 51.7225 7.79598 49.1316 10.3444 46.3639C12.8929 43.5962 27.1268 27.9979 35.1451 22.8781C41.1744 19.0316 50.3647 16.6264 54.547 15.6714" stroke="#1A1A1A" stroke-width="1.33194" stroke-miterlimit="10"/>
<path d="M38.937 57.214C38.937 57.214 41.814 33.1534 35.1543 22.8872" stroke="#1A1A1A" stroke-width="1.33194" stroke-miterlimit="10"/>
<path d="M112.868 57.214C112.868 57.214 109.991 33.1534 116.651 22.8872" stroke="#1A1A1A" stroke-width="1.33194" stroke-miterlimit="10"/>
<path d="M58.9243 16.9834L74.4655 19.0812L92.5902 16.9834L91.5568 20.9811L84.5215 28.9766L76.7311 31.7473L68.5034 29.6099L61.1502 22.6435L58.9243 16.9834Z" fill="#B3B3B3"/>
<path d="M58.0753 13C58.0753 13 68.5266 14.9984 75.719 14.9984C82.9111 14.9984 93.3624 13 93.3624 13L94.943 15.6528L91.6931 17.1825C88.5586 17.7219 81.0734 18.9157 75.5326 18.9157C70.1959 18.9157 63.0656 17.8192 59.7358 17.2444L56.4858 15.6439L58.0753 13Z" fill="#ECECEC"/>
<path d="M94.1617 13C94.1617 13 82.9113 14.9984 75.7188 14.9984C68.5263 14.9984 57.2759 13 57.2759 13" stroke="#1A1A1A" stroke-width="1.33194" stroke-miterlimit="10"/>
<path d="M58.9365 17.2533C62.2575 17.8192 70.1958 18.9245 75.5325 18.9245C81.0822 18.9245 89.3578 17.7396 92.4923 17.1914" stroke="#1A1A1A" stroke-width="1.33194" stroke-miterlimit="10"/>
<path d="M75.5318 35.3633C58.332 35.3633 52.9243 14.6363 52.9243 14.6363L57.4529 13.0093C58.3497 17.4659 62.0437 29.6863 75.0878 31.614C75.2298 31.6317 76.18 31.6317 76.3309 31.614C89.3754 29.6863 93.0693 17.4571 93.9661 13.0093L98.4947 14.6363C98.4947 14.6363 93.0871 35.3633 75.8869 35.3633H75.5318Z" fill="#ECECEC"/>
<path d="M75.5318 35.3633C58.332 35.3633 52.9243 14.6363 52.9243 14.6363L57.4529 13.0093C58.3497 17.4659 62.0437 29.6863 75.0878 31.614C75.2298 31.6317 76.18 31.6317 76.3309 31.614C89.3754 29.6863 93.0693 17.4571 93.9661 13.0093L98.4947 14.6363C98.4947 14.6363 93.0871 35.3633 75.8869 35.3633H75.5318Z" stroke="#1A1A1A" stroke-width="1.33194" stroke-miterlimit="10"/>
</svg>
