<svg width="607" height="552" viewBox="0 0 607 552" fill="none" xmlns="http://www.w3.org/2000/svg">
<path d="M312.068 128.294L205.956 37.5436L229.659 16.5981H394.44L312.068 128.294Z" fill="#B3B3B3"/>
<path d="M396.405 17.3613C414.401 21.4898 452.483 32.4527 478.203 48.8907C512.521 70.8208 572.879 139.194 583.837 151.049C594.756 162.904 606.284 174.002 601.224 180.895C598.447 184.645 576.265 214.604 554.617 235.853C547.806 242.519 541.605 248.087 536.012 251.761C531.332 254.791 527.756 254.109 524.255 253.844C520.755 253.541 490.888 223.354 485.447 217.331C474.148 204.757 465.092 196.386 461.364 197.485C461.364 197.485 460.07 196.197 460.07 204.567C460.07 212.938 463.304 285.205 463.951 309.066C464.598 332.928 478.27 527.097 467.236 532.248C456.24 537.399 363.739 548.019 310.625 548.019H298.342C245.229 548.019 148.817 537.437 137.783 532.248C126.788 527.097 140.438 332.928 141.085 309.066C141.732 285.205 144.966 212.976 144.966 204.567C144.966 196.159 142.703 195.154 142.703 195.154C139.013 194.056 128.517 203.274 118.613 216.038C113.211 222.06 86.3389 248.235 82.351 250.318C79.3282 248.235 74.2181 253.386 69.5383 250.318C63.9454 246.644 59.668 241.051 52.8576 234.385C31.209 213.137 7.48886 181.886 4.74948 178.137C-0.310751 171.243 10.0272 161.022 20.9466 149.167C31.8661 137.312 93.1078 72.3811 127.464 50.4511C153.298 33.9751 192.677 23.6729 210.597 19.5824C210.597 19.5824 268.238 94.652 302.48 95.6747C336.722 96.6973 389.113 10.4922 389.113 10.4922L396.405 17.3613Z" fill="#ECECEC"/>
<path d="M228.022 3.92822C228.022 3.92822 272.804 12.4881 303.621 12.4881C334.439 12.4881 379.221 3.92822 379.221 3.92822L385.993 15.2909L372.068 21.8434C358.637 24.1539 326.564 29.2671 302.823 29.2671C279.956 29.2671 249.405 24.5705 235.137 22.1086L221.212 15.2531L228.022 3.92822Z" fill="#DCDDDD"/>
<path d="M380.494 3C380.494 3 334.44 12.4878 303.622 12.4878C272.804 12.4878 226.705 3.00533 226.705 3.00533" stroke="#1A1A1A" stroke-width="5.70916" stroke-miterlimit="10"/>
<path d="M231.712 22.1465C245.941 24.5705 279.955 29.305 302.822 29.305C326.601 29.305 362.061 24.2296 375.491 21.8813" stroke="#1A1A1A" stroke-width="5.70916" stroke-miterlimit="10"/>
<path d="M395.657 17.3348C413.653 21.4632 452.918 31.7275 478.637 48.1656C512.956 70.0956 573.945 136.908 584.902 148.763C595.822 160.619 607.35 171.716 602.29 178.61C599.512 182.359 577.331 212.319 555.682 233.567C548.872 240.233 542.67 245.801 537.077 249.475C532.398 252.505 528.821 251.823 525.321 251.558C521.821 251.255 491.954 221.068 486.513 215.046C475.213 202.471 466.158 194.101 462.429 195.199C462.429 195.199 461.136 193.911 461.136 202.282C461.136 210.652 464.37 282.919 465.017 306.781C465.663 330.643 479.284 528.468 468.251 533.619C457.255 538.77 361.339 549.11 308.225 549.11H298.942C245.828 549.11 149.95 538.808 138.917 533.619C127.921 528.468 141.504 330.643 142.151 306.781C142.797 282.919 146.031 210.69 146.031 202.282C146.031 193.873 144.738 195.199 144.738 195.199C141.047 194.101 131.954 202.471 120.654 215.046C115.251 221.068 85.3465 251.255 81.8462 251.558C78.3458 251.861 74.7694 252.543 70.0897 249.475C64.4968 245.801 58.2951 240.233 51.4847 233.567C29.836 212.319 7.61665 182.359 4.87727 178.61C-0.182968 171.716 11.3452 160.619 22.2647 148.763C33.1842 136.908 94.1734 70.0956 128.53 48.1656C154.364 31.6896 193.742 21.3875 211.662 17.2969" stroke="#1A1A1A" stroke-width="5.70916" stroke-miterlimit="10"/>
<path d="M144.776 195.238C144.776 195.238 157.103 92.1783 128.568 48.2046" stroke="#1A1A1A" stroke-width="5.70916" stroke-miterlimit="10"/>
<path d="M461.553 195.238C461.553 195.238 449.226 92.1783 477.761 48.2046" stroke="#1A1A1A" stroke-width="5.70916" stroke-miterlimit="10"/>
<path d="M302.823 99.7151C229.127 99.7151 205.956 10.9345 205.956 10.9345L225.36 3.96533C229.203 23.0547 245.03 75.3989 300.921 83.6558C301.53 83.7316 305.601 83.7316 306.248 83.6558C362.139 75.3989 377.966 23.0168 381.809 3.96533L401.213 10.9345C401.213 10.9345 378.042 99.7151 304.345 99.7151H302.823Z" fill="#DCDDDD"/>
<path d="M302.823 99.7151C229.127 99.7151 205.956 10.9345 205.956 10.9345L225.36 3.96533C229.203 23.0547 245.03 75.3989 300.921 83.6558C301.53 83.7316 305.601 83.7316 306.248 83.6558C362.139 75.3989 377.966 23.0168 381.809 3.96533L401.213 10.9345C401.213 10.9345 378.042 99.7151 304.345 99.7151H302.823Z" stroke="#1A1A1A" stroke-width="5.70916" stroke-miterlimit="10"/>
</svg>
