<svg width="601" height="552" viewBox="0 0 601 552" fill="none" xmlns="http://www.w3.org/2000/svg">
<path d="M300.303 130.827L194.378 40.237L218.039 19.3286H382.529L300.303 130.827Z" fill="#B3B3B3"/>
<path d="M392.716 17.334C407.675 20.7423 437.592 28.5436 462.019 40.6621C466.753 43.0101 476.41 51.8339 472.623 65.9595C467.699 97.6949 458.08 164.385 458.08 202.331C458.08 210.7 461.299 282.957 461.943 306.815C462.587 330.673 476.144 528.47 465.162 533.621C454.218 538.771 358.746 549.11 305.879 549.11H295.919C243.052 549.11 147.619 538.809 136.637 533.621C125.692 528.47 139.212 330.673 139.856 306.815C140.499 282.957 143.718 210.738 143.718 202.331C143.718 164.385 134.099 97.7328 129.176 65.9595C125.389 51.8339 135.046 43.0101 139.78 40.6621C164.206 28.5436 194.124 20.7802 209.083 17.334C209.083 17.334 248.733 99.702 301.297 99.702C353.861 99.702 392.716 17.334 392.716 17.334Z" fill="#ECECEC"/>
<path d="M225.291 3.96582C225.291 3.96582 269.864 12.5245 300.539 12.5245C331.214 12.5245 375.788 3.96582 375.788 3.96582L382.529 15.3269L368.668 21.8785C355.3 24.1886 323.375 29.3011 299.744 29.3011C276.984 29.3011 246.574 24.6052 232.373 22.1436L218.512 15.2891L225.291 3.96582Z" fill="#DCDDDD"/>
<path d="M376.842 3C376.842 3 331.214 12.5246 300.539 12.5246C269.864 12.5246 224.238 3.01573 224.238 3.01573" stroke="#1A1A1A" stroke-width="5.68056" stroke-miterlimit="10"/>
<path d="M229.003 22.1831C243.166 24.6068 277.023 29.3406 299.783 29.3406C323.452 29.3406 358.747 24.2659 372.115 21.918" stroke="#1A1A1A" stroke-width="5.68056" stroke-miterlimit="10"/>
<path d="M209.083 17.334C194.124 20.7423 164.206 28.5436 139.78 40.6621C135.046 43.0101 125.389 51.8339 129.176 65.9595C134.099 97.6949 143.718 164.385 143.718 202.331C143.718 210.7 140.499 282.957 139.856 306.815C139.212 330.673 125.654 528.47 136.637 533.621C147.581 538.771 243.052 549.11 295.919 549.11H305.879C358.746 549.11 454.18 538.809 465.162 533.621C476.107 528.47 462.587 330.673 461.943 306.815C461.299 282.957 458.08 210.738 458.08 202.331C458.08 164.385 467.699 97.7328 472.623 65.9595C476.41 51.8339 466.753 43.0101 462.019 40.6621C437.592 28.5436 407.675 20.7802 392.716 17.334" stroke="#1A1A1A" stroke-width="5.68056" stroke-miterlimit="10"/>
<path d="M299.782 99.7392C226.427 99.7392 203.364 10.9711 203.364 10.9711L222.678 4.00293C226.503 23.0896 242.257 75.4265 297.889 83.6822C298.495 83.7579 302.547 83.7579 303.191 83.6822C358.822 75.4265 374.576 23.0517 378.401 4.00293L397.715 10.9711C397.715 10.9711 374.652 99.7392 301.297 99.7392H299.782Z" fill="#DCDDDD"/>
<path d="M299.782 99.7392C226.427 99.7392 203.364 10.9711 203.364 10.9711L222.678 4.00293C226.503 23.0896 242.257 75.4265 297.889 83.6822C298.495 83.7579 302.547 83.7579 303.191 83.6822C358.822 75.4265 374.576 23.0517 378.401 4.00293L397.715 10.9711C397.715 10.9711 374.652 99.7392 301.297 99.7392H299.782Z" stroke="#1A1A1A" stroke-width="5.68056" stroke-miterlimit="10"/>
</svg>
