<svg width="152" height="152" viewBox="0 0 152 152" fill="none" xmlns="http://www.w3.org/2000/svg">
<path d="M59.4692 17.1739L73.2921 18.9205L90.7579 17.5731L93.752 16.8745L89.0113 25.1084L82.3244 30.3481L75.5876 31.7953L66.9546 28.4518L61.2657 21.9146L59.4692 17.1739Z" fill="#B3B3B3"/>
<path d="M97.5135 16.1104C100.994 16.9033 107.954 18.7183 113.637 21.5377C114.738 22.084 116.985 24.1369 116.104 27.4233C114.959 34.8066 112.721 50.3223 112.721 59.1506C112.721 61.0977 113.47 77.9085 113.619 83.4592C113.769 89.0099 116.923 135.028 114.368 136.226C111.822 137.425 89.6104 139.83 77.311 139.83H74.9937C62.6941 139.83 40.4911 137.433 37.936 136.226C35.3897 135.028 38.5351 89.0099 38.6848 83.4592C38.8346 77.9085 39.5835 61.1065 39.5835 59.1506C39.5835 50.3223 37.3456 34.8154 36.2002 27.4233C35.3192 24.1369 37.5659 22.084 38.6672 21.5377C44.3501 18.7183 51.3106 16.9121 54.7908 16.1104C54.7908 16.1104 64.0156 35.2736 76.2448 35.2736C88.4738 35.2736 97.5135 16.1104 97.5135 16.1104Z" fill="#ECECEC"/>
<path d="M58.562 13C58.562 13 68.9322 14.9912 76.0688 14.9912C83.205 14.9912 93.5752 13 93.5752 13L95.1435 15.6432L91.9188 17.1675C88.8086 17.7049 81.3817 18.8943 75.8838 18.8943C70.5886 18.8943 63.5136 17.8018 60.2096 17.2291L56.9849 15.6344L58.562 13Z" fill="#DCDDDD"/>
<path d="M94.3681 13C94.3681 13 83.2049 14.9912 76.0684 14.9912C68.9317 14.9912 57.7686 13 57.7686 13" stroke="#1A1A1A" stroke-width="1.3216" stroke-miterlimit="10"/>
<path d="M59.4253 17.2384C62.7205 17.8023 70.5972 18.9037 75.8925 18.9037C81.3991 18.9037 89.6107 17.723 92.7209 17.1768" stroke="#1A1A1A" stroke-width="1.3216" stroke-miterlimit="10"/>
<path d="M54.7908 16.1104C51.3106 16.9033 44.3501 18.7183 38.6672 21.5377C37.5659 22.084 35.3192 24.1369 36.2002 27.4233C37.3456 34.8066 39.5835 50.3223 39.5835 59.1506C39.5835 61.0977 38.8346 77.9085 38.6848 83.4592C38.5351 89.0099 35.3809 135.028 37.936 136.226C40.4823 137.425 62.694 139.83 74.9937 139.83H77.311C89.6104 139.83 111.813 137.433 114.368 136.226C116.915 135.028 113.769 89.0099 113.619 83.4592C113.47 77.9085 112.721 61.1065 112.721 59.1506C112.721 50.3223 114.959 34.8154 116.104 27.4233C116.985 24.1369 114.738 22.084 113.637 21.5377C107.954 18.7183 100.994 16.9121 97.5135 16.1104" stroke="#1A1A1A" stroke-width="1.3216" stroke-miterlimit="10"/>
<path d="M75.8929 35.2827C58.8266 35.2827 53.4609 14.6304 53.4609 14.6304L57.9544 13.0093C58.8443 17.4499 62.5095 29.6262 75.4524 31.547C75.5934 31.5646 76.5361 31.5646 76.6859 31.547C89.6284 29.6262 93.2936 17.4411 94.1835 13.0093L98.6769 14.6304C98.6769 14.6304 93.3112 35.2827 76.2454 35.2827H75.8929Z" fill="#DCDDDD"/>
<path d="M75.8929 35.2827C58.8266 35.2827 53.4609 14.6304 53.4609 14.6304L57.9544 13.0093C58.8443 17.4499 62.5095 29.6262 75.4524 31.547C75.5934 31.5646 76.5361 31.5646 76.6859 31.547C89.6284 29.6262 93.2936 17.4411 94.1835 13.0093L98.6769 14.6304C98.6769 14.6304 93.3112 35.2827 76.2454 35.2827H75.8929Z" stroke="#1A1A1A" stroke-width="1.3216" stroke-miterlimit="10"/>
</svg>
