<svg width="135" height="149" viewBox="0 0 135 149" fill="none" xmlns="http://www.w3.org/2000/svg">
<path d="M25.4087 2.2793H44.0089V99.0002" stroke="white" stroke-width="4.5" stroke-miterlimit="10"/>
<path d="M109.73 2.27905H69.1191V94.6599H109.73V2.27905Z" stroke="white" stroke-width="4.5" stroke-miterlimit="10"/>
<path d="M8.0487 147.336C4.6887 147.336 1.9527 144.504 1.9527 138.504C1.9527 131.736 5.1207 129.024 8.6247 129.024C10.5927 129.024 12.0327 129.84 13.0407 130.92L11.5287 132.6C10.8807 131.832 9.8007 131.28 8.7687 131.28C6.4167 131.28 4.5207 133.104 4.5207 138.504C4.5207 143.064 5.8647 145.2 8.0247 145.2C9.5607 145.2 10.7607 143.808 10.7607 141.528C10.7607 139.248 9.7287 137.976 7.8567 137.976C6.8007 137.976 5.5287 138.6 4.4727 140.208L4.3527 138.192C5.3847 136.8 7.0167 135.984 8.3367 135.984C11.3127 135.984 13.3287 137.784 13.3287 141.528C13.3287 145.032 10.9047 147.336 8.0487 147.336ZM18.5322 147.252C17.8842 147.252 17.3622 146.73 17.3622 145.992C17.3622 145.236 17.8842 144.732 18.5322 144.732C19.1982 144.732 19.7382 145.236 19.7382 145.992C19.7382 146.73 19.1982 147.252 18.5322 147.252ZM32.848 145.542H37.744V146.856H32.848V145.542ZM22.912 135.3H29.824V136.614H22.912V135.3ZM32.236 134.13H38.392V148.044H37.024V135.426H33.55V148.17H32.236V134.13ZM29.464 135.3H30.778C30.778 135.3 30.778 135.804 30.778 135.984C30.634 143.994 30.508 146.622 29.932 147.414C29.608 147.882 29.284 148.044 28.744 148.098C28.24 148.17 27.412 148.17 26.602 148.116C26.584 147.72 26.44 147.126 26.206 146.748C27.052 146.82 27.826 146.82 28.168 146.82C28.438 146.838 28.6 146.784 28.762 146.55C29.176 145.992 29.338 143.328 29.464 135.624V135.3ZM25.468 132.132H26.782C26.764 138.774 26.674 145.02 23.506 148.458C23.272 148.152 22.804 147.738 22.462 147.54C25.468 144.372 25.45 138.432 25.468 132.132ZM44.944 132.978H50.038V134.346H44.944V132.978ZM49.354 132.978H50.74C50.74 136.2 51.136 143.04 58.246 147.252C57.94 147.486 57.4 148.062 57.148 148.386C49.948 144.03 49.354 136.362 49.354 132.978ZM48.85 136.506L50.38 136.794C49.084 142.284 46.708 146.082 42.73 148.422C42.478 148.134 41.866 147.576 41.506 147.324C45.502 145.236 47.752 141.6 48.85 136.506ZM66.526 135.03H77.002V136.272H66.526V135.03ZM70.954 131.898H72.268V146.766C72.268 147.576 72.052 147.972 71.548 148.188C71.026 148.422 70.216 148.458 68.776 148.458C68.722 148.116 68.488 147.522 68.29 147.162C69.352 147.198 70.27 147.18 70.558 147.18C70.828 147.162 70.954 147.072 70.954 146.766V131.898ZM65.824 145.47C67.12 144.426 69.262 142.554 71.188 140.79L71.674 141.762C69.982 143.49 68.11 145.29 66.67 146.64L65.824 145.47ZM66.796 137.892L67.858 137.406C68.65 138.432 69.514 139.836 69.838 140.754L68.722 141.294C68.416 140.376 67.588 138.954 66.796 137.892ZM75.58 137.298L76.75 137.928C75.76 139.296 74.5 140.934 73.474 141.96L72.538 141.402C73.51 140.34 74.842 138.576 75.58 137.298ZM73.132 132.798L73.924 132.096C74.698 132.618 75.634 133.428 76.084 133.986L75.274 134.796C74.824 134.184 73.924 133.356 73.132 132.798ZM72.214 136.578C72.898 141.384 74.194 143.94 77.29 146.118C76.984 146.37 76.624 146.784 76.444 147.162C73.168 144.732 71.818 141.888 71.08 136.776L72.214 136.578ZM60.568 133.104H66.112V134.382H60.568V133.104ZM60.712 138.306H65.824V139.584H60.712V138.306ZM60.352 145.254C61.846 144.858 64.078 144.156 66.256 143.472L66.454 144.714C64.42 145.362 62.296 146.046 60.658 146.568L60.352 145.254ZM62.746 133.68H64.006V144.822L62.746 145.074V133.68ZM79.738 134.814H95.578V136.11H79.738V134.814ZM94.012 137.658L95.146 138.468C93.814 139.908 92.014 141.564 90.592 142.644L89.62 141.834C91.006 140.79 92.896 139.026 94.012 137.658ZM88.792 135.48C89.638 140.7 91.276 144.048 96.046 146.802C95.686 147.072 95.254 147.576 95.092 147.99C90.088 144.84 88.432 141.186 87.532 135.714L88.792 135.48ZM87.01 135.156L88.378 135.678C86.542 138.522 83.41 141.168 80.008 142.752C79.864 142.428 79.486 141.87 79.252 141.6C82.456 140.178 85.552 137.658 87.01 135.156ZM83.068 148.404L82.96 147.144L83.626 146.604L89.602 144.768C89.656 145.164 89.8 145.704 89.908 146.01C84.238 147.81 83.536 148.062 83.068 148.404ZM86.398 132.222L87.748 131.808C88.252 132.618 88.774 133.716 88.954 134.418L87.532 134.904C87.352 134.166 86.866 133.05 86.398 132.222ZM83.068 148.404C82.942 148.098 82.582 147.576 82.348 147.324C82.69 147.108 83.32 146.604 83.32 145.74V139.386H84.688V146.766C84.688 146.766 83.068 147.864 83.068 148.404ZM100.168 133.698V136.398H103.264V133.698H100.168ZM99.142 132.672H104.344V137.424H99.142V132.672ZM98.278 138.846H104.776V140.034H98.278V138.846ZM99.97 139.35H101.14C100.924 140.556 100.6 142.032 100.348 142.968H99.16C99.448 141.978 99.772 140.502 99.97 139.35ZM100.096 141.87H103.354V142.968H99.808L100.096 141.87ZM102.886 141.87H104.074C104.074 141.87 104.056 142.23 104.038 142.41C103.768 145.92 103.534 147.27 103.048 147.774C102.76 148.098 102.49 148.206 102.004 148.242C101.644 148.278 100.924 148.278 100.204 148.224C100.186 147.882 100.078 147.396 99.88 147.09C100.582 147.144 101.248 147.162 101.518 147.162C101.788 147.162 101.95 147.126 102.076 146.982C102.418 146.64 102.652 145.38 102.886 142.068V141.87ZM109.726 133.122H114.046V134.238H109.726V133.122ZM106.18 135.462H114.064V136.56H106.18V135.462ZM105.568 135.462H106.756V140.052C106.756 142.554 106.522 146.082 104.92 148.476C104.722 148.242 104.218 147.882 103.93 147.738C105.406 145.488 105.568 142.356 105.568 140.052V135.462ZM107.134 138.36L112.552 137.82L112.66 138.774L107.26 139.332L107.134 138.36ZM113.704 135.462H113.884L114.1 135.408L114.928 135.624C114.712 136.686 114.406 137.946 114.172 138.738L113.146 138.486C113.344 137.748 113.578 136.578 113.704 135.624V135.462ZM108.196 142.302H109.348C109.24 145.2 108.772 147.234 106.81 148.44C106.666 148.152 106.324 147.738 106.054 147.54C107.746 146.55 108.088 144.804 108.196 142.302ZM110.878 142.302H112.03V146.478C112.03 146.604 112.048 146.73 112.174 146.766C112.246 146.838 112.39 146.856 112.552 146.856C112.696 146.856 112.966 146.856 113.164 146.856C113.344 146.856 113.56 146.838 113.65 146.766C113.74 146.712 113.848 146.568 113.884 146.388C113.92 146.1 113.956 145.398 113.938 144.57C114.172 144.786 114.604 145.038 114.946 145.128C114.928 145.974 114.856 146.874 114.766 147.198C114.658 147.522 114.478 147.738 114.226 147.882C113.992 147.99 113.596 148.062 113.272 148.062C113.038 148.062 112.48 148.062 112.3 148.062C111.904 148.062 111.49 147.99 111.238 147.774C110.95 147.54 110.878 147.27 110.878 146.46V142.302ZM109.114 131.88H110.41V136.038H109.114V131.88ZM109.042 136.668H110.212V139.728C110.212 140.178 110.266 140.34 110.644 140.34C110.932 140.34 112.264 140.34 112.57 140.34C112.894 140.34 113.434 140.322 113.668 140.25C113.704 140.592 113.74 140.97 113.794 141.258C113.542 141.348 113.074 141.366 112.624 141.366C112.264 141.366 110.734 141.366 110.446 141.366C109.294 141.366 109.042 140.862 109.042 139.692V136.668ZM117.322 132.744H123.928V133.986H117.322V132.744ZM119.176 138.36H123.262V146.136H119.176V144.948H122.056V139.548H119.176V138.36ZM119.5 133.338L120.796 133.536C120.238 137.316 119.32 140.862 117.682 143.22C117.556 142.932 117.142 142.284 116.89 141.996C118.312 139.944 119.068 136.722 119.5 133.338ZM118.582 138.36H119.77V147.63H118.582V138.36ZM125.368 135.48H132.658V136.578H125.368V135.48ZM125.368 138.252H132.658V139.368H125.368V138.252ZM124.702 141.078H132.604V142.266H124.702V141.078ZM128.428 133.266H129.652V141.582H128.428V133.266ZM126.196 143.706L127.132 143.562C127.348 144.642 127.474 145.992 127.456 146.874L126.466 147.036C126.502 146.136 126.394 144.768 126.196 143.706ZM128.104 143.562L128.986 143.328C129.364 144.192 129.706 145.344 129.85 146.082L128.914 146.352C128.806 145.614 128.464 144.444 128.104 143.562ZM129.922 143.166L130.642 142.86C131.164 143.508 131.686 144.408 131.92 144.966L131.11 145.344C130.894 144.75 130.39 143.85 129.922 143.166ZM124.45 143.148L125.476 143.4C125.296 144.966 124.954 146.64 124.09 147.63L123.136 147.09C123.928 146.19 124.288 144.624 124.45 143.148ZM124.702 132.654H133.108V133.842H125.944V141.672H124.702V132.654ZM132.208 141.078H133.45C133.45 141.078 133.45 141.456 133.432 141.636C133.234 145.866 133.036 147.414 132.568 147.936C132.28 148.278 131.974 148.404 131.488 148.44C131.074 148.476 130.3 148.476 129.508 148.44C129.49 148.08 129.364 147.594 129.166 147.252C129.94 147.324 130.66 147.342 130.93 147.342C131.218 147.342 131.362 147.306 131.506 147.144C131.83 146.784 132.046 145.308 132.208 141.294V141.078Z" fill="white"/>
</svg>
