<svg width="138" height="154" viewBox="0 0 138 154" fill="none" xmlns="http://www.w3.org/2000/svg">
<path d="M69.0306 20.8131C82.3607 20.8131 88.8708 2.52289 88.8708 2.52289C88.8708 2.52289 107.161 6.86293 112.431 11.513C117.701 16.163 134.751 35.6932 134.751 35.6932L116.771 52.7434C116.771 52.7434 109.641 46.2333 108.401 44.9933C105.921 42.2033 104.061 40.3432 103.131 40.6532C103.131 40.6532 102.821 40.3432 102.821 42.2033C102.821 44.0633 103.441 59.5634 103.751 64.8335C103.751 70.1035 106.851 112.574 104.371 113.814H33.6903C31.2103 112.574 34.3103 70.1035 34.3103 64.8335C34.3103 59.5634 35.2403 44.0633 35.2403 42.2033C35.2403 40.3432 34.9303 40.6532 34.9303 40.6532C34.0003 40.3432 32.1403 42.2033 29.6602 44.9933C28.4202 46.2333 21.2902 52.7434 21.2902 52.7434L3 35.3832C3 35.3832 20.0502 15.853 25.3202 11.203C30.5903 6.55293 48.8804 2.21289 48.8804 2.21289C48.8804 2.21289 55.7005 20.8131 69.0306 20.8131Z" stroke="white" stroke-width="3.5" stroke-miterlimit="10"/>
<path d="M4.15137 152V149.72H8.03937V137.432H4.84737V135.68C6.52737 135.392 7.67937 134.96 8.71137 134.336H10.7994V149.72H14.2554V152H4.15137ZM19.9629 152.252C19.3149 152.252 18.7929 151.73 18.7929 150.992C18.7929 150.236 19.3149 149.732 19.9629 149.732C20.6289 149.732 21.1689 150.236 21.1689 150.992C21.1689 151.73 20.6289 152.252 19.9629 152.252ZM29.4186 144.566H39.8766V145.61H29.4186V144.566ZM28.6626 147.284H40.4526V148.328H28.6626V147.284ZM31.9206 143.27H33.1806V147.86H31.9206V143.27ZM35.9886 143.27H37.2486V147.86H35.9886V143.27ZM35.5206 149.084L36.4206 148.472C37.7706 149.102 39.2826 149.948 40.1466 150.614L38.9586 151.244C38.1846 150.56 36.8346 149.714 35.5206 149.084ZM32.5146 148.49L33.7206 148.904C32.7666 149.804 31.2906 150.722 30.0666 151.28C29.8146 151.064 29.3286 150.65 29.0226 150.452C30.2826 149.966 31.6686 149.228 32.5146 148.49ZM29.8146 137.6H34.0986V140.66H29.8146V139.724H32.9286V138.518H29.8146V137.6ZM35.5566 137.618H39.9306V140.678H35.5566V139.742H38.7426V138.536H35.5566V137.618ZM35.0346 137.618H36.1506V141.29C36.1506 141.794 36.2226 141.956 36.6366 141.956C36.9966 141.956 38.7066 141.956 39.0666 141.956C39.4086 141.956 39.9486 141.938 40.2546 141.884C40.2726 142.172 40.3086 142.586 40.3626 142.856C40.0926 142.91 39.6066 142.946 39.1206 142.946C38.7066 142.946 36.8706 142.946 36.5826 142.946C35.3406 142.946 35.0346 142.496 35.0346 141.272V137.618ZM29.3106 143.396L29.2746 142.514L29.8326 142.136L34.2606 141.434C34.2066 141.722 34.1526 142.172 34.1526 142.406C30.1566 143.126 29.6166 143.234 29.3106 143.396ZM29.3106 143.396C29.2386 143.108 28.9866 142.586 28.8246 142.316C29.0406 142.208 29.2926 141.974 29.2926 141.29V137.6H30.3906V142.388C30.3906 142.388 29.3106 143 29.3106 143.396ZM24.5946 137.6L25.5846 136.988C26.4126 137.87 27.4206 139.022 27.9246 139.742L26.8626 140.48C26.3946 139.742 25.3866 138.482 24.5946 137.6ZM24.2346 141.056H27.5106V142.19H24.2346V141.056ZM27.3306 149.3C28.4466 151.658 30.8226 151.982 34.4406 151.982C36.3486 151.982 39.0126 151.892 40.8666 151.73C40.6506 152.036 40.4886 152.666 40.4166 153.044C38.7066 153.134 36.4206 153.188 34.4226 153.188C30.1746 153.188 27.7986 152.702 26.4306 149.714L27.3306 149.3ZM27.3126 145.538H27.6366L27.8706 145.502L28.5546 145.754C27.9966 149.534 26.6466 152.09 24.8106 153.494C24.6306 153.206 24.1806 152.756 23.9106 152.558C25.6566 151.316 26.8626 149.012 27.3126 145.772V145.538ZM24.5226 146.888V145.862L25.1706 145.538H27.6726V146.636H25.5486C25.1346 146.636 24.6666 146.762 24.5226 146.888ZM24.5226 146.888C24.4506 146.582 24.1806 145.952 24.0366 145.682C24.2886 145.61 24.5586 145.502 24.8286 145.142C25.2966 144.638 26.7186 142.118 27.2046 141.182V141.128L27.5826 140.966L28.4826 141.308C27.7806 142.532 26.3946 144.908 25.5306 146.042C25.5306 146.042 24.5226 146.528 24.5226 146.888ZM56.0046 138.536V140.426H57.8406V138.536H56.0046ZM53.1246 138.536V140.426H54.9246V138.536H53.1246ZM50.3166 138.536V140.426H52.0446V138.536H50.3166ZM49.2186 137.546H58.9746V141.398H49.2186V137.546ZM49.4166 142.46H58.6146V143.504H49.4166V142.46ZM48.6246 144.782H59.1906V145.844H48.6246V144.782ZM49.0026 147.554H58.8126V148.616H49.0026V147.554ZM48.3906 149.912H59.4426V150.974H48.3906V149.912ZM53.3046 141.092H54.5826V145.196H53.3046V141.092ZM53.3046 148.022H54.5826V153.44H53.3046V148.022ZM50.7666 146.096L51.9006 145.826C52.1706 146.348 52.4946 147.05 52.6206 147.5L51.4506 147.842C51.3426 147.356 51.0546 146.636 50.7666 146.096ZM56.1126 145.79L57.3906 146.132C56.9766 146.852 56.5626 147.626 56.2026 148.148L55.1946 147.824C55.5006 147.248 55.9146 146.384 56.1126 145.79ZM42.9186 146.186C44.2506 145.808 46.2486 145.178 48.1926 144.548L48.3726 145.772C46.5906 146.402 44.7186 147.014 43.2606 147.5L42.9186 146.186ZM43.1166 140.516H48.3726V141.776H43.1166V140.516ZM45.2946 136.898H46.5546V151.802C46.5546 152.522 46.3746 152.9 45.9246 153.116C45.5106 153.332 44.8086 153.368 43.6746 153.368C43.6206 153.026 43.4586 152.468 43.2786 152.09C44.0706 152.126 44.7546 152.126 44.9706 152.108C45.1866 152.108 45.2946 152.036 45.2946 151.802V136.898ZM62.2686 139.814H78.1086V141.11H62.2686V139.814ZM76.5426 142.658L77.6766 143.468C76.3446 144.908 74.5446 146.564 73.1226 147.644L72.1506 146.834C73.5366 145.79 75.4266 144.026 76.5426 142.658ZM71.3226 140.48C72.1686 145.7 73.8066 149.048 78.5766 151.802C78.2166 152.072 77.7846 152.576 77.6226 152.99C72.6186 149.84 70.9626 146.186 70.0626 140.714L71.3226 140.48ZM69.5406 140.156L70.9086 140.678C69.0726 143.522 65.9406 146.168 62.5386 147.752C62.3946 147.428 62.0166 146.87 61.7826 146.6C64.9866 145.178 68.0826 142.658 69.5406 140.156ZM65.5986 153.404L65.4906 152.144L66.1566 151.604L72.1326 149.768C72.1866 150.164 72.3306 150.704 72.4386 151.01C66.7686 152.81 66.0666 153.062 65.5986 153.404ZM68.9286 137.222L70.2786 136.808C70.7826 137.618 71.3046 138.716 71.4846 139.418L70.0626 139.904C69.8826 139.166 69.3966 138.05 68.9286 137.222ZM65.5986 153.404C65.4726 153.098 65.1126 152.576 64.8786 152.324C65.2206 152.108 65.8506 151.604 65.8506 150.74V144.386H67.2186V151.766C67.2186 151.766 65.5986 152.864 65.5986 153.404ZM88.9266 137.978H97.0986V139.256H88.9266V137.978ZM88.9806 142.64H95.8926V143.882H88.9806V142.64ZM88.2786 137.978H89.5746V143.054C89.5746 146.096 89.2506 150.488 87.0726 153.404C86.8566 153.152 86.2986 152.738 85.9926 152.594C88.0626 149.822 88.2786 145.916 88.2786 143.036V137.978ZM90.7626 143.468C91.8426 147.554 94.0746 150.938 97.5666 152.36C97.2606 152.63 96.8466 153.134 96.6486 153.476C93.0486 151.802 90.8166 148.238 89.6286 143.738L90.7626 143.468ZM95.6046 142.64H95.8386L96.0726 142.586L96.9006 142.856C95.8746 148.346 93.0126 151.748 89.5206 153.422C89.3406 153.116 88.9806 152.612 88.6926 152.36C91.9146 150.992 94.6866 147.626 95.6046 142.892V142.64ZM81.0066 140.75H87.3426V142.028H81.0066V140.75ZM83.7246 136.88H85.0026V153.422H83.7246V136.88ZM83.6526 141.542L84.5166 141.848C83.9226 144.728 82.6266 148.256 81.2766 150.074C81.1326 149.714 80.8086 149.174 80.5746 148.868C81.8526 147.248 83.1126 144.134 83.6526 141.542ZM84.9126 143.486C85.3806 143.99 87.1086 146.186 87.4686 146.726L86.6406 147.788C86.1906 146.888 84.7866 144.836 84.2466 144.116L84.9126 143.486ZM105.613 148.274H108.799V149.246H105.613V148.274ZM107.035 146.258H111.049V147.266H107.035V146.258ZM106.153 138.95H115.945V139.976H106.153V138.95ZM105.703 143.288H116.161V144.35H105.703V143.288ZM106.909 141.11H115.387V142.1H106.909V141.11ZM110.329 139.49H111.625V143.756H110.329V139.49ZM110.347 146.258H111.607V152.09C111.607 152.738 111.499 153.08 111.013 153.26C110.545 153.458 109.789 153.476 108.673 153.476C108.619 153.152 108.457 152.666 108.295 152.342C109.105 152.36 109.843 152.36 110.059 152.342C110.275 152.342 110.347 152.288 110.347 152.09V146.258ZM108.889 144.98L109.573 144.188C110.923 144.548 112.705 145.214 113.659 145.772L112.939 146.636C112.039 146.096 110.275 145.394 108.889 144.98ZM107.503 137.294L108.511 136.88C108.961 137.456 109.447 138.23 109.681 138.752L108.619 139.22C108.403 138.698 107.935 137.888 107.503 137.294ZM108.511 148.274H108.727L108.943 148.238L109.681 148.526C109.015 150.74 107.485 152.252 105.775 153.044C105.613 152.774 105.289 152.36 105.037 152.144C106.549 151.532 108.007 150.182 108.511 148.472V148.274ZM114.919 146.798L115.927 147.554C114.955 148.364 113.767 149.282 112.849 149.858L112.111 149.264C112.993 148.616 114.235 147.554 114.919 146.798ZM113.263 136.88L114.469 137.258C114.001 137.978 113.533 138.698 113.137 139.202L112.165 138.842C112.543 138.302 113.011 137.456 113.263 136.88ZM111.571 147.23C112.453 149.336 114.307 151.136 116.503 151.91C116.233 152.144 115.855 152.594 115.675 152.936C113.461 151.946 111.625 149.912 110.689 147.518L111.571 147.23ZM99.9246 140.786H105.775V142.064H99.9246V140.786ZM102.463 136.88H103.705V153.422H102.463V136.88ZM102.427 141.542L103.255 141.83C102.697 144.674 101.509 148.22 100.249 150.02C100.105 149.678 99.7806 149.156 99.5646 148.868C100.753 147.248 101.923 144.116 102.427 141.542ZM103.615 143.072C104.011 143.576 105.541 145.88 105.883 146.42L105.127 147.428C104.713 146.51 103.453 144.35 103.003 143.648L103.615 143.072ZM130.651 137.78L131.551 137.006C132.487 137.636 133.621 138.572 134.179 139.202L133.225 140.048C132.685 139.4 131.587 138.428 130.651 137.78ZM118.879 140.246H134.917V141.56H118.879V140.246ZM119.491 144.26H127.447V145.574H119.491V144.26ZM122.731 144.962H124.081V151.388H122.731V144.962ZM118.951 151.568C121.093 151.154 124.621 150.434 127.951 149.714L128.059 150.92C124.981 151.64 121.687 152.396 119.365 152.918L118.951 151.568ZM128.041 136.97H129.481C129.427 145.322 131.047 152.072 133.261 152.072C133.765 152.072 133.981 151.082 134.089 148.67C134.395 148.976 134.917 149.282 135.295 149.408C135.061 152.558 134.539 153.476 133.153 153.476C129.571 153.476 128.113 145.682 128.041 136.97Z" fill="white"/>
</svg>
