<svg width="135" height="157" viewBox="0 0 135 157" fill="none" xmlns="http://www.w3.org/2000/svg">
<path d="M15 57.972L60.5704 110.362L104.901 57.972L59.0204 5.89148L15 57.972Z" stroke="white" stroke-width="3.5" stroke-miterlimit="10"/>
<path d="M89.4009 17.3602L104.591 34.7203L119.161 17.3602L104.281 0L89.4009 17.3602Z" fill="white"/>
<path d="M1.34161 155V153.392C6.57361 148.784 9.23761 145.352 9.23761 142.448C9.23761 140.552 8.22961 139.232 6.26161 139.232C4.86961 139.232 3.71761 140.096 2.78161 141.176L1.19761 139.664C2.73361 138.008 4.29361 137.024 6.59761 137.024C9.83761 137.024 11.9256 139.112 11.9256 142.328C11.9256 145.712 9.18961 149.24 5.44561 152.84C6.35761 152.744 7.48561 152.648 8.34961 152.648H12.7656V155H1.34161ZM18.1611 155.252C17.5131 155.252 16.9911 154.73 16.9911 153.992C16.9911 153.236 17.5131 152.732 18.1611 152.732C18.8271 152.732 19.3671 153.236 19.3671 153.992C19.3671 154.73 18.8271 155.252 18.1611 155.252ZM27.6169 147.566H38.0749V148.61H27.6169V147.566ZM26.8609 150.284H38.6509V151.328H26.8609V150.284ZM30.1189 146.27H31.3789V150.86H30.1189V146.27ZM34.1869 146.27H35.4469V150.86H34.1869V146.27ZM33.7189 152.084L34.6189 151.472C35.9689 152.102 37.4809 152.948 38.3449 153.614L37.1569 154.244C36.3829 153.56 35.0329 152.714 33.7189 152.084ZM30.7129 151.49L31.9189 151.904C30.9649 152.804 29.4889 153.722 28.2649 154.28C28.0129 154.064 27.5269 153.65 27.2209 153.452C28.4809 152.966 29.8669 152.228 30.7129 151.49ZM28.0129 140.6H32.2969V143.66H28.0129V142.724H31.1269V141.518H28.0129V140.6ZM33.7549 140.618H38.1289V143.678H33.7549V142.742H36.9409V141.536H33.7549V140.618ZM33.2329 140.618H34.3489V144.29C34.3489 144.794 34.4209 144.956 34.8349 144.956C35.1949 144.956 36.9049 144.956 37.2649 144.956C37.6069 144.956 38.1469 144.938 38.4529 144.884C38.4709 145.172 38.5069 145.586 38.5609 145.856C38.2909 145.91 37.8049 145.946 37.3189 145.946C36.9049 145.946 35.0689 145.946 34.7809 145.946C33.5389 145.946 33.2329 145.496 33.2329 144.272V140.618ZM27.5089 146.396L27.4729 145.514L28.0309 145.136L32.4589 144.434C32.4049 144.722 32.3509 145.172 32.3509 145.406C28.3549 146.126 27.8149 146.234 27.5089 146.396ZM27.5089 146.396C27.4369 146.108 27.1849 145.586 27.0229 145.316C27.2389 145.208 27.4909 144.974 27.4909 144.29V140.6H28.5889V145.388C28.5889 145.388 27.5089 146 27.5089 146.396ZM22.7929 140.6L23.7829 139.988C24.6109 140.87 25.6189 142.022 26.1229 142.742L25.0609 143.48C24.5929 142.742 23.5849 141.482 22.7929 140.6ZM22.4329 144.056H25.7089V145.19H22.4329V144.056ZM25.5289 152.3C26.6449 154.658 29.0209 154.982 32.6389 154.982C34.5469 154.982 37.2109 154.892 39.0649 154.73C38.8489 155.036 38.6869 155.666 38.6149 156.044C36.9049 156.134 34.6189 156.188 32.6209 156.188C28.3729 156.188 25.9969 155.702 24.6289 152.714L25.5289 152.3ZM25.5109 148.538H25.8349L26.0689 148.502L26.7529 148.754C26.1949 152.534 24.8449 155.09 23.0089 156.494C22.8289 156.206 22.3789 155.756 22.1089 155.558C23.8549 154.316 25.0609 152.012 25.5109 148.772V148.538ZM22.7209 149.888V148.862L23.3689 148.538H25.8709V149.636H23.7469C23.3329 149.636 22.8649 149.762 22.7209 149.888ZM22.7209 149.888C22.6489 149.582 22.3789 148.952 22.2349 148.682C22.4869 148.61 22.7569 148.502 23.0269 148.142C23.4949 147.638 24.9169 145.118 25.4029 144.182V144.128L25.7809 143.966L26.6809 144.308C25.9789 145.532 24.5929 147.908 23.7289 149.042C23.7289 149.042 22.7209 149.528 22.7209 149.888ZM54.2029 141.536V143.426H56.0389V141.536H54.2029ZM51.3229 141.536V143.426H53.1229V141.536H51.3229ZM48.5149 141.536V143.426H50.2429V141.536H48.5149ZM47.4169 140.546H57.1729V144.398H47.4169V140.546ZM47.6149 145.46H56.8129V146.504H47.6149V145.46ZM46.8229 147.782H57.3889V148.844H46.8229V147.782ZM47.2009 150.554H57.0109V151.616H47.2009V150.554ZM46.5889 152.912H57.6409V153.974H46.5889V152.912ZM51.5029 144.092H52.7809V148.196H51.5029V144.092ZM51.5029 151.022H52.7809V156.44H51.5029V151.022ZM48.9649 149.096L50.0989 148.826C50.3689 149.348 50.6929 150.05 50.8189 150.5L49.6489 150.842C49.5409 150.356 49.2529 149.636 48.9649 149.096ZM54.3109 148.79L55.5889 149.132C55.1749 149.852 54.7609 150.626 54.4009 151.148L53.3929 150.824C53.6989 150.248 54.1129 149.384 54.3109 148.79ZM41.1169 149.186C42.4489 148.808 44.4469 148.178 46.3909 147.548L46.5709 148.772C44.7889 149.402 42.9169 150.014 41.4589 150.5L41.1169 149.186ZM41.3149 143.516H46.5709V144.776H41.3149V143.516ZM43.4929 139.898H44.7529V154.802C44.7529 155.522 44.5729 155.9 44.1229 156.116C43.7089 156.332 43.0069 156.368 41.8729 156.368C41.8189 156.026 41.6569 155.468 41.4769 155.09C42.2689 155.126 42.9529 155.126 43.1689 155.108C43.3849 155.108 43.4929 155.036 43.4929 154.802V139.898ZM60.9889 145.334H66.3169V146.414H60.9889V145.334ZM60.9889 147.692H66.3349V148.772H60.9889V147.692ZM60.2329 142.94H67.0909V144.074H60.2329V142.94ZM61.5649 150.104H66.3349V155.36H61.5649V154.226H65.1289V151.238H61.5649V150.104ZM60.9709 150.104H62.1589V156.206H60.9709V150.104ZM62.1949 140.348L63.2389 139.808C63.7609 140.546 64.3549 141.5 64.6429 142.13L63.5269 142.778C63.2569 142.112 62.6809 141.086 62.1949 140.348ZM68.8909 140.546H73.5529V141.806H68.8909V140.546ZM66.8929 147.836H74.8309V149.114H66.8929V147.836ZM74.3449 147.836H74.6149L74.8489 147.782L75.6949 148.16C74.3089 152.75 70.8349 155.288 66.9289 156.458C66.7849 156.098 66.4789 155.54 66.2269 155.252C69.8629 154.334 73.1749 151.922 74.3449 148.07V147.836ZM68.8009 148.988C70.1329 152.066 72.9589 154.352 76.7569 155.198C76.4689 155.486 76.0909 156.044 75.9109 156.422C72.0049 155.396 69.1789 152.912 67.6489 149.384L68.8009 148.988ZM68.6209 140.546H69.8809V142.562C69.8809 144.182 69.4129 146.108 67.2529 147.386C67.0909 147.116 66.6229 146.594 66.3889 146.396C68.3329 145.28 68.6209 143.804 68.6209 142.526V140.546ZM72.8869 140.546H74.1469V144.722C74.1469 145.226 74.1829 145.406 74.4169 145.406C74.6149 145.406 75.3169 145.406 75.5149 145.406C75.7309 145.406 76.0729 145.37 76.2889 145.316C76.3069 145.658 76.3429 146.162 76.3969 146.468C76.1989 146.558 75.8389 146.576 75.5149 146.576C75.2809 146.576 74.5429 146.576 74.3269 146.576C73.1389 146.576 72.8869 146.072 72.8869 144.704V140.546ZM80.2309 145.334H86.1169V146.414H80.2309V145.334ZM80.2309 147.692H86.0809V148.772H80.2309V147.692ZM79.4209 142.94H86.8729V144.074H79.4209V142.94ZM80.9329 150.104H86.0989V155.36H80.9329V154.226H84.9109V151.238H80.9329V150.104ZM80.3569 150.104H81.5269V156.206H80.3569V150.104ZM81.5629 140.348L82.6249 139.808C83.1289 140.546 83.7049 141.5 83.9929 142.13L82.9129 142.778C82.6429 142.112 82.0489 141.086 81.5629 140.348ZM86.8549 146.126H95.4769V147.458H86.8549V146.126ZM90.3829 140.222H91.7689V156.44H90.3829V140.222ZM109.355 145.73H110.633V146.594C110.633 149.33 110.345 153.344 106.925 156.476C106.691 156.17 106.223 155.774 105.899 155.576C109.121 152.696 109.355 149.042 109.355 146.558V145.73ZM110.525 147.926C111.119 151.202 112.415 154.1 114.647 155.306C114.359 155.576 113.927 156.08 113.729 156.422C111.371 154.982 110.093 151.832 109.445 148.142L110.525 147.926ZM98.1049 141.608H106.421V142.742H98.1049V141.608ZM97.8889 149.312H106.583V150.446H97.8889V149.312ZM98.5189 144.29H106.043V145.442H98.5189V144.29ZM98.7169 146.792H105.827V147.926H98.7169V146.792ZM101.615 139.952H102.893V145.028H101.615V139.952ZM99.4009 151.076L100.535 151.364C100.085 152.696 99.4009 154.208 98.8429 155.216C98.5729 155.054 98.0509 154.82 97.7629 154.694C98.3749 153.722 99.0049 152.318 99.4009 151.076ZM103.937 151.472L104.963 151.076C105.485 151.958 106.079 153.182 106.367 153.884L105.269 154.388C105.017 153.65 104.459 152.408 103.937 151.472ZM107.897 143.156H113.333V144.398H107.897V143.156ZM107.969 139.898L109.283 140.078C108.851 143.21 108.059 146.162 106.889 148.124C106.655 147.908 106.079 147.512 105.773 147.332C106.943 145.55 107.609 142.76 107.969 139.898ZM112.991 143.156H113.189L113.423 143.102L114.323 143.372C113.981 144.992 113.459 146.882 112.973 148.07L111.875 147.746C112.289 146.63 112.739 144.812 112.991 143.408V143.156ZM101.633 149.762H102.911V156.44H101.633V149.762ZM128.849 140.78L129.749 140.006C130.685 140.636 131.819 141.572 132.377 142.202L131.423 143.048C130.883 142.4 129.785 141.428 128.849 140.78ZM117.077 143.246H133.115V144.56H117.077V143.246ZM117.689 147.26H125.645V148.574H117.689V147.26ZM120.929 147.962H122.279V154.388H120.929V147.962ZM117.149 154.568C119.291 154.154 122.819 153.434 126.149 152.714L126.257 153.92C123.179 154.64 119.885 155.396 117.563 155.918L117.149 154.568ZM126.239 139.97H127.679C127.625 148.322 129.245 155.072 131.459 155.072C131.963 155.072 132.179 154.082 132.287 151.67C132.593 151.976 133.115 152.282 133.493 152.408C133.259 155.558 132.737 156.476 131.351 156.476C127.769 156.476 126.311 148.682 126.239 139.97Z" fill="white"/>
</svg>
