<svg width="135" height="147" viewBox="0 0 135 147" fill="none" xmlns="http://www.w3.org/2000/svg">
<path d="M25 100.25L68.0904 4.76953L110.561 100.25" stroke="white" stroke-width="3.5" stroke-miterlimit="10"/>
<path d="M41.1211 64.5997H94.1316" stroke="white" stroke-width="3.5" stroke-miterlimit="10"/>
<path d="M7.0887 145.336C4.3287 145.336 2.5287 144.232 1.3287 142.888L2.6967 141.112C3.7287 142.168 5.0247 143.056 6.8727 143.056C8.8407 143.056 10.2087 141.952 10.2087 140.128C10.2087 138.16 8.9607 136.912 5.0007 136.912V134.848C8.4567 134.848 9.6087 133.552 9.6087 131.776C9.6087 130.216 8.6007 129.232 6.8967 129.232C5.5527 129.232 4.4007 129.88 3.3927 130.888L1.9287 129.136C3.3447 127.888 4.9767 127.024 7.0167 127.024C10.1847 127.024 12.4167 128.656 12.4167 131.56C12.4167 133.6 11.2407 135.016 9.3687 135.712V135.832C11.4087 136.36 13.0167 137.872 13.0167 140.272C13.0167 143.464 10.3527 145.336 7.0887 145.336ZM18.5322 145.252C17.8842 145.252 17.3622 144.73 17.3622 143.992C17.3622 143.236 17.8842 142.732 18.5322 142.732C19.1982 142.732 19.7382 143.236 19.7382 143.992C19.7382 144.73 19.1982 145.252 18.5322 145.252ZM32.848 143.542H37.744V144.856H32.848V143.542ZM22.912 133.3H29.824V134.614H22.912V133.3ZM32.236 132.13H38.392V146.044H37.024V133.426H33.55V146.17H32.236V132.13ZM29.464 133.3H30.778C30.778 133.3 30.778 133.804 30.778 133.984C30.634 141.994 30.508 144.622 29.932 145.414C29.608 145.882 29.284 146.044 28.744 146.098C28.24 146.17 27.412 146.17 26.602 146.116C26.584 145.72 26.44 145.126 26.206 144.748C27.052 144.82 27.826 144.82 28.168 144.82C28.438 144.838 28.6 144.784 28.762 144.55C29.176 143.992 29.338 141.328 29.464 133.624V133.3ZM25.468 130.132H26.782C26.764 136.774 26.674 143.02 23.506 146.458C23.272 146.152 22.804 145.738 22.462 145.54C25.468 142.372 25.45 136.432 25.468 130.132ZM44.944 130.978H50.038V132.346H44.944V130.978ZM49.354 130.978H50.74C50.74 134.2 51.136 141.04 58.246 145.252C57.94 145.486 57.4 146.062 57.148 146.386C49.948 142.03 49.354 134.362 49.354 130.978ZM48.85 134.506L50.38 134.794C49.084 140.284 46.708 144.082 42.73 146.422C42.478 146.134 41.866 145.576 41.506 145.324C45.502 143.236 47.752 139.6 48.85 134.506ZM75.634 135.01L76.516 135.892C75.31 136.864 73.69 137.908 72.448 138.592L71.728 137.8C72.952 137.116 74.644 135.91 75.634 135.01ZM67.714 130.654L68.722 130.006C69.586 130.672 70.486 131.608 70.918 132.274L69.856 133.012C69.442 132.346 68.542 131.338 67.714 130.654ZM66.256 132.922H76.876V134.128L66.256 134.11V132.922ZM71.188 137.026L72.052 137.62C70.972 138.664 68.92 139.996 67.444 140.752C67.264 140.446 66.94 139.996 66.67 139.762C68.146 139.186 70.162 138.016 71.188 137.026ZM71.962 139.456L72.862 140.068C71.53 141.58 68.974 143.218 66.886 144.028C66.706 143.722 66.382 143.29 66.094 143.038C68.182 142.39 70.72 140.86 71.962 139.456ZM73.96 129.898L75.256 130.33C74.59 131.392 73.762 132.598 73.096 133.354L71.998 132.958C72.664 132.148 73.51 130.834 73.96 129.898ZM61.198 130.672H65.446V131.896H62.422V146.458H61.198V130.672ZM65.032 130.672H65.266L65.482 130.618L66.346 131.14C65.824 132.616 65.158 134.47 64.546 135.91C65.878 137.404 66.166 138.664 66.166 139.78C66.166 140.752 65.968 141.508 65.464 141.868C65.212 142.03 64.888 142.138 64.528 142.192C64.168 142.228 63.718 142.228 63.304 142.21C63.286 141.886 63.178 141.364 62.98 141.022C63.394 141.058 63.736 141.076 64.024 141.04C64.24 141.04 64.438 140.986 64.582 140.878C64.87 140.68 64.96 140.194 64.96 139.654C64.96 138.682 64.636 137.458 63.34 136.054C63.988 134.416 64.654 132.274 65.032 131.032V130.672ZM70.972 133.354L72.106 133.786C70.81 135.424 68.686 136.9 66.778 137.836C66.634 137.584 66.238 137.08 65.968 136.846C67.858 136.072 69.838 134.794 70.972 133.354ZM74.086 137.512C74.734 139.618 76.012 141.886 77.254 143.056C76.984 143.254 76.57 143.65 76.354 143.938C75.076 142.624 73.762 140.14 73.042 137.872L74.086 137.512ZM69.64 135.136L70.63 134.596C74.014 138.052 73.852 144.154 72.268 145.486C71.764 146.008 71.26 146.188 70.486 146.206C70.162 146.206 69.55 146.188 69.064 146.152C69.046 145.792 68.938 145.27 68.722 144.91C69.298 144.982 69.91 145 70.252 145C70.684 145 70.99 144.928 71.296 144.604C72.412 143.632 72.7 138.34 69.64 135.136ZM85.21 144.478H93.904V145.72H85.21V144.478ZM84.598 131.698H91.204V132.904H84.598V131.698ZM85.408 129.826L86.92 130.132C85.57 132.472 83.41 134.92 80.278 136.774C80.08 136.432 79.63 135.964 79.324 135.73C82.294 134.11 84.364 131.788 85.408 129.826ZM90.754 131.698H91.006L91.258 131.626L92.158 132.112C89.998 137.548 84.922 141.166 80.026 142.75C79.864 142.39 79.522 141.832 79.234 141.544C83.896 140.194 88.882 136.666 90.754 131.932V131.698ZM82.348 134.902L83.356 134.038C84.778 135.01 86.506 136.45 87.334 137.476L86.236 138.448C85.48 137.422 83.77 135.91 82.348 134.902ZM93.238 138.79H94.624V146.476H93.238V138.79ZM85.822 138.79H93.922V140.032H85.822V146.44H84.472V139.852L85.552 138.79H85.822ZM104.74 132.544H114.64V133.804H104.74V132.544ZM107.152 134.272L108.358 134.812C107.548 136.252 106.342 137.782 105.118 138.844C104.902 138.592 104.47 138.232 104.182 138.016C105.352 137.062 106.522 135.532 107.152 134.272ZM110.482 134.884L111.436 134.146C112.606 135.28 113.992 136.846 114.604 137.908L113.596 138.736C113.02 137.656 111.67 136.018 110.482 134.884ZM107.35 137.512C108.628 141.094 111.274 143.956 114.928 145.144C114.622 145.414 114.208 145.954 114.01 146.332C110.23 144.928 107.62 141.85 106.18 137.818L107.35 137.512ZM107.872 130.276L109.024 129.79C109.636 130.456 110.248 131.356 110.536 131.986L109.33 132.562C109.06 131.932 108.466 130.96 107.872 130.276ZM98.674 133.696H104.29V134.974H98.674V133.696ZM101.032 129.88H102.274V146.422H101.032V129.88ZM100.888 134.452L101.716 134.758C101.176 137.674 100.024 141.292 98.8 143.128C98.656 142.75 98.332 142.174 98.08 141.832C99.25 140.212 100.402 137.044 100.888 134.452ZM102.238 135.64C102.616 136.18 104.092 138.646 104.416 139.24L103.588 140.266C103.21 139.294 102.04 136.99 101.59 136.198L102.238 135.64ZM111.238 137.422L112.552 137.746C111.364 141.832 108.862 144.694 104.92 146.458C104.74 146.17 104.326 145.684 104.056 145.45C107.8 143.812 110.248 141.13 111.238 137.422ZM123.01 144.478H131.704V145.72H123.01V144.478ZM122.398 131.698H129.004V132.904H122.398V131.698ZM123.208 129.826L124.72 130.132C123.37 132.472 121.21 134.92 118.078 136.774C117.88 136.432 117.43 135.964 117.124 135.73C120.094 134.11 122.164 131.788 123.208 129.826ZM128.554 131.698H128.806L129.058 131.626L129.958 132.112C127.798 137.548 122.722 141.166 117.826 142.75C117.664 142.39 117.322 141.832 117.034 141.544C121.696 140.194 126.682 136.666 128.554 131.932V131.698ZM120.148 134.902L121.156 134.038C122.578 135.01 124.306 136.45 125.134 137.476L124.036 138.448C123.28 137.422 121.57 135.91 120.148 134.902ZM131.038 138.79H132.424V146.476H131.038V138.79ZM123.622 138.79H131.722V140.032H123.622V146.44H122.272V139.852L123.352 138.79H123.622Z" fill="white"/>
</svg>
