<svg width="135" height="145" viewBox="0 0 135 145" fill="none" xmlns="http://www.w3.org/2000/svg">
<path d="M114.989 2.62305H19.1982V87.8738H114.989V2.62305Z" stroke="white" stroke-width="3.5" stroke-miterlimit="10"/>
<path d="M29.1191 87.5643L84.6097 33.6238L114.06 62.7641" stroke="white" stroke-width="3.5" stroke-miterlimit="10"/>
<path d="M42.4477 33.3132C47.0704 33.3132 50.8178 29.5657 50.8178 24.9431C50.8178 20.3204 47.0704 16.573 42.4477 16.573C37.8251 16.573 34.0776 20.3204 34.0776 24.9431C34.0776 29.5657 37.8251 33.3132 42.4477 33.3132Z" fill="white"/>
<path d="M6.74161 143.336C3.95761 143.336 2.20561 142.208 0.933608 140.96L2.27761 139.16C3.26161 140.168 4.55761 141.056 6.40561 141.056C8.39761 141.056 9.88561 139.64 9.88561 137.288C9.88561 134.96 8.54161 133.616 6.52561 133.616C5.42161 133.616 4.74961 133.928 3.71761 134.6L2.34961 133.736L2.87761 125.336H11.8536V127.688H5.30161L4.89361 132.2C5.63761 131.816 6.35761 131.6 7.31761 131.6C10.2696 131.6 12.6936 133.328 12.6936 137.216C12.6936 141.104 9.81361 143.336 6.74161 143.336ZM18.1611 143.252C17.5131 143.252 16.9911 142.73 16.9911 141.992C16.9911 141.236 17.5131 140.732 18.1611 140.732C18.8271 140.732 19.3671 141.236 19.3671 141.992C19.3671 142.73 18.8271 143.252 18.1611 143.252ZM32.4769 141.542H37.3729V142.856H32.4769V141.542ZM22.5409 131.3H29.4529V132.614H22.5409V131.3ZM31.8649 130.13H38.0209V144.044H36.6529V131.426H33.1789V144.17H31.8649V130.13ZM29.0929 131.3H30.4069C30.4069 131.3 30.4069 131.804 30.4069 131.984C30.2629 139.994 30.1369 142.622 29.5609 143.414C29.2369 143.882 28.9129 144.044 28.3729 144.098C27.8689 144.17 27.0409 144.17 26.2309 144.116C26.2129 143.72 26.0689 143.126 25.8349 142.748C26.6809 142.82 27.4549 142.82 27.7969 142.82C28.0669 142.838 28.2289 142.784 28.3909 142.55C28.8049 141.992 28.9669 139.328 29.0929 131.624V131.3ZM25.0969 128.132H26.4109C26.3929 134.774 26.3029 141.02 23.1349 144.458C22.9009 144.152 22.4329 143.738 22.0909 143.54C25.0969 140.372 25.0789 134.432 25.0969 128.132ZM44.5729 128.978H49.6669V130.346H44.5729V128.978ZM48.9829 128.978H50.3689C50.3689 132.2 50.7649 139.04 57.8749 143.252C57.5689 143.486 57.0289 144.062 56.7769 144.386C49.5769 140.03 48.9829 132.362 48.9829 128.978ZM48.4789 132.506L50.0089 132.794C48.7129 138.284 46.3369 142.082 42.3589 144.422C42.1069 144.134 41.4949 143.576 41.1349 143.324C45.1309 141.236 47.3809 137.6 48.4789 132.506ZM75.2629 133.01L76.1449 133.892C74.9389 134.864 73.3189 135.908 72.0769 136.592L71.3569 135.8C72.5809 135.116 74.2729 133.91 75.2629 133.01ZM67.3429 128.654L68.3509 128.006C69.2149 128.672 70.1149 129.608 70.5469 130.274L69.4849 131.012C69.0709 130.346 68.1709 129.338 67.3429 128.654ZM65.8849 130.922H76.5049V132.128L65.8849 132.11V130.922ZM70.8169 135.026L71.6809 135.62C70.6009 136.664 68.5489 137.996 67.0729 138.752C66.8929 138.446 66.5689 137.996 66.2989 137.762C67.7749 137.186 69.7909 136.016 70.8169 135.026ZM71.5909 137.456L72.4909 138.068C71.1589 139.58 68.6029 141.218 66.5149 142.028C66.3349 141.722 66.0109 141.29 65.7229 141.038C67.8109 140.39 70.3489 138.86 71.5909 137.456ZM73.5889 127.898L74.8849 128.33C74.2189 129.392 73.3909 130.598 72.7249 131.354L71.6269 130.958C72.2929 130.148 73.1389 128.834 73.5889 127.898ZM60.8269 128.672H65.0749V129.896H62.0509V144.458H60.8269V128.672ZM64.6609 128.672H64.8949L65.1109 128.618L65.9749 129.14C65.4529 130.616 64.7869 132.47 64.1749 133.91C65.5069 135.404 65.7949 136.664 65.7949 137.78C65.7949 138.752 65.5969 139.508 65.0929 139.868C64.8409 140.03 64.5169 140.138 64.1569 140.192C63.7969 140.228 63.3469 140.228 62.9329 140.21C62.9149 139.886 62.8069 139.364 62.6089 139.022C63.0229 139.058 63.3649 139.076 63.6529 139.04C63.8689 139.04 64.0669 138.986 64.2109 138.878C64.4989 138.68 64.5889 138.194 64.5889 137.654C64.5889 136.682 64.2649 135.458 62.9689 134.054C63.6169 132.416 64.2829 130.274 64.6609 129.032V128.672ZM70.6009 131.354L71.7349 131.786C70.4389 133.424 68.3149 134.9 66.4069 135.836C66.2629 135.584 65.8669 135.08 65.5969 134.846C67.4869 134.072 69.4669 132.794 70.6009 131.354ZM73.7149 135.512C74.3629 137.618 75.6409 139.886 76.8829 141.056C76.6129 141.254 76.1989 141.65 75.9829 141.938C74.7049 140.624 73.3909 138.14 72.6709 135.872L73.7149 135.512ZM69.2689 133.136L70.2589 132.596C73.6429 136.052 73.4809 142.154 71.8969 143.486C71.3929 144.008 70.8889 144.188 70.1149 144.206C69.7909 144.206 69.1789 144.188 68.6929 144.152C68.6749 143.792 68.5669 143.27 68.3509 142.91C68.9269 142.982 69.5389 143 69.8809 143C70.3129 143 70.6189 142.928 70.9249 142.604C72.0409 141.632 72.3289 136.34 69.2689 133.136ZM85.9189 127.898H87.0529V132.506H85.9189V127.898ZM83.5429 129.104H84.5149V131.786H88.4569V129.122H89.4649V132.884H83.5429V129.104ZM83.2729 133.856H89.2309V134.954H83.2729V133.856ZM86.0449 139.832H87.1429V143.252C87.1429 143.756 87.0529 144.008 86.6929 144.17C86.3149 144.332 85.8109 144.332 85.0009 144.332C84.9289 144.062 84.7489 143.684 84.6049 143.432C85.1629 143.45 85.6669 143.45 85.8289 143.432C85.9909 143.432 86.0449 143.378 86.0449 143.234V139.832ZM87.7909 141.146L88.6369 140.75C89.1589 141.38 89.7169 142.226 89.8969 142.802L89.0149 143.252C88.8169 142.676 88.2949 141.776 87.7909 141.146ZM84.1729 140.93L85.1629 141.164C84.7669 141.956 84.1909 142.964 83.5429 143.594L82.6789 142.928C83.2369 142.442 83.8129 141.65 84.1729 140.93ZM88.1689 138.194L88.9969 137.78C89.5909 138.644 90.2029 139.76 90.4549 140.462L89.5729 140.93C89.3209 140.21 88.7269 139.058 88.1689 138.194ZM83.5249 138.176C83.4529 137.924 83.2909 137.384 83.1649 137.096C83.3989 137.06 83.6329 136.934 83.9029 136.736C84.1729 136.538 85.1089 135.71 85.7029 134.864L86.7649 135.368C85.9729 136.25 85.0729 137.078 84.2449 137.564V137.582C84.2449 137.582 83.5249 137.924 83.5249 138.176ZM83.5249 138.176L83.5069 137.384L84.0649 137.06L87.3229 136.862C87.2689 137.132 87.2329 137.51 87.2329 137.726C84.2629 137.96 83.7949 138.068 83.5249 138.176ZM83.2729 140.714C83.2369 140.48 83.0749 139.94 82.9489 139.652C83.2909 139.616 83.7049 139.4 84.2089 139.058C84.7669 138.734 86.6029 137.402 87.8989 136.034L88.8169 136.664C87.3049 138.05 85.6309 139.292 84.0289 140.156V140.174C84.0289 140.174 83.2729 140.48 83.2729 140.714ZM83.2729 140.714L83.2549 139.832L83.9209 139.472L89.5189 139.04C89.4649 139.346 89.4289 139.796 89.4289 140.012C84.2809 140.462 83.6509 140.552 83.2729 140.714ZM91.3009 131.408H95.5849V132.524H91.0309L91.3009 131.408ZM91.4449 127.88L92.6329 128.078C92.1649 131.282 91.3909 134.36 90.0589 136.412C89.9149 136.16 89.5189 135.584 89.2669 135.332C90.4189 133.532 91.0669 130.742 91.4449 127.88ZM91.5349 132.596C92.0749 137.348 93.2629 141.74 95.8909 143.468C95.6209 143.684 95.2069 144.152 95.0269 144.476C92.2909 142.442 91.1209 137.906 90.5449 132.722L91.5349 132.596ZM93.6769 131.768L94.8109 131.84C94.3249 137.798 93.2089 141.884 89.8249 144.494C89.6809 144.26 89.3029 143.792 89.0509 143.576C92.2909 141.272 93.2809 137.294 93.6769 131.768ZM81.6709 127.88L82.9129 128.33C82.0849 129.77 80.7709 131.408 79.5469 132.488C79.3849 132.218 79.0429 131.714 78.8269 131.48C79.8889 130.544 81.0769 129.068 81.6709 127.88ZM82.0669 131.498L83.2549 131.912C82.2829 134.018 80.8069 136.268 79.4209 137.744C79.2769 137.474 78.8809 136.844 78.6289 136.574C79.9249 135.278 81.2389 133.37 82.0669 131.498ZM80.7709 134.774L81.9409 133.604V144.422H80.7709V134.774ZM104.369 130.544H114.269V131.804H104.369V130.544ZM106.781 132.272L107.987 132.812C107.177 134.252 105.971 135.782 104.747 136.844C104.531 136.592 104.099 136.232 103.811 136.016C104.981 135.062 106.151 133.532 106.781 132.272ZM110.111 132.884L111.065 132.146C112.235 133.28 113.621 134.846 114.233 135.908L113.225 136.736C112.649 135.656 111.299 134.018 110.111 132.884ZM106.979 135.512C108.257 139.094 110.903 141.956 114.557 143.144C114.251 143.414 113.837 143.954 113.639 144.332C109.859 142.928 107.249 139.85 105.809 135.818L106.979 135.512ZM107.501 128.276L108.653 127.79C109.265 128.456 109.877 129.356 110.165 129.986L108.959 130.562C108.689 129.932 108.095 128.96 107.501 128.276ZM98.3029 131.696H103.919V132.974H98.3029V131.696ZM100.661 127.88H101.903V144.422H100.661V127.88ZM100.517 132.452L101.345 132.758C100.805 135.674 99.6529 139.292 98.4289 141.128C98.2849 140.75 97.9609 140.174 97.7089 139.832C98.8789 138.212 100.031 135.044 100.517 132.452ZM101.867 133.64C102.245 134.18 103.721 136.646 104.045 137.24L103.217 138.266C102.839 137.294 101.669 134.99 101.219 134.198L101.867 133.64ZM110.867 135.422L112.181 135.746C110.993 139.832 108.491 142.694 104.549 144.458C104.369 144.17 103.955 143.684 103.685 143.45C107.429 141.812 109.877 139.13 110.867 135.422ZM123.719 127.898H124.853V132.506H123.719V127.898ZM121.343 129.104H122.315V131.786H126.257V129.122H127.265V132.884H121.343V129.104ZM121.073 133.856H127.031V134.954H121.073V133.856ZM123.845 139.832H124.943V143.252C124.943 143.756 124.853 144.008 124.493 144.17C124.115 144.332 123.611 144.332 122.801 144.332C122.729 144.062 122.549 143.684 122.405 143.432C122.963 143.45 123.467 143.45 123.629 143.432C123.791 143.432 123.845 143.378 123.845 143.234V139.832ZM125.591 141.146L126.437 140.75C126.959 141.38 127.517 142.226 127.697 142.802L126.815 143.252C126.617 142.676 126.095 141.776 125.591 141.146ZM121.973 140.93L122.963 141.164C122.567 141.956 121.991 142.964 121.343 143.594L120.479 142.928C121.037 142.442 121.613 141.65 121.973 140.93ZM125.969 138.194L126.797 137.78C127.391 138.644 128.003 139.76 128.255 140.462L127.373 140.93C127.121 140.21 126.527 139.058 125.969 138.194ZM121.325 138.176C121.253 137.924 121.091 137.384 120.965 137.096C121.199 137.06 121.433 136.934 121.703 136.736C121.973 136.538 122.909 135.71 123.503 134.864L124.565 135.368C123.773 136.25 122.873 137.078 122.045 137.564V137.582C122.045 137.582 121.325 137.924 121.325 138.176ZM121.325 138.176L121.307 137.384L121.865 137.06L125.123 136.862C125.069 137.132 125.033 137.51 125.033 137.726C122.063 137.96 121.595 138.068 121.325 138.176ZM121.073 140.714C121.037 140.48 120.875 139.94 120.749 139.652C121.091 139.616 121.505 139.4 122.009 139.058C122.567 138.734 124.403 137.402 125.699 136.034L126.617 136.664C125.105 138.05 123.431 139.292 121.829 140.156V140.174C121.829 140.174 121.073 140.48 121.073 140.714ZM121.073 140.714L121.055 139.832L121.721 139.472L127.319 139.04C127.265 139.346 127.229 139.796 127.229 140.012C122.081 140.462 121.451 140.552 121.073 140.714ZM129.101 131.408H133.385V132.524H128.831L129.101 131.408ZM129.245 127.88L130.433 128.078C129.965 131.282 129.191 134.36 127.859 136.412C127.715 136.16 127.319 135.584 127.067 135.332C128.219 133.532 128.867 130.742 129.245 127.88ZM129.335 132.596C129.875 137.348 131.063 141.74 133.691 143.468C133.421 143.684 133.007 144.152 132.827 144.476C130.091 142.442 128.921 137.906 128.345 132.722L129.335 132.596ZM131.477 131.768L132.611 131.84C132.125 137.798 131.009 141.884 127.625 144.494C127.481 144.26 127.103 143.792 126.851 143.576C130.091 141.272 131.081 137.294 131.477 131.768ZM119.471 127.88L120.713 128.33C119.885 129.77 118.571 131.408 117.347 132.488C117.185 132.218 116.843 131.714 116.627 131.48C117.689 130.544 118.877 129.068 119.471 127.88ZM119.867 131.498L121.055 131.912C120.083 134.018 118.607 136.268 117.221 137.744C117.077 137.474 116.681 136.844 116.429 136.574C117.725 135.278 119.039 133.37 119.867 131.498ZM118.571 134.774L119.741 133.604V144.422H118.571V134.774Z" fill="white"/>
</svg>
