<svg width="56" height="75" viewBox="0 0 56 75" fill="none" xmlns="http://www.w3.org/2000/svg">
<path opacity="0.84" d="M17.812 56.202L16.948 56.814C16.732 56.238 16.21 55.374 15.706 54.762L16.534 54.24C17.038 54.852 17.614 55.662 17.812 56.202ZM13.456 54.06L14.608 54.384C14.248 55.662 13.78 56.958 13.258 58.182V70.368H12.106V60.558C11.656 61.35 11.206 62.07 10.738 62.7C10.63 62.394 10.27 61.674 10.036 61.35C11.458 59.532 12.682 56.796 13.456 54.06ZM19.396 57.192V58.272H14.446V57.192H19.396ZM19.054 59.568V60.648H15.004V59.568H19.054ZM15.004 63.06V61.98H19.054V63.06H15.004ZM18.118 65.598H15.868V68.064H18.118V65.598ZM14.788 70.188V64.518H19.234V69.9H18.118V69.126H15.868V70.188H14.788ZM24.994 65.436V63.6H22.168V65.436H24.994ZM22.168 68.442H24.994V66.534H22.168V68.442ZM26.812 60.666H23.68C23.23 61.296 22.744 61.908 22.24 62.466H26.2V70.224H24.994V69.576H22.168V70.368H20.998V63.69C20.566 64.068 20.116 64.41 19.648 64.752C19.486 64.5 19.072 64.014 18.82 63.78C20.116 62.952 21.232 61.89 22.222 60.666H19.45V59.532H21.592V57.174H19.792V56.058H21.592V54.042H22.744V56.058H24.382V57.174H22.744V59.532H23.086C24.076 58.056 24.868 56.382 25.48 54.564L26.614 54.816C26.038 56.526 25.3 58.128 24.436 59.532H26.812V60.666ZM45.28 57.57H35.542C34.912 59.01 34.138 60.378 33.22 61.638V70.35H31.906V63.204C31.258 63.888 30.556 64.536 29.764 65.076C29.62 64.752 29.296 64.176 29.08 63.87C31.276 62.34 32.914 60.054 34.084 57.57H29.656V56.274H34.624C34.93 55.5 35.2 54.708 35.416 53.934L36.784 54.258C36.568 54.942 36.352 55.608 36.082 56.274H45.28V57.57ZM45.622 64.194V65.454H40.816V68.784C40.816 69.576 40.654 69.954 40.06 70.17C39.466 70.368 38.476 70.368 36.946 70.368C36.874 69.99 36.694 69.486 36.514 69.09C37.702 69.144 38.782 69.144 39.088 69.108C39.412 69.09 39.484 69.018 39.484 68.766V65.454H34.516V64.194H39.484V62.718C40.366 62.25 41.338 61.512 42.13 60.81H36.028V59.586H43.354L43.624 59.496L44.488 60.18C43.516 61.242 42.13 62.34 40.816 63.15V64.194H45.622Z" fill="white"/>
<g clip-path="url(#clip0_694_642)">
<path d="M44 30C44.5304 30 45.0391 30.2107 45.4142 30.5858C45.7893 30.9609 46 31.4696 46 32V40C46 41.0609 45.5786 42.0783 44.8284 42.8284C44.0783 43.5786 43.0609 44 42 44H14C12.9391 44 11.9217 43.5786 11.1716 42.8284C10.4214 42.0783 10 41.0609 10 40V32C10 31.4696 10.2107 30.9609 10.5858 30.5858C10.9609 30.2107 11.4696 30 12 30C12.5304 30 13.0391 30.2107 13.4142 30.5858C13.7893 30.9609 14 31.4696 14 32V40H42V32C42 31.4696 42.2107 30.9609 42.5858 30.5858C42.9609 30.2107 43.4696 30 44 30ZM28 4C28.5304 4 29.0391 4.21071 29.4142 4.58579C29.7893 4.96086 30 5.46957 30 6V26.486L35.072 21.414C35.2565 21.223 35.4772 21.0706 35.7212 20.9658C35.9652 20.861 36.2276 20.8058 36.4932 20.8035C36.7588 20.8012 37.0221 20.8518 37.2679 20.9524C37.5137 21.0529 37.737 21.2014 37.9248 21.3892C38.1126 21.577 38.2611 21.8003 38.3616 22.0461C38.4622 22.2919 38.5128 22.5552 38.5105 22.8208C38.5082 23.0864 38.453 23.3488 38.3482 23.5928C38.2434 23.8368 38.091 24.0575 37.9 24.242L29.768 32.374C29.5358 32.6062 29.2602 32.7904 28.9569 32.9161C28.6535 33.0418 28.3284 33.1065 28 33.1065C27.6716 33.1065 27.3465 33.0418 27.0431 32.9161C26.7398 32.7904 26.4642 32.6062 26.232 32.374L18.1 24.242C17.909 24.0575 17.7566 23.8368 17.6518 23.5928C17.547 23.3488 17.4918 23.0864 17.4895 22.8208C17.4872 22.5552 17.5378 22.2919 17.6384 22.0461C17.7389 21.8003 17.8874 21.577 18.0752 21.3892C18.263 21.2014 18.4863 21.0529 18.7321 20.9524C18.9779 20.8518 19.2412 20.8012 19.5068 20.8035C19.7724 20.8058 20.0348 20.861 20.2788 20.9658C20.5228 21.0706 20.7435 21.223 20.928 21.414L26 26.486V6C26 5.46957 26.2107 4.96086 26.5858 4.58579C26.9609 4.21071 27.4696 4 28 4Z" fill="white"/>
</g>
<defs>
<clipPath id="clip0_694_642">
<rect width="48" height="48" fill="white" transform="translate(4)"/>
</clipPath>
</defs>
</svg>
