<svg width="48" height="64" viewBox="0 0 48 64" fill="none" xmlns="http://www.w3.org/2000/svg">
<path d="M13.708 53.774L13.726 54.224C14.842 52.46 15.49 49.724 15.832 46.952L17.146 47.114C17.002 48.158 16.804 49.202 16.57 50.174H20.998L21.232 50.12L22.132 50.408C21.79 52.01 21.286 53.882 20.8 55.07L19.702 54.728C20.044 53.882 20.368 52.586 20.62 51.416H16.264C15.85 52.838 15.364 54.116 14.752 55.106C14.518 54.908 14.032 54.566 13.708 54.35V54.908H6.634V53.774H13.708ZM9.532 51.326V49.778H6.04V48.644H9.532V47.006H10.792V48.644H14.284V49.778H10.792V51.326H13.924V52.442H6.454V51.326H9.532ZM7.336 58.058L8.452 58.346C8.002 59.642 7.336 61.172 6.76 62.162C6.49 62.018 5.986 61.766 5.698 61.658C6.328 60.686 6.922 59.3 7.336 58.058ZM14.446 57.446H10.81V63.368H9.55V57.446H5.824V56.294H14.446V57.446ZM11.854 58.454L12.844 58.058C13.366 58.94 13.96 60.146 14.23 60.848L13.168 61.352C12.898 60.614 12.34 59.39 11.854 58.454ZM18.478 52.748V53.594C18.478 54.116 18.46 54.692 18.424 55.286C19.054 58.4 20.332 61.118 22.438 62.27C22.15 62.522 21.736 63.026 21.556 63.368C19.846 62.324 18.73 60.416 17.974 58.04C17.506 59.876 16.588 61.766 14.788 63.404C14.554 63.116 14.104 62.72 13.762 62.522C16.966 59.66 17.2 56.024 17.2 53.576V52.748H18.478ZM40.186 49.22L39.25 50.066C38.728 49.436 37.612 48.464 36.694 47.816L37.594 47.078C38.512 47.69 39.646 48.608 40.186 49.22ZM30.16 55.556V60.488C31.42 60.218 32.716 59.966 34.012 59.678L34.12 60.866C31.078 61.586 27.784 62.342 25.498 62.846L25.084 61.532C26.092 61.334 27.406 61.064 28.846 60.776V55.556H25.642V54.26H33.526V55.556H30.16ZM40.924 51.596H35.668C36.118 57.644 37.522 62.018 39.304 62.018C39.79 62.018 40.006 61.028 40.114 58.634C40.42 58.94 40.924 59.228 41.302 59.372C41.068 62.486 40.564 63.404 39.196 63.404C36.28 63.404 34.786 58.238 34.3 51.596H25.012V50.282H34.21C34.156 49.22 34.138 48.122 34.12 47.024H35.524C35.524 48.14 35.542 49.22 35.596 50.282H40.924V51.596Z" fill="white"/>
<path fill-rule="evenodd" clip-rule="evenodd" d="M30 3C33.1048 2.99989 36.0887 4.20313 38.3249 6.35693C40.5612 8.51073 41.8756 11.4474 41.992 14.55L42 15V19C41.9999 19.4899 41.8201 19.9627 41.4946 20.3287C41.169 20.6948 40.7205 20.9287 40.234 20.986L40 21H36V35C36.0003 36.0092 35.6192 36.9811 34.933 37.7211C34.2468 38.4611 33.3063 38.9143 32.3 38.99L32 39H16C14.9908 39.0003 14.0189 38.6192 13.2789 37.933C12.5389 37.2468 12.0857 36.3063 12.01 35.3L12 35V21H8C7.51013 20.9999 7.03733 20.8201 6.67126 20.4946C6.30519 20.1691 6.07131 19.7205 6.014 19.234L6 19V15C5.99989 11.8952 7.20313 8.91128 9.35693 6.67506C11.5107 4.43883 14.4474 3.12443 17.55 3.008L18 3H30ZM31.996 7.252C31.9303 9.32889 31.0591 11.2987 29.5667 12.7446C28.0743 14.1905 26.0779 14.9991 24 14.9991C21.9221 14.9991 19.9257 14.1905 18.4333 12.7446C16.9409 11.2987 16.0697 9.32889 16.004 7.252C14.3542 7.67759 12.8832 8.61857 11.8051 9.93799C10.7271 11.2574 10.0982 12.8864 10.01 14.588L10 15V17H14C14.4899 17.0001 14.9627 17.1799 15.3287 17.5054C15.6948 17.8309 15.9287 18.2795 15.986 18.766L16 19V35H32V19C32.0001 18.5101 32.1799 18.0373 32.5054 17.6713C32.8309 17.3052 33.2795 17.0713 33.766 17.014L34 17H38V15C37.9995 13.2257 37.4095 11.5019 36.3228 10.0994C35.236 8.69696 33.714 7.69535 31.996 7.252ZM28 7H20C20 8.06087 20.4214 9.07828 21.1716 9.82843C21.9217 10.5786 22.9391 11 24 11C25.0609 11 26.0783 10.5786 26.8284 9.82843C27.5786 9.07828 28 8.06087 28 7Z" fill="white"/>
</svg>
