<svg width="56" height="75" viewBox="0 0 56 75" fill="none" xmlns="http://www.w3.org/2000/svg">
<path d="M11.404 56.274L12.322 56.022C12.61 56.634 12.916 57.444 13.06 57.912L12.106 58.236C11.962 57.732 11.656 56.886 11.404 56.274ZM14.14 64.302H12.16V65.76H14.14V64.302ZM16.93 65.76V64.302H15.112V65.76H16.93ZM15.112 68.28H16.93V66.714H15.112V68.28ZM12.16 68.28H14.14V66.714H12.16V68.28ZM14.068 62.898V60.27C13.294 61.386 12.268 62.502 11.296 63.24H18.01V70.152H16.93V69.324H12.16V70.368H11.116V63.366C11.008 63.438 10.918 63.51 10.81 63.582C10.702 63.24 10.468 62.736 10.27 62.412C11.386 61.746 12.754 60.486 13.6 59.28H10.504V58.236H14.068V55.626C12.988 55.734 11.908 55.824 10.918 55.86C10.864 55.59 10.72 55.194 10.612 54.942C12.952 54.78 15.832 54.474 17.452 54.06L18.172 54.996C17.344 55.194 16.318 55.374 15.22 55.5V58.236H15.796C16.156 57.534 16.57 56.49 16.804 55.788L17.83 56.13C17.506 56.85 17.164 57.624 16.84 58.236H18.262V59.28H15.382C16.264 59.856 18.082 61.152 18.514 61.512L17.848 62.556C17.38 62.052 16.12 60.99 15.22 60.252V62.898H14.068ZM22.276 54.78V68.838C22.276 69.504 22.15 69.864 21.736 70.062C21.34 70.278 20.71 70.296 19.756 70.296C19.72 69.972 19.54 69.45 19.36 69.126C20.044 69.144 20.71 69.144 20.89 69.126C21.106 69.126 21.16 69.072 21.16 68.838V64.014C20.44 64.824 19.702 65.634 19.036 66.318L18.424 65.4C19.108 64.716 20.134 63.6 21.16 62.448V55.932H18.766V54.78H22.276ZM18.73 57.966L19.612 57.696C20.116 58.848 20.674 60.324 20.854 61.206L19.9 61.548C19.72 60.63 19.216 59.082 18.73 57.966ZM26.236 54.798V68.838C26.236 69.522 26.11 69.882 25.678 70.08C25.264 70.296 24.616 70.332 23.626 70.332C23.572 69.99 23.392 69.45 23.248 69.108C23.95 69.144 24.634 69.144 24.832 69.126C25.03 69.126 25.102 69.054 25.102 68.82V63.978C24.436 64.734 23.752 65.472 23.158 66.12L22.528 65.202C23.176 64.572 24.13 63.528 25.102 62.466V55.95H22.708V54.798H26.236ZM22.726 57.93L23.608 57.696C24.112 58.812 24.652 60.27 24.832 61.134L23.914 61.44C23.716 60.54 23.212 59.028 22.726 57.93ZM43.174 68.19V59.91H40.474V68.19H43.174ZM31.672 59.91V68.19H34.228V59.91H31.672ZM39.25 61.89V59.91H35.452V61.89H39.25ZM35.452 66.102V68.19H39.25V66.102H35.452ZM39.25 65.004V62.988H35.452V65.004H39.25ZM45.388 56.418H38.008C37.792 57.174 37.54 57.984 37.306 58.668H44.524V70.386H43.174V69.432H31.672V70.386H30.376V58.668H35.938C36.136 57.984 36.316 57.156 36.46 56.418H29.566V55.14H45.388V56.418Z" fill="white"/>
<g clip-path="url(#clip0_694_649)">
<path d="M18.866 14.542L22.026 16.754C22.2665 16.8969 22.4744 17.0888 22.636 17.3172C22.7975 17.5456 22.9093 17.8054 22.964 18.0798C23.0187 18.3542 23.0151 18.6371 22.9534 18.91C22.8917 19.1829 22.7734 19.4398 22.606 19.664L20.34 22.9C20.0784 23.2727 19.6975 23.545 19.2601 23.6719C18.8228 23.7987 18.3552 23.7726 17.9348 23.5977C17.5144 23.4228 17.1662 23.1096 16.9479 22.71C16.7295 22.3104 16.6541 21.8483 16.734 21.4C15.7811 21.6662 14.853 22.0142 13.96 22.44C13.116 22.856 12.576 23.256 12.272 23.582C11.896 23.984 12.092 24.286 12.42 24.576L12.652 24.766C13.312 25.286 14.392 25.844 15.904 26.346C18.908 27.348 23.184 28 28 28C32.816 28 37.092 27.346 40.096 26.346C41.608 25.842 42.688 25.286 43.348 24.766L43.596 24.564C43.91 24.294 44.112 24.014 43.772 23.628C43.512 23.332 43.042 22.962 42.292 22.568C40.79 21.776 38.518 21.068 35.672 20.598C35.1485 20.5113 34.6808 20.2201 34.3719 19.7886C34.0631 19.3571 33.9383 18.8205 34.025 18.297C34.1117 17.7735 34.4029 17.3058 34.8344 16.9969C35.2659 16.6881 35.8025 16.5633 36.326 16.65C39.408 17.162 42.138 17.964 44.154 19.028C46.004 20 48 21.606 48 24C48 25.704 46.962 27.01 45.824 27.906C44.662 28.822 43.104 29.558 41.36 30.14C37.85 31.31 33.126 32 28 32C22.874 32 18.15 31.31 14.64 30.14C12.894 29.56 11.338 28.82 10.176 27.906C9.036 27.01 8 25.706 8 24C8 22.728 8.59 21.664 9.348 20.85C10.096 20.05 11.094 19.392 12.192 18.85C13.322 18.294 14.656 17.81 16.14 17.41C15.8429 17.0323 15.6917 16.5603 15.7141 16.0803C15.7364 15.6004 15.9308 15.1445 16.2618 14.796C16.5927 14.4476 17.038 14.23 17.5162 14.183C17.9944 14.136 18.4736 14.2647 18.866 14.542ZM28 8C28.5304 8 29.0391 8.21071 29.4142 8.58579C29.7893 8.96086 30 9.46957 30 10V26H26V10C26 9.46957 26.2107 8.96086 26.5858 8.58579C26.9609 8.21071 27.4696 8 28 8ZM26 38V34H30V38C30 38.5304 29.7893 39.0391 29.4142 39.4142C29.0391 39.7893 28.5304 40 28 40C27.4696 40 26.9609 39.7893 26.5858 39.4142C26.2107 39.0391 26 38.5304 26 38Z" fill="white"/>
</g>
<defs>
<clipPath id="clip0_694_649">
<rect width="48" height="48" fill="white" transform="translate(4)"/>
</clipPath>
</defs>
</svg>
