<svg width="42" height="60" viewBox="0 0 42 60" fill="none" xmlns="http://www.w3.org/2000/svg">
<path d="M12.544 44.8703V45.6263C12.544 47.2463 12.076 49.1543 9.934 50.4143C9.754 50.1443 9.304 49.6403 9.07 49.4423C10.996 48.3443 11.302 46.8683 11.302 45.5903V43.6103H16.774V47.7863C16.774 48.2903 16.81 48.4523 17.062 48.4523H18.124C18.358 48.4523 18.7 48.4163 18.916 48.3623C18.934 48.7043 18.988 49.2083 19.006 49.5143C18.826 49.5863 18.466 49.6043 18.124 49.6043H16.954C15.784 49.6043 15.532 49.1003 15.532 47.7503V44.8703H12.544ZM7.324 45.2123L6.244 45.8243C5.974 45.1763 5.398 44.1683 4.894 43.4123L5.938 42.8903C6.46 43.6283 7.036 44.5643 7.324 45.2123ZM9.754 46.0223V47.1203H2.95V46.0223H9.754ZM3.724 51.7823V50.7203H9.034V51.7823H3.724ZM3.724 48.3803H9.016V49.4423H3.724V48.3803ZM16.594 52.1243H11.518C12.112 53.4563 12.976 54.6083 14.056 55.5623C15.118 54.6263 16 53.4923 16.594 52.1243ZM7.828 57.2003V54.2303H4.876V57.2003H7.828ZM17.458 50.8103L18.304 51.1883C17.638 53.3663 16.522 55.0583 15.1 56.3723C16.324 57.2003 17.746 57.8123 19.348 58.1723C19.078 58.4603 18.7 59.0003 18.52 59.3783C16.828 58.9283 15.334 58.2083 14.056 57.2363C12.724 58.2263 11.212 58.9463 9.592 59.4323C9.466 59.0903 9.214 58.6223 8.98 58.3163H4.876V59.1623H3.706V53.1143H9.016V58.1903C10.438 57.8123 11.824 57.2003 13.03 56.3723C11.914 55.2743 10.996 53.9243 10.348 52.3943L11.122 52.1243H9.556V50.8643H17.224L17.458 50.8103ZM26.692 45.2123L25.612 45.8243C25.36 45.1763 24.784 44.1683 24.298 43.4303L25.306 42.9083C25.846 43.6463 26.422 44.5823 26.692 45.2123ZM29.554 46.0223V47.1203H22.156V46.0223H29.554ZM28.744 50.7203V51.7823H22.948V50.7203H28.744ZM27.61 54.2303H24.262V57.2003H27.61V54.2303ZM28.798 53.1143V58.3163H24.262V59.1623H23.092V53.1143H28.798ZM22.948 49.4423V48.3803H28.798V49.4423H22.948ZM38.086 49.1723V50.4863H34.396V59.4143H33.046V50.4863H29.518V49.1723H33.046V43.3043H34.396V49.1723H38.086Z" fill="white"/>
<path d="M17.6349 1.5745C18.2264 0.244498 20.0482 0.179748 20.7622 1.375L20.8654 1.5745L22.6889 5.67825C24.2812 9.26035 26.9292 12.271 30.2787 14.3075L30.8422 14.6382L34.0797 16.4582C34.3371 16.6023 34.5543 16.8085 34.7116 17.0581C34.8688 17.3076 34.9612 17.5925 34.9801 17.8869C34.9991 18.1812 34.9441 18.4757 34.8201 18.7433C34.6962 19.011 34.5072 19.2433 34.2704 19.4192L34.0814 19.5417L30.8422 21.3617C27.4251 23.2839 24.6764 26.2035 22.9637 29.7302L22.6889 30.3218L20.8654 34.4255C20.2739 35.7555 18.4522 35.8203 17.7382 34.625L17.6349 34.4255L15.8114 30.3218C14.2192 26.7396 11.5712 23.729 8.22169 21.6925L7.65819 21.3617L4.42069 19.5417C4.16332 19.3977 3.9461 19.1915 3.78882 18.9419C3.63155 18.6924 3.53922 18.4075 3.52026 18.1131C3.5013 17.8188 3.5563 17.5243 3.68026 17.2567C3.80421 16.989 3.99318 16.7567 4.22994 16.5807L4.41894 16.4582L7.65819 14.6382C11.0753 12.7161 13.824 9.79646 15.5367 6.26975L15.8114 5.67825L17.6349 1.5745ZM19.2502 6.5585C17.0732 11.4585 13.4997 15.368 8.82019 18C13.4997 20.632 17.0732 24.5415 19.2502 29.4415C21.4342 24.5292 25.0077 20.6285 29.6802 18C25.0007 15.368 21.4272 11.4585 19.2502 6.5585ZM33.6352 0.713498C34.5046 2.68641 35.9866 4.3267 37.8614 5.39125C38.1414 5.54875 38.1414 5.95125 37.8614 6.10875C35.986 7.1742 34.504 8.81579 33.6352 10.79C33.602 10.8643 33.5479 10.9274 33.4796 10.9717C33.4113 11.016 33.3316 11.0396 33.2502 11.0396C33.1688 11.0396 33.0891 11.016 33.0208 10.9717C32.9525 10.9274 32.8984 10.8643 32.8652 10.79C31.9961 8.81644 30.5141 7.1755 28.6389 6.1105C28.5756 6.0744 28.523 6.0222 28.4864 5.95919C28.4498 5.89618 28.4306 5.82461 28.4306 5.75175C28.4306 5.67888 28.4498 5.60732 28.4864 5.54431C28.523 5.4813 28.5756 5.4291 28.6389 5.393C30.5146 4.32709 31.9967 2.68486 32.8652 0.709998C32.8984 0.635678 32.9525 0.572567 33.0208 0.528282C33.0891 0.483998 33.1688 0.460434 33.2502 0.460434C33.3316 0.460434 33.4113 0.483998 33.4796 0.528282C33.5479 0.572567 33.602 0.635678 33.6352 0.709998V0.713498Z" fill="white"/>
</svg>
