<svg width="44" height="60" viewBox="0 0 44 60" fill="none" xmlns="http://www.w3.org/2000/svg">
<path d="M18.5118 49.4681V47.7581H13.7598V49.4681H18.5118ZM18.5118 52.2221V50.4761H13.7598V52.2221H18.5118ZM18.5118 54.9761V53.2301H13.7598V54.9761H18.5118ZM12.5718 46.6961H15.0918C15.2178 46.1561 15.3438 45.5081 15.4158 44.9501H12.0318V43.7981H20.2938V44.9501H16.7838C16.6218 45.5441 16.4778 46.1561 16.3158 46.6961H19.7358V56.0381H12.5718V46.6961ZM5.78578 50.4581V53.0501C5.78578 54.8861 5.58778 57.4961 4.52578 59.2421C4.32778 58.9901 3.84178 58.5581 3.57178 58.4141C4.48978 56.8301 4.57978 54.6701 4.57978 53.0501V49.3601H5.17378C4.97578 49.1261 4.59778 48.7841 4.34578 48.6221C5.26378 48.3161 6.21778 47.9381 7.08178 47.4881C6.32578 47.1281 5.58778 46.8221 4.90378 46.5521L5.76778 45.8861C6.50578 46.1741 7.33378 46.5161 8.12578 46.8941C8.71978 46.5341 9.24178 46.1561 9.69178 45.7421H4.12978V44.6621H7.72978C7.56778 44.1761 7.31578 43.6001 7.08178 43.1501L8.25178 42.8621C8.59378 43.4021 8.88178 44.1041 9.06178 44.6621H11.8518V45.7421H10.1238L10.8618 46.0301C10.3758 46.4981 9.79978 46.9661 9.16978 47.3801C9.96178 47.7761 10.6998 48.1541 11.2578 48.4781L10.3938 49.2341C9.81778 48.8921 9.02578 48.4421 8.16178 48.0101C7.24378 48.5501 6.25378 49.0001 5.35378 49.3601H12.0318V50.4581H5.78578ZM10.3038 52.8701L11.3298 53.2841C10.2858 54.4181 8.59378 55.3721 7.04578 55.9841C6.84778 55.7321 6.54178 55.3901 6.25378 55.2101C7.71178 54.6701 9.38578 53.8061 10.3038 52.8701ZM9.81778 50.6021L10.8438 51.0161C9.87178 51.9521 8.28778 52.7441 6.91978 53.2301C6.72178 52.9961 6.39778 52.6721 6.12778 52.4741C7.44178 52.0421 8.97178 51.3581 9.81778 50.6021ZM10.8078 55.3541L11.9238 55.7501C10.8078 57.4241 8.75578 58.7201 6.41578 59.4581C6.23578 59.1701 5.94778 58.7921 5.65978 58.5581C7.83778 57.9461 9.81778 56.8121 10.8078 55.3541ZM14.2098 56.3261L15.3618 57.0101C14.4618 57.9281 12.9678 58.9001 11.6718 59.4581C11.4738 59.1881 11.0598 58.8101 10.7718 58.5761C12.0678 58.0541 13.5078 57.1001 14.2098 56.3261ZM16.7298 57.0821L17.7018 56.3981C18.6738 57.0641 19.9338 58.0181 20.5458 58.7021L19.5018 59.4221C18.9078 58.7741 17.6838 57.7661 16.7298 57.0821ZM32.7138 45.7061H28.0158C27.4398 46.4801 26.7558 47.2181 26.0718 47.9021H30.8238C31.4898 47.2901 32.1918 46.4621 32.7138 45.7061ZM36.0798 52.2761V49.1441H31.7778V52.2761H36.0798ZM26.3418 49.1441V52.2761H30.4818V49.1441H26.3418ZM28.6638 57.8561H35.6658C37.4478 57.8561 37.7178 57.3521 37.9338 54.9941C38.2758 55.2101 38.8158 55.4081 39.2118 55.4801C38.9058 58.2701 38.3658 59.0801 35.6658 59.0801H28.7538C25.9278 59.0801 25.0458 58.5761 25.0458 56.5061V48.8381C24.5238 49.3061 23.9838 49.7021 23.4438 50.0801C23.3358 49.7741 22.9398 49.1261 22.7238 48.8201C24.9018 47.4881 27.0978 45.2921 28.3398 42.8801L29.5278 43.3301C29.3118 43.7261 29.0958 44.1041 28.8618 44.5001H33.5958L33.8658 44.4281L34.7478 45.0581C34.1178 46.0121 33.2898 47.0381 32.4438 47.9021H37.3938V54.3461H36.0798V53.5541H26.3418V56.5241C26.3418 57.5861 26.7198 57.8561 28.6638 57.8561Z" fill="#FEB75D"/>
<path d="M20.5277 2.03977L20.7807 2.1736L35.0697 10.4236C35.8686 10.8849 36.4643 11.6306 36.7378 12.5117C37.0114 13.3928 36.9427 14.3447 36.5455 15.1774L36.4117 15.4322L25.4117 34.4842C24.9503 35.2832 24.2047 35.8788 23.3235 36.1524C22.4424 36.4259 21.4906 36.3573 20.6578 35.9601L20.403 35.8262L6.114 27.5762C5.31458 27.1148 4.7186 26.3689 4.44503 25.4873C4.17146 24.6058 4.24043 23.6535 4.63817 22.8206L4.772 22.5676L13.022 8.2786L9.84667 6.44527C9.43856 6.21291 9.13518 5.8328 8.99909 5.38333C8.86301 4.93387 8.90459 4.44931 9.11527 4.0296C9.32594 3.6099 9.68965 3.28704 10.1314 3.12761C10.5731 2.96818 11.0592 2.98435 11.4893 3.17277L11.68 3.26993L14.8553 5.10327L15.772 3.5156C16.2075 2.76017 16.8979 2.18467 17.7194 1.89235C18.5409 1.60004 19.4397 1.61005 20.2545 1.9206L20.5277 2.03977ZM30.1178 18.9999H11.0658L7.94917 24.4009L22.2363 32.6509L30.1215 18.9999H30.1178ZM37.222 17.5882L37.5832 17.1666L37.7225 17.3261L38.0855 17.7569L38.41 18.1602L38.7712 18.6332L39.1452 19.1539C39.7648 20.0504 40.3332 21.0606 40.3332 21.7499C40.3332 22.4792 40.0434 23.1787 39.5277 23.6944C39.012 24.2102 38.3125 24.4999 37.5832 24.4999C36.8538 24.4999 36.1544 24.2102 35.6386 23.6944C35.1229 23.1787 34.8332 22.4792 34.8332 21.7499C34.8332 20.9212 35.6508 19.6324 36.3952 18.6332L36.7563 18.1602L37.222 17.5882ZM18.9473 5.34893L18.0307 6.9366L19.6183 7.85327C19.8285 7.97277 20.013 8.13266 20.1611 8.32375C20.3093 8.51483 20.4181 8.73333 20.4815 8.96666C20.5448 9.2 20.5614 9.44356 20.5302 9.68332C20.4991 9.92308 20.4208 10.1543 20.2999 10.3637C20.179 10.573 20.0179 10.7565 19.8258 10.9033C19.6338 11.0502 19.4145 11.1576 19.1808 11.2194C18.9471 11.2812 18.7034 11.2962 18.4638 11.2634C18.2243 11.2307 17.9936 11.1508 17.785 11.0286L16.1973 10.1119L13.1833 15.3332H32.2353L33.2363 13.5989L18.9473 5.34893Z" fill="#FEB75D"/>
</svg>
