<svg width="56" height="75" viewBox="0 0 56 75" fill="none" xmlns="http://www.w3.org/2000/svg">
<path d="M9.208 68.19H17.128V69.522H1.09V68.19H7.804V54.222H9.208V59.73H15.904V61.062H9.208V68.19ZM19.864 61.26H36.208V62.718H19.864V61.26ZM54.694 60.684H47.674V66.3C49.618 65.13 51.058 63.6 52.048 61.62L53.308 62.214C50.95 66.84 46.432 69.234 39.574 70.278C39.448 69.9 39.178 69.36 38.89 69.036C42.436 68.55 45.334 67.686 47.584 66.354H46.288V60.684H39.034V59.406H41.734V55.356H43.066V59.406H46.414V53.952H47.8V55.86H53.056V57.12H47.8V59.406H54.694V60.684ZM43.174 61.458L44.452 61.89C43.48 63.546 41.95 65.238 40.564 66.336C40.348 66.066 39.862 65.544 39.556 65.328C40.924 64.374 42.328 62.916 43.174 61.458Z" fill="white"/>
<g clip-path="url(#clip0_694_624)">
<path d="M18.32 21.944C20.174 19.7565 22.6551 18.1911 25.4277 17.4594C28.2003 16.7277 31.1307 16.865 33.8227 17.8528C36.5147 18.8406 38.8385 20.6312 40.4798 22.9825C42.1211 25.3339 43.0008 28.1325 43 31C43 31.7956 43.3161 32.5587 43.8787 33.1213C44.4413 33.6839 45.2044 34 46 34C46.7956 34 47.5587 33.6839 48.1213 33.1213C48.6839 32.5587 49 31.7956 49 31C49 19.954 40.046 11 29 11C26.2033 10.9968 23.4371 11.5819 20.8812 12.7172C18.3252 13.8525 16.0366 15.5127 14.164 17.59L13.47 13.662C13.4086 13.2678 13.2692 12.8899 13.0599 12.5502C12.8506 12.2106 12.5757 11.9161 12.2513 11.684C11.9268 11.4518 11.5593 11.2868 11.1703 11.1984C10.7813 11.11 10.3786 11.1001 9.98566 11.1693C9.59277 11.2385 9.21762 11.3853 8.88216 11.6012C8.5467 11.8171 8.25767 12.0977 8.03199 12.4267C7.8063 12.7556 7.64849 13.1263 7.56779 13.517C7.48709 13.9077 7.48512 14.3105 7.562 14.702L9.646 26.522C9.78437 27.3054 10.2282 28.0018 10.88 28.458C11.2814 28.7299 11.739 28.9074 12.2187 28.9774C12.6984 29.0474 13.1877 29.0079 13.65 28.862L24.938 26.87C25.3322 26.8086 25.7101 26.6692 26.0498 26.4599C26.3894 26.2506 26.6839 25.9757 26.916 25.6513C27.1482 25.3268 27.3132 24.9593 27.4016 24.5703C27.49 24.1813 27.4999 23.7786 27.4307 23.3857C27.3615 22.9928 27.2147 22.6176 26.9988 22.2822C26.7829 21.9467 26.5023 21.6577 26.1733 21.432C25.8443 21.2063 25.4737 21.0485 25.083 20.9678C24.6923 20.8871 24.2895 20.8851 23.898 20.962L18.32 21.944Z" fill="white"/>
</g>
<defs>
<clipPath id="clip0_694_624">
<rect width="48" height="48" fill="white" transform="matrix(-1 0 0 1 52 0)"/>
</clipPath>
</defs>
</svg>
