<svg width="37" height="53" viewBox="0 0 37 53" fill="none" xmlns="http://www.w3.org/2000/svg">
<path d="M5.8098 40.4443V37.7443H2.7138V40.4443H5.8098ZM6.8718 36.7543V41.4703H1.6878V36.7543H6.8718ZM3.1818 45.8803H6.5838C6.5838 45.8803 6.5658 46.2403 6.5478 46.4203C6.2958 49.8763 6.0438 51.2443 5.5758 51.7303C5.3058 52.0543 4.9998 52.1623 4.5318 52.1983C4.1718 52.2343 3.4698 52.2343 2.7678 52.1803C2.7498 51.8383 2.6238 51.3703 2.4438 51.0643C3.1278 51.1183 3.7938 51.1363 4.0458 51.1363C4.3158 51.1363 4.4778 51.1003 4.6218 50.9563C4.9098 50.6683 5.1258 49.5883 5.3418 46.9603H2.9118V46.9783H1.7058C1.9578 46.1863 2.1918 45.0703 2.3898 44.0623H0.841797V42.8743H7.3038V44.0623H3.5418C3.4338 44.6563 3.2898 45.3043 3.1818 45.8803ZM9.2658 40.6243V44.0803C9.2658 46.5463 9.0138 50.0563 7.4478 52.4323C7.2318 52.2163 6.7458 51.8383 6.4398 51.6943C7.9158 49.4803 8.0778 46.3843 8.0778 44.0623V39.5083H11.6058V35.9623H12.8658V37.2223H16.4838V38.3203H12.8658V39.5083H16.3578L16.5558 39.4543L17.3658 39.6703C17.1498 40.7323 16.8438 41.9743 16.6098 42.7843L15.6198 42.5323C15.7638 42.0283 15.9078 41.3263 15.9978 40.6243H9.2658ZM10.6878 46.3303H11.8398C11.6958 49.1923 11.2638 51.2083 9.3198 52.3963C9.1578 52.1083 8.8158 51.7123 8.5458 51.5143C10.2378 50.5243 10.5798 48.7963 10.6878 46.3303ZM13.1178 44.3863H15.0258C15.3498 44.3863 15.8898 44.3503 16.1238 44.2963C16.1598 44.6203 16.1958 44.9803 16.2318 45.2863C15.9798 45.3763 15.5298 45.3763 15.0798 45.3763H12.9198C11.7678 45.3763 11.5158 44.8903 11.5158 43.7383V43.1803L9.7518 43.3603L9.6258 42.4063L11.5158 42.2083V40.7143H12.6678V42.0823L14.9898 41.8483L15.1158 42.8023L12.6678 43.0543V43.7383C12.6678 44.2243 12.7398 44.3863 13.1178 44.3863ZM15.0078 50.8123H15.6198C15.8178 50.8123 15.9978 50.7943 16.0878 50.7403C16.1958 50.6683 16.3038 50.5423 16.3398 50.3623C16.3758 50.0743 16.4118 49.3903 16.3938 48.5623C16.6278 48.7783 17.0418 49.0123 17.3838 49.1023C17.3658 49.9483 17.2938 50.8483 17.2038 51.1543C17.0958 51.4783 16.9158 51.6943 16.6638 51.8383C16.4298 51.9463 16.0338 52.0183 15.7278 52.0183H14.7558C14.3598 52.0183 13.9458 51.9463 13.6938 51.7303C13.4058 51.4963 13.3518 51.2443 13.3518 50.4163V46.3303H14.4858V50.4523C14.4858 50.5603 14.5218 50.6863 14.6298 50.7403C14.7198 50.7943 14.8458 50.8123 15.0078 50.8123ZM24.6018 48.9403V43.5583H22.2978V48.9403H24.6018ZM25.7718 50.1103H22.2978V51.5863H21.1458V45.6463C20.8758 46.2043 20.5698 46.7263 20.2458 47.1943C20.1198 46.9243 19.7058 46.2943 19.4538 46.0243C20.7678 44.0983 21.5238 41.1643 21.9738 38.0503H19.8858V36.8263H26.4558V38.0503H23.2518C23.0178 39.5623 22.7298 41.0383 22.3518 42.4063H25.7718V50.1103ZM26.5998 51.5863L25.6638 51.0463C26.4378 50.1643 26.7978 48.6163 26.9598 47.1403L27.9678 47.3923C27.7878 48.9403 27.4638 50.6143 26.5998 51.5863ZM28.6878 47.6983L29.6058 47.5543C29.8218 48.6163 29.9658 49.9663 29.9478 50.8483L28.9578 51.0103C28.9938 50.1103 28.8858 48.7423 28.6878 47.6983ZM30.5958 47.5543L31.4598 47.3203C31.8378 48.1663 32.1798 49.3183 32.3058 50.0563L31.3878 50.3263C31.2798 49.5703 30.9558 48.4363 30.5958 47.5543ZM28.4358 43.3783V45.0883H30.9198V43.3783H28.4358ZM30.9198 37.9063H28.4358V39.5443H30.9198V37.9063ZM30.9198 42.2983V40.6243H28.4358V42.2983H30.9198ZM32.1078 45.0883H35.8878C35.8878 45.0883 35.8878 45.4663 35.8698 45.6463C35.6718 49.8223 35.4558 51.3703 35.0058 51.8923C34.7178 52.2343 34.4298 52.3603 33.9438 52.3963C33.5298 52.4323 32.7738 52.4323 31.9638 52.3783C31.9458 52.0363 31.8198 51.5323 31.6398 51.2263C32.3958 51.2983 33.1158 51.3163 33.3858 51.3163C33.6738 51.3163 33.7998 51.2803 33.9618 51.1183C34.2498 50.7763 34.4658 49.5163 34.6278 46.2583H27.2118V36.7363H35.5278V37.9063H32.1078V39.5443H35.1138V40.6243H32.1078V42.2983H35.1138V43.3783H32.1078V45.0883ZM34.3578 48.9403L33.5838 49.3183C33.3678 48.7243 32.8458 47.8243 32.3778 47.1583L33.1158 46.8523C33.6198 47.5003 34.1238 48.3823 34.3578 48.9403Z" fill="#FEB75D"/>
<path d="M9.66797 29.0283H5.13672C5.00651 29.0283 4.94141 28.9632 4.94141 28.833L4.98047 1.35254C4.98047 1.24837 5.03255 1.19629 5.13672 1.19629H9.62891C9.73307 1.19629 9.78516 1.24837 9.78516 1.35254L9.82422 28.833C9.82422 28.9632 9.77214 29.0283 9.66797 29.0283ZM23.543 29.4189C21.8503 29.4189 20.3464 29.0544 19.0312 28.3252C17.7292 27.596 16.707 26.626 15.9648 25.415C15.2357 24.1911 14.8711 22.8499 14.8711 21.3916L14.9102 8.71582C14.9102 7.23145 15.2812 5.89681 16.0234 4.71191C16.7526 3.514 17.7682 2.55697 19.0703 1.84082C20.3724 1.11165 21.8633 0.74707 23.543 0.74707C25.2617 0.74707 26.7591 1.10514 28.0352 1.82129C29.3112 2.53743 30.3138 3.50098 31.043 4.71191C31.7852 5.90983 32.1562 7.24447 32.1562 8.71582L32.1953 21.3916C32.1953 22.8369 31.8307 24.1715 31.1016 25.3955C30.3594 26.6195 29.3372 27.596 28.0352 28.3252C26.7461 29.0544 25.2487 29.4189 23.543 29.4189ZM27.3516 21.3916L27.3125 8.71582C27.3125 7.77832 26.9609 7.0166 26.2578 6.43066C25.5677 5.84473 24.6628 5.55176 23.543 5.55176C22.3971 5.55176 21.4792 5.84473 20.7891 6.43066C20.099 7.0166 19.7539 7.77832 19.7539 8.71582V21.3916C19.7539 22.3812 20.099 23.1624 20.7891 23.7354C21.4792 24.3083 22.3971 24.5947 23.543 24.5947C24.6628 24.5947 25.5742 24.3083 26.2773 23.7354C26.9935 23.1624 27.3516 22.3812 27.3516 21.3916Z" fill="#FEB75D"/>
</svg>
