<svg width="48" height="64" viewBox="0 0 48 64" fill="none" xmlns="http://www.w3.org/2000/svg">
<path d="M13.7082 53.774L13.7262 54.224C14.8422 52.46 15.4902 49.724 15.8322 46.952L17.1462 47.114C17.0022 48.158 16.8042 49.202 16.5702 50.174H20.9982L21.2322 50.12L22.1322 50.408C21.7902 52.01 21.2862 53.882 20.8002 55.07L19.7022 54.728C20.0442 53.882 20.3682 52.586 20.6202 51.416H16.2642C15.8502 52.838 15.3642 54.116 14.7522 55.106C14.5182 54.908 14.0322 54.566 13.7082 54.35V54.908H6.63424V53.774H13.7082ZM9.53224 51.326V49.778H6.04024V48.644H9.53224V47.006H10.7922V48.644H14.2842V49.778H10.7922V51.326H13.9242V52.442H6.45424V51.326H9.53224ZM7.33624 58.058L8.45224 58.346C8.00224 59.642 7.33624 61.172 6.76024 62.162C6.49024 62.018 5.98624 61.766 5.69824 61.658C6.32824 60.686 6.92224 59.3 7.33624 58.058ZM14.4462 57.446H10.8102V63.368H9.55024V57.446H5.82424V56.294H14.4462V57.446ZM11.8542 58.454L12.8442 58.058C13.3662 58.94 13.9602 60.146 14.2302 60.848L13.1682 61.352C12.8982 60.614 12.3402 59.39 11.8542 58.454ZM18.4782 52.748V53.594C18.4782 54.116 18.4602 54.692 18.4242 55.286C19.0542 58.4 20.3322 61.118 22.4382 62.27C22.1502 62.522 21.7362 63.026 21.5562 63.368C19.8462 62.324 18.7302 60.416 17.9742 58.04C17.5062 59.876 16.5882 61.766 14.7882 63.404C14.5542 63.116 14.1042 62.72 13.7622 62.522C16.9662 59.66 17.2002 56.024 17.2002 53.576V52.748H18.4782ZM40.1862 49.22L39.2502 50.066C38.7282 49.436 37.6122 48.464 36.6942 47.816L37.5942 47.078C38.5122 47.69 39.6462 48.608 40.1862 49.22ZM30.1602 55.556V60.488C31.4202 60.218 32.7162 59.966 34.0122 59.678L34.1202 60.866C31.0782 61.586 27.7842 62.342 25.4982 62.846L25.0842 61.532C26.0922 61.334 27.4062 61.064 28.8462 60.776V55.556H25.6422V54.26H33.5262V55.556H30.1602ZM40.9242 51.596H35.6682C36.1182 57.644 37.5222 62.018 39.3042 62.018C39.7902 62.018 40.0062 61.028 40.1142 58.634C40.4202 58.94 40.9242 59.228 41.3022 59.372C41.0682 62.486 40.5642 63.404 39.1962 63.404C36.2802 63.404 34.7862 58.238 34.3002 51.596H25.0122V50.282H34.2102C34.1562 49.22 34.1382 48.122 34.1202 47.024H35.5242C35.5242 48.14 35.5422 49.22 35.5962 50.282H40.9242V51.596Z" fill="#FEB75D"/>
<path fill-rule="evenodd" clip-rule="evenodd" d="M30 3C33.1048 2.99989 36.0887 4.20313 38.3249 6.35693C40.5612 8.51073 41.8756 11.4474 41.992 14.55L42 15V19C41.9999 19.4899 41.8201 19.9627 41.4946 20.3287C41.169 20.6948 40.7205 20.9287 40.234 20.986L40 21H36V35C36.0003 36.0092 35.6192 36.9811 34.933 37.7211C34.2468 38.4611 33.3063 38.9143 32.3 38.99L32 39H16C14.9908 39.0003 14.0189 38.6192 13.2789 37.933C12.5389 37.2468 12.0857 36.3063 12.01 35.3L12 35V21H8C7.51013 20.9999 7.03733 20.8201 6.67126 20.4946C6.30519 20.1691 6.07131 19.7205 6.014 19.234L6 19V15C5.99989 11.8952 7.20313 8.91128 9.35693 6.67506C11.5107 4.43883 14.4474 3.12443 17.55 3.008L18 3H30ZM31.996 7.252C31.9303 9.32889 31.0591 11.2987 29.5667 12.7446C28.0743 14.1905 26.0779 14.9991 24 14.9991C21.9221 14.9991 19.9257 14.1905 18.4333 12.7446C16.9409 11.2987 16.0697 9.32889 16.004 7.252C14.3542 7.67759 12.8832 8.61857 11.8051 9.93799C10.7271 11.2574 10.0982 12.8864 10.01 14.588L10 15V17H14C14.4899 17.0001 14.9627 17.1799 15.3287 17.5054C15.6948 17.8309 15.9287 18.2795 15.986 18.766L16 19V35H32V19C32.0001 18.5101 32.1799 18.0373 32.5054 17.6713C32.8309 17.3052 33.2795 17.0713 33.766 17.014L34 17H38V15C37.9995 13.2257 37.4095 11.5019 36.3228 10.0994C35.236 8.69696 33.714 7.69535 31.996 7.252ZM28 7H20C20 8.06087 20.4214 9.07828 21.1716 9.82843C21.9217 10.5786 22.9391 11 24 11C25.0609 11 26.0783 10.5786 26.8284 9.82843C27.5786 9.07828 28 8.06087 28 7Z" fill="#FEB75D"/>
</svg>
