<svg width="56" height="75" viewBox="0 0 56 75" fill="none" xmlns="http://www.w3.org/2000/svg">
<path opacity="0.84" d="M17.056 56.598H9.46V59.802L9.694 59.532C11.836 60.558 14.662 62.178 16.084 63.258L15.148 64.464C13.924 63.456 11.512 61.98 9.46 60.882V70.35H8.038V56.598H1.162V55.266H17.056V56.598ZM19.864 61.26H36.208V62.718H19.864V61.26ZM54.694 60.684H47.674V66.3C49.618 65.13 51.058 63.6 52.048 61.62L53.308 62.214C50.95 66.84 46.432 69.234 39.574 70.278C39.448 69.9 39.178 69.36 38.89 69.036C42.436 68.55 45.334 67.686 47.584 66.354H46.288V60.684H39.034V59.406H41.734V55.356H43.066V59.406H46.414V53.952H47.8V55.86H53.056V57.12H47.8V59.406H54.694V60.684ZM43.174 61.458L44.452 61.89C43.48 63.546 41.95 65.238 40.564 66.336C40.348 66.066 39.862 65.544 39.556 65.328C40.924 64.374 42.328 62.916 43.174 61.458Z" fill="white"/>
<g clip-path="url(#clip0_694_630)">
<path d="M37.68 21.944C35.826 19.7565 33.3449 18.1911 30.5723 17.4594C27.7997 16.7277 24.8693 16.865 22.1773 17.8528C19.4853 18.8406 17.1615 20.6312 15.5202 22.9825C13.8789 25.3339 12.9992 28.1325 13 31C13 31.7956 12.6839 32.5587 12.1213 33.1213C11.5587 33.6839 10.7956 34 10 34C9.20435 34 8.44129 33.6839 7.87868 33.1213C7.31607 32.5587 7 31.7956 7 31C7 19.954 15.954 11 27 11C29.7967 10.9968 32.5629 11.5819 35.1188 12.7172C37.6748 13.8525 39.9634 15.5127 41.836 17.59L42.53 13.662C42.5914 13.2678 42.7308 12.8899 42.9401 12.5502C43.1494 12.2106 43.4243 11.9161 43.7487 11.684C44.0732 11.4518 44.4407 11.2868 44.8297 11.1984C45.2187 11.11 45.6214 11.1001 46.0143 11.1693C46.4072 11.2385 46.7824 11.3853 47.1178 11.6012C47.4533 11.8171 47.7423 12.0977 47.968 12.4267C48.1937 12.7556 48.3515 13.1263 48.4322 13.517C48.5129 13.9077 48.5149 14.3105 48.438 14.702L46.354 26.522C46.2156 27.3054 45.7718 28.0018 45.12 28.458C44.7186 28.7299 44.261 28.9074 43.7813 28.9774C43.3016 29.0474 42.8123 29.0079 42.35 28.862L31.062 26.87C30.6678 26.8086 30.2899 26.6692 29.9502 26.4599C29.6106 26.2506 29.3161 25.9757 29.084 25.6513C28.8518 25.3268 28.6868 24.9593 28.5984 24.5703C28.51 24.1813 28.5001 23.7786 28.5693 23.3857C28.6385 22.9928 28.7853 22.6176 29.0012 22.2822C29.2171 21.9467 29.4977 21.6577 29.8267 21.432C30.1557 21.2063 30.5263 21.0485 30.917 20.9678C31.3077 20.8871 31.7105 20.8851 32.102 20.962L37.68 21.944Z" fill="white"/>
</g>
<defs>
<clipPath id="clip0_694_630">
<rect width="48" height="48" fill="white" transform="translate(4)"/>
</clipPath>
</defs>
</svg>
