<svg width="37" height="53" viewBox="0 0 37 53" fill="none" xmlns="http://www.w3.org/2000/svg">
<path d="M5.81 40.4443V37.7443H2.714V40.4443H5.81ZM6.872 36.7543V41.4703H1.688V36.7543H6.872ZM3.182 45.8803H6.584C6.584 45.8803 6.566 46.2403 6.548 46.4203C6.296 49.8763 6.044 51.2443 5.576 51.7303C5.306 52.0543 5 52.1623 4.532 52.1983C4.172 52.2343 3.47 52.2343 2.768 52.1803C2.75 51.8383 2.624 51.3703 2.444 51.0643C3.128 51.1183 3.794 51.1363 4.046 51.1363C4.316 51.1363 4.478 51.1003 4.622 50.9563C4.91 50.6683 5.126 49.5883 5.342 46.9603H2.912V46.9783H1.706C1.958 46.1863 2.192 45.0703 2.39 44.0623H0.841999V42.8743H7.304V44.0623H3.542C3.434 44.6563 3.29 45.3043 3.182 45.8803ZM9.266 40.6243V44.0803C9.266 46.5463 9.014 50.0563 7.448 52.4323C7.232 52.2163 6.746 51.8383 6.44 51.6943C7.916 49.4803 8.078 46.3843 8.078 44.0623V39.5083H11.606V35.9623H12.866V37.2223H16.484V38.3203H12.866V39.5083H16.358L16.556 39.4543L17.366 39.6703C17.15 40.7323 16.844 41.9743 16.61 42.7843L15.62 42.5323C15.764 42.0283 15.908 41.3263 15.998 40.6243H9.266ZM10.688 46.3303H11.84C11.696 49.1923 11.264 51.2083 9.32 52.3963C9.158 52.1083 8.816 51.7123 8.546 51.5143C10.238 50.5243 10.58 48.7963 10.688 46.3303ZM13.118 44.3863H15.026C15.35 44.3863 15.89 44.3503 16.124 44.2963C16.16 44.6203 16.196 44.9803 16.232 45.2863C15.98 45.3763 15.53 45.3763 15.08 45.3763H12.92C11.768 45.3763 11.516 44.8903 11.516 43.7383V43.1803L9.752 43.3603L9.626 42.4063L11.516 42.2083V40.7143H12.668V42.0823L14.99 41.8483L15.116 42.8023L12.668 43.0543V43.7383C12.668 44.2243 12.74 44.3863 13.118 44.3863ZM15.008 50.8123H15.62C15.818 50.8123 15.998 50.7943 16.088 50.7403C16.196 50.6683 16.304 50.5423 16.34 50.3623C16.376 50.0743 16.412 49.3903 16.394 48.5623C16.628 48.7783 17.042 49.0123 17.384 49.1023C17.366 49.9483 17.294 50.8483 17.204 51.1543C17.096 51.4783 16.916 51.6943 16.664 51.8383C16.43 51.9463 16.034 52.0183 15.728 52.0183H14.756C14.36 52.0183 13.946 51.9463 13.694 51.7303C13.406 51.4963 13.352 51.2443 13.352 50.4163V46.3303H14.486V50.4523C14.486 50.5603 14.522 50.6863 14.63 50.7403C14.72 50.7943 14.846 50.8123 15.008 50.8123ZM24.602 48.9403V43.5583H22.298V48.9403H24.602ZM25.772 50.1103H22.298V51.5863H21.146V45.6463C20.876 46.2043 20.57 46.7263 20.246 47.1943C20.12 46.9243 19.706 46.2943 19.454 46.0243C20.768 44.0983 21.524 41.1643 21.974 38.0503H19.886V36.8263H26.456V38.0503H23.252C23.018 39.5623 22.73 41.0383 22.352 42.4063H25.772V50.1103ZM26.6 51.5863L25.664 51.0463C26.438 50.1643 26.798 48.6163 26.96 47.1403L27.968 47.3923C27.788 48.9403 27.464 50.6143 26.6 51.5863ZM28.688 47.6983L29.606 47.5543C29.822 48.6163 29.966 49.9663 29.948 50.8483L28.958 51.0103C28.994 50.1103 28.886 48.7423 28.688 47.6983ZM30.596 47.5543L31.46 47.3203C31.838 48.1663 32.18 49.3183 32.306 50.0563L31.388 50.3263C31.28 49.5703 30.956 48.4363 30.596 47.5543ZM28.436 43.3783V45.0883H30.92V43.3783H28.436ZM30.92 37.9063H28.436V39.5443H30.92V37.9063ZM30.92 42.2983V40.6243H28.436V42.2983H30.92ZM32.108 45.0883H35.888C35.888 45.0883 35.888 45.4663 35.87 45.6463C35.672 49.8223 35.456 51.3703 35.006 51.8923C34.718 52.2343 34.43 52.3603 33.944 52.3963C33.53 52.4323 32.774 52.4323 31.964 52.3783C31.946 52.0363 31.82 51.5323 31.64 51.2263C32.396 51.2983 33.116 51.3163 33.386 51.3163C33.674 51.3163 33.8 51.2803 33.962 51.1183C34.25 50.7763 34.466 49.5163 34.628 46.2583H27.212V36.7363H35.528V37.9063H32.108V39.5443H35.114V40.6243H32.108V42.2983H35.114V43.3783H32.108V45.0883ZM34.358 48.9403L33.584 49.3183C33.368 48.7243 32.846 47.8243 32.378 47.1583L33.116 46.8523C33.62 47.5003 34.124 48.3823 34.358 48.9403Z" fill="white"/>
<path d="M9.66797 29.0283H5.13672C5.00651 29.0283 4.94141 28.9632 4.94141 28.833L4.98047 1.35254C4.98047 1.24837 5.03255 1.19629 5.13672 1.19629H9.62891C9.73307 1.19629 9.78516 1.24837 9.78516 1.35254L9.82422 28.833C9.82422 28.9632 9.77214 29.0283 9.66797 29.0283ZM23.543 29.4189C21.8503 29.4189 20.3464 29.0544 19.0312 28.3252C17.7292 27.596 16.707 26.626 15.9648 25.415C15.2357 24.1911 14.8711 22.8499 14.8711 21.3916L14.9102 8.71582C14.9102 7.23145 15.2812 5.89681 16.0234 4.71191C16.7526 3.514 17.7682 2.55697 19.0703 1.84082C20.3724 1.11165 21.8633 0.74707 23.543 0.74707C25.2617 0.74707 26.7591 1.10514 28.0352 1.82129C29.3112 2.53743 30.3138 3.50098 31.043 4.71191C31.7852 5.90983 32.1562 7.24447 32.1562 8.71582L32.1953 21.3916C32.1953 22.8369 31.8307 24.1715 31.1016 25.3955C30.3594 26.6195 29.3372 27.596 28.0352 28.3252C26.7461 29.0544 25.2487 29.4189 23.543 29.4189ZM27.3516 21.3916L27.3125 8.71582C27.3125 7.77832 26.9609 7.0166 26.2578 6.43066C25.5677 5.84473 24.6628 5.55176 23.543 5.55176C22.3971 5.55176 21.4792 5.84473 20.7891 6.43066C20.099 7.0166 19.7539 7.77832 19.7539 8.71582V21.3916C19.7539 22.3812 20.099 23.1624 20.7891 23.7354C21.4792 24.3083 22.3971 24.5947 23.543 24.5947C24.6628 24.5947 25.5742 24.3083 26.2773 23.7354C26.9935 23.1624 27.3516 22.3812 27.3516 21.3916Z" fill="white"/>
</svg>
